<svg xmlns="http://www.w3.org/2000/svg" xmlns:xlink="http://www.w3.org/1999/xlink" width="40" zoomAndPan="magnify" viewBox="0 0 30 30.000001" height="40" preserveAspectRatio="xMidYMid meet" version="1.0"><defs><clipPath id="1a5d1b2073"><path d="M 0.484375 0 L 29.515625 0 L 29.515625 29.03125 L 0.484375 29.03125 Z M 0.484375 0 " clip-rule="nonzero"/></clipPath><clipPath id="377a232cb8"><path d="M 0.484375 0 L 29.515625 0 L 29.515625 29.03125 L 0.484375 29.03125 Z M 0.484375 0 " clip-rule="nonzero"/></clipPath><clipPath id="21519382f8"><path d="M 2.660156 0 L 27.339844 0 C 28.542969 0 29.515625 0.976562 29.515625 2.175781 L 29.515625 26.855469 C 29.515625 28.058594 28.542969 29.03125 27.339844 29.03125 L 2.660156 29.03125 C 1.457031 29.03125 0.484375 28.058594 0.484375 26.855469 L 0.484375 2.175781 C 0.484375 0.976562 1.457031 0 2.660156 0 Z M 2.660156 0 " clip-rule="nonzero"/></clipPath><clipPath id="0b10f1d7c9"><path d="M 0.484375 0 L 29.515625 0 L 29.515625 29.03125 L 0.484375 29.03125 Z M 0.484375 0 " clip-rule="nonzero"/></clipPath><clipPath id="653645d3b4"><path d="M 2.660156 0 L 27.339844 0 C 28.542969 0 29.515625 0.976562 29.515625 2.175781 L 29.515625 26.855469 C 29.515625 28.058594 28.542969 29.03125 27.339844 29.03125 L 2.660156 29.03125 C 1.457031 29.03125 0.484375 28.058594 0.484375 26.855469 L 0.484375 2.175781 C 0.484375 0.976562 1.457031 0 2.660156 0 Z M 2.660156 0 " clip-rule="nonzero"/></clipPath><clipPath id="c1bc2570fe"><rect x="0" width="30" y="0" height="30"/></clipPath><clipPath id="26c0f27e79"><path d="M 3.386719 6.007812 L 26.613281 6.007812 L 26.613281 22.699219 L 3.386719 22.699219 Z M 3.386719 6.007812 " clip-rule="nonzero"/></clipPath></defs><g clip-path="url(#1a5d1b2073)"><path fill="#ffffff" d="M 0.484375 0 L 29.515625 0 L 29.515625 29.03125 L 0.484375 29.03125 Z M 0.484375 0 " fill-opacity="1" fill-rule="nonzero"/><path fill="#000000" d="M 0.484375 0 L 29.515625 0 L 29.515625 29.03125 L 0.484375 29.03125 Z M 0.484375 0 " fill-opacity="1" fill-rule="nonzero"/></g><g clip-path="url(#377a232cb8)"><g clip-path="url(#21519382f8)"><g transform="matrix(1, 0, 0, 1, 0, 0.000000000000005692)"><g clip-path="url(#c1bc2570fe)"><g clip-path="url(#0b10f1d7c9)"><g clip-path="url(#653645d3b4)"><path fill="#93e85f" d="M 0.484375 0 L 29.515625 0 L 29.515625 29.03125 L 0.484375 29.03125 Z M 0.484375 0 " fill-opacity="1" fill-rule="nonzero"/></g></g></g></g></g></g><g clip-path="url(#26c0f27e79)"><path fill="#000000" d="M 24.988281 13.496094 L 19.976562 13.496094 C 19.667969 13.496094 19.375 13.585938 19.128906 13.734375 L 19.128906 7.640625 C 19.128906 6.761719 18.402344 6.046875 17.503906 6.046875 L 12.492188 6.046875 C 11.597656 6.046875 10.871094 6.761719 10.871094 7.640625 L 10.871094 11.136719 C 10.621094 10.988281 10.332031 10.898438 10.023438 10.898438 L 5.011719 10.898438 C 4.113281 10.898438 3.386719 11.609375 3.386719 12.488281 L 3.386719 22.292969 C 3.386719 22.503906 3.558594 22.671875 3.773438 22.671875 L 26.226562 22.671875 C 26.441406 22.671875 26.613281 22.503906 26.613281 22.292969 L 26.613281 15.089844 C 26.613281 14.210938 25.886719 13.496094 24.988281 13.496094 Z M 19.976562 14.253906 L 24.988281 14.253906 C 25.457031 14.253906 25.839844 14.628906 25.839844 15.085938 L 25.839844 19.988281 L 19.128906 19.988281 L 19.128906 15.085938 C 19.128906 14.628906 19.511719 14.253906 19.976562 14.253906 Z M 11.644531 7.640625 C 11.644531 7.179688 12.027344 6.804688 12.496094 6.804688 L 17.507812 6.804688 C 17.972656 6.804688 18.355469 7.179688 18.355469 7.640625 L 18.355469 19.988281 L 11.644531 19.988281 Z M 5.011719 11.65625 L 10.023438 11.65625 C 10.488281 11.65625 10.871094 12.03125 10.871094 12.488281 L 10.871094 19.988281 L 4.160156 19.988281 L 4.160156 12.488281 C 4.160156 12.03125 4.542969 11.65625 5.011719 11.65625 Z M 4.160156 20.746094 L 10.871094 20.746094 L 10.871094 21.914062 L 4.160156 21.914062 Z M 11.644531 20.746094 L 18.355469 20.746094 L 18.355469 21.914062 L 11.644531 21.914062 Z M 19.128906 21.914062 L 19.128906 20.746094 L 25.839844 20.746094 L 25.839844 21.914062 Z M 19.128906 21.914062 " fill-opacity="1" fill-rule="nonzero"/></g><path fill="#000000" d="M 14.234375 8.941406 L 14.613281 8.753906 L 14.613281 10.335938 C 14.613281 10.542969 14.785156 10.714844 15 10.714844 C 15.214844 10.714844 15.386719 10.542969 15.386719 10.335938 L 15.386719 8.136719 C 15.386719 8.003906 15.316406 7.882812 15.203125 7.8125 C 15.085938 7.742188 14.945312 7.738281 14.824219 7.796875 L 13.886719 8.265625 C 13.695312 8.359375 13.617188 8.589844 13.714844 8.777344 C 13.8125 8.960938 14.042969 9.039062 14.234375 8.941406 Z M 14.234375 8.941406 " fill-opacity="1" fill-rule="nonzero"/><path fill="#000000" d="M 6.429688 15.648438 L 8.046875 15.648438 C 8.261719 15.648438 8.433594 15.476562 8.433594 15.269531 C 8.433594 15.058594 8.261719 14.890625 8.046875 14.890625 L 6.816406 14.890625 L 6.816406 14.53125 L 8.046875 14.53125 C 8.261719 14.53125 8.433594 14.359375 8.433594 14.148438 L 8.433594 12.988281 C 8.433594 12.78125 8.261719 12.609375 8.046875 12.609375 L 6.429688 12.609375 C 6.214844 12.609375 6.042969 12.78125 6.042969 12.988281 C 6.042969 13.199219 6.214844 13.371094 6.429688 13.371094 L 7.660156 13.371094 L 7.660156 13.769531 L 6.429688 13.769531 C 6.214844 13.769531 6.042969 13.941406 6.042969 14.148438 L 6.042969 15.269531 C 6.042969 15.480469 6.214844 15.648438 6.429688 15.648438 Z M 6.429688 15.648438 " fill-opacity="1" fill-rule="nonzero"/><path fill="#000000" d="M 21.996094 17.214844 C 21.78125 17.214844 21.609375 17.386719 21.609375 17.59375 C 21.609375 17.804688 21.78125 17.976562 21.996094 17.976562 L 23.390625 17.976562 C 23.605469 17.976562 23.78125 17.804688 23.78125 17.59375 L 23.78125 15.417969 C 23.78125 15.207031 23.605469 15.039062 23.390625 15.039062 L 21.996094 15.039062 C 21.78125 15.039062 21.609375 15.207031 21.609375 15.417969 C 21.609375 15.628906 21.78125 15.796875 21.996094 15.796875 L 23.003906 15.796875 L 23.003906 16.09375 L 21.996094 16.09375 C 21.78125 16.09375 21.609375 16.265625 21.609375 16.476562 C 21.609375 16.683594 21.78125 16.855469 21.996094 16.855469 L 23.003906 16.855469 L 23.003906 17.214844 Z M 21.996094 17.214844 " fill-opacity="1" fill-rule="nonzero"/></svg>