<svg xmlns="http://www.w3.org/2000/svg" xmlns:xlink="http://www.w3.org/1999/xlink" width="40" zoomAndPan="magnify" viewBox="0 0 30 30.000001" height="40" preserveAspectRatio="xMidYMid meet" version="1.0"><defs><clipPath id="daac187711"><path d="M 0.484375 0 L 29.515625 0 L 29.515625 29.03125 L 0.484375 29.03125 Z M 0.484375 0 " clip-rule="nonzero"/></clipPath><clipPath id="9ac6757ad9"><path d="M 0.484375 0 L 29.515625 0 L 29.515625 29.03125 L 0.484375 29.03125 Z M 0.484375 0 " clip-rule="nonzero"/></clipPath><clipPath id="e271f6269f"><path d="M 2.660156 0 L 27.339844 0 C 28.542969 0 29.515625 0.976562 29.515625 2.175781 L 29.515625 26.855469 C 29.515625 28.058594 28.542969 29.03125 27.339844 29.03125 L 2.660156 29.03125 C 1.457031 29.03125 0.484375 28.058594 0.484375 26.855469 L 0.484375 2.175781 C 0.484375 0.976562 1.457031 0 2.660156 0 Z M 2.660156 0 " clip-rule="nonzero"/></clipPath><clipPath id="a338caa8a2"><path d="M 0.484375 0 L 29.515625 0 L 29.515625 29.03125 L 0.484375 29.03125 Z M 0.484375 0 " clip-rule="nonzero"/></clipPath><clipPath id="453ea5d647"><path d="M 2.660156 0 L 27.339844 0 C 28.542969 0 29.515625 0.976562 29.515625 2.175781 L 29.515625 26.855469 C 29.515625 28.058594 28.542969 29.03125 27.339844 29.03125 L 2.660156 29.03125 C 1.457031 29.03125 0.484375 28.058594 0.484375 26.855469 L 0.484375 2.175781 C 0.484375 0.976562 1.457031 0 2.660156 0 Z M 2.660156 0 " clip-rule="nonzero"/></clipPath><clipPath id="a7e6b3f8bc"><rect x="0" width="30" y="0" height="30"/></clipPath><clipPath id="0ba6de7441"><path d="M 3.386719 2.902344 L 26.613281 2.902344 L 26.613281 26.128906 L 3.386719 26.128906 Z M 3.386719 2.902344 " clip-rule="nonzero"/></clipPath><clipPath id="8a5225a364"><path d="M 3.386719 2.902344 L 10 2.902344 L 10 10 L 3.386719 10 Z M 3.386719 2.902344 " clip-rule="nonzero"/></clipPath></defs><g clip-path="url(#daac187711)"><path fill="#ffffff" d="M 0.484375 0 L 29.515625 0 L 29.515625 29.03125 L 0.484375 29.03125 Z M 0.484375 0 " fill-opacity="1" fill-rule="nonzero"/><path fill="#000000" d="M 0.484375 0 L 29.515625 0 L 29.515625 29.03125 L 0.484375 29.03125 Z M 0.484375 0 " fill-opacity="1" fill-rule="nonzero"/></g><g clip-path="url(#9ac6757ad9)"><g clip-path="url(#e271f6269f)"><g transform="matrix(1, 0, 0, 1, 0, 0.000000000000005692)"><g clip-path="url(#a7e6b3f8bc)"><g clip-path="url(#a338caa8a2)"><g clip-path="url(#453ea5d647)"><path fill="#93e85f" d="M 0.484375 0 L 29.515625 0 L 29.515625 29.03125 L 0.484375 29.03125 Z M 0.484375 0 " fill-opacity="1" fill-rule="nonzero"/></g></g></g></g></g></g><path fill="#000000" d="M 9.511719 16.558594 C 8.152344 16.558594 7.050781 15.457031 7.050781 14.109375 L 7.050781 13.835938 C 7.050781 13.605469 7.226562 13.425781 7.457031 13.425781 C 7.675781 13.425781 7.867188 13.605469 7.867188 13.835938 L 7.867188 14.109375 C 7.867188 15.007812 8.601562 15.742188 9.511719 15.742188 C 10.410156 15.742188 11.160156 15.007812 11.160156 14.109375 L 11.160156 13.835938 C 11.160156 13.605469 11.335938 13.425781 11.570312 13.425781 C 11.785156 13.425781 11.976562 13.605469 11.976562 13.835938 L 11.976562 14.109375 C 11.976562 15.457031 10.859375 16.558594 9.511719 16.558594 Z M 9.511719 16.558594 " fill-opacity="1" fill-rule="evenodd"/><path fill="#000000" d="M 13.625 16.558594 C 12.261719 16.558594 11.160156 15.457031 11.160156 14.109375 L 11.160156 13.835938 C 11.160156 13.605469 11.335938 13.425781 11.570312 13.425781 C 11.785156 13.425781 11.976562 13.605469 11.976562 13.835938 L 11.976562 14.109375 C 11.976562 15.007812 12.710938 15.742188 13.625 15.742188 C 14.523438 15.742188 15.257812 15.007812 15.257812 14.109375 L 15.257812 13.835938 C 15.257812 13.605469 15.449219 13.425781 15.667969 13.425781 C 15.898438 13.425781 16.074219 13.605469 16.074219 13.835938 L 16.074219 14.109375 C 16.074219 15.457031 14.972656 16.558594 13.625 16.558594 Z M 13.625 16.558594 " fill-opacity="1" fill-rule="evenodd"/><path fill="#000000" d="M 17.722656 16.558594 C 16.375 16.558594 15.273438 15.457031 15.273438 14.109375 L 15.273438 13.835938 C 15.273438 13.605469 15.449219 13.425781 15.679688 13.425781 C 15.898438 13.425781 16.074219 13.605469 16.074219 13.835938 L 16.074219 14.109375 C 16.074219 15.007812 16.824219 15.742188 17.722656 15.742188 C 18.636719 15.742188 19.371094 15.007812 19.371094 14.109375 L 19.371094 13.835938 C 19.371094 13.605469 19.5625 13.425781 19.777344 13.425781 C 20.011719 13.425781 20.1875 13.605469 20.1875 13.835938 L 20.1875 14.109375 C 20.1875 15.457031 19.085938 16.558594 17.722656 16.558594 Z M 17.722656 16.558594 " fill-opacity="1" fill-rule="evenodd"/><path fill="#000000" d="M 21.835938 16.558594 C 20.488281 16.558594 19.371094 15.457031 19.371094 14.109375 L 19.371094 13.835938 C 19.371094 13.605469 19.5625 13.425781 19.777344 13.425781 C 20.011719 13.425781 20.1875 13.605469 20.1875 13.835938 L 20.1875 14.109375 C 20.1875 15.007812 20.9375 15.742188 21.835938 15.742188 C 22.746094 15.742188 23.480469 15.007812 23.480469 14.109375 L 23.480469 13.835938 C 23.480469 13.605469 23.671875 13.425781 23.890625 13.425781 C 24.121094 13.425781 24.296875 13.605469 24.296875 13.835938 L 24.296875 14.109375 C 24.296875 15.457031 23.195312 16.558594 21.835938 16.558594 Z M 21.835938 16.558594 " fill-opacity="1" fill-rule="evenodd"/><path fill="#000000" d="M 7.457031 14.242188 C 7.429688 14.242188 7.390625 14.230469 7.363281 14.230469 C 7.144531 14.175781 7.007812 13.957031 7.050781 13.738281 L 7.90625 9.722656 C 8.125 8.730469 8.777344 8.117188 9.609375 8.117188 L 21.738281 8.117188 C 22.570312 8.117188 23.222656 8.730469 23.441406 9.722656 L 24.296875 13.738281 C 24.339844 13.957031 24.203125 14.175781 23.984375 14.230469 C 23.753906 14.269531 23.550781 14.136719 23.496094 13.917969 L 22.636719 9.902344 C 22.582031 9.667969 22.378906 8.933594 21.738281 8.933594 L 9.609375 8.933594 C 8.96875 8.933594 8.765625 9.667969 8.710938 9.902344 L 7.851562 13.917969 C 7.8125 14.109375 7.632812 14.242188 7.457031 14.242188 Z M 7.457031 14.242188 " fill-opacity="1" fill-rule="evenodd"/><path fill="#000000" d="M 11.570312 14.242188 C 11.542969 14.242188 11.527344 14.230469 11.5 14.230469 C 11.285156 14.203125 11.132812 14 11.160156 13.765625 L 11.894531 8.457031 C 11.921875 8.238281 12.128906 8.089844 12.359375 8.117188 C 12.578125 8.144531 12.738281 8.347656 12.699219 8.582031 L 11.964844 13.890625 C 11.9375 14.09375 11.761719 14.242188 11.570312 14.242188 Z M 11.570312 14.242188 " fill-opacity="1" fill-rule="evenodd"/><path fill="#000000" d="M 15.667969 14.242188 C 15.449219 14.242188 15.257812 14.054688 15.257812 13.835938 L 15.257812 8.527344 C 15.257812 8.292969 15.449219 8.117188 15.667969 8.117188 C 15.898438 8.117188 16.074219 8.292969 16.074219 8.527344 L 16.074219 13.835938 C 16.074219 14.054688 15.898438 14.242188 15.667969 14.242188 Z M 15.667969 14.242188 " fill-opacity="1" fill-rule="evenodd"/><path fill="#000000" d="M 19.777344 14.242188 C 19.589844 14.242188 19.410156 14.09375 19.382812 13.890625 L 18.648438 8.582031 C 18.609375 8.347656 18.769531 8.144531 18.988281 8.117188 C 19.21875 8.089844 19.425781 8.238281 19.453125 8.457031 L 20.1875 13.765625 C 20.214844 14 20.066406 14.203125 19.847656 14.230469 C 19.820312 14.230469 19.804688 14.242188 19.777344 14.242188 Z M 19.777344 14.242188 " fill-opacity="1" fill-rule="evenodd"/><path fill="#000000" d="M 21.464844 23.160156 L 9.882812 23.160156 C 8.941406 23.160156 8.179688 22.414062 8.179688 21.472656 L 8.179688 15.933594 C 8.179688 15.714844 8.355469 15.523438 8.585938 15.523438 C 8.804688 15.523438 8.996094 15.714844 8.996094 15.933594 L 8.996094 21.472656 C 8.996094 21.964844 9.390625 22.34375 9.882812 22.34375 L 21.464844 22.34375 C 21.957031 22.34375 22.351562 21.964844 22.351562 21.472656 L 22.351562 15.933594 C 22.351562 15.714844 22.542969 15.523438 22.761719 15.523438 C 22.992188 15.523438 23.167969 15.714844 23.167969 15.933594 L 23.167969 21.472656 C 23.167969 22.414062 22.40625 23.160156 21.464844 23.160156 Z M 21.464844 23.160156 " fill-opacity="1" fill-rule="evenodd"/><path fill="#000000" d="M 18.988281 21.566406 C 17.832031 21.566406 16.878906 20.628906 16.878906 19.457031 C 16.878906 18.300781 17.832031 17.347656 18.988281 17.347656 C 19.398438 17.347656 19.804688 17.46875 20.160156 17.703125 C 20.351562 17.824219 20.40625 18.082031 20.28125 18.273438 C 20.160156 18.464844 19.902344 18.519531 19.710938 18.394531 C 19.492188 18.246094 19.246094 18.164062 18.988281 18.164062 C 18.28125 18.164062 17.695312 18.75 17.695312 19.457031 C 17.695312 20.179688 18.28125 20.75 18.988281 20.75 C 19.710938 20.75 20.28125 20.179688 20.28125 19.457031 C 20.28125 19.242188 20.472656 19.050781 20.691406 19.050781 C 20.921875 19.050781 21.097656 19.242188 21.097656 19.457031 C 21.097656 20.628906 20.160156 21.566406 18.988281 21.566406 Z M 18.988281 21.566406 " fill-opacity="1" fill-rule="evenodd"/><path fill="#000000" d="M 20.691406 19.867188 L 19.289062 19.867188 C 19.070312 19.867188 18.878906 19.691406 18.878906 19.457031 C 18.878906 19.242188 19.070312 19.050781 19.289062 19.050781 L 20.691406 19.050781 C 20.921875 19.050781 21.097656 19.242188 21.097656 19.457031 C 21.097656 19.691406 20.921875 19.867188 20.691406 19.867188 Z M 20.691406 19.867188 " fill-opacity="1" fill-rule="evenodd"/><g clip-path="url(#0ba6de7441)"><path fill="#000000" d="M 6.070312 26.128906 C 4.585938 26.128906 3.386719 24.929688 3.386719 23.445312 L 3.386719 5.585938 C 3.386719 4.101562 4.585938 2.902344 6.070312 2.902344 L 23.929688 2.902344 C 25.414062 2.902344 26.613281 4.101562 26.613281 5.585938 L 26.613281 23.445312 C 26.613281 24.929688 25.414062 26.128906 23.929688 26.128906 Z M 6.070312 3.71875 C 5.035156 3.71875 4.203125 4.550781 4.203125 5.585938 L 4.203125 23.445312 C 4.203125 24.480469 5.035156 25.3125 6.070312 25.3125 L 23.929688 25.3125 C 24.964844 25.3125 25.796875 24.480469 25.796875 23.445312 L 25.796875 5.585938 C 25.796875 4.550781 24.964844 3.71875 23.929688 3.71875 Z M 6.070312 3.71875 " fill-opacity="1" fill-rule="evenodd"/></g><g clip-path="url(#8a5225a364)"><path fill="#000000" d="M 4.039062 9.996094 L 3.796875 9.996094 C 3.5625 9.996094 3.386719 9.804688 3.386719 9.585938 L 3.386719 5.570312 C 3.386719 4.101562 4.585938 2.902344 6.054688 2.902344 L 8.34375 2.902344 C 8.507812 2.902344 8.65625 3 8.710938 3.160156 C 8.941406 3.734375 9.0625 4.347656 9.0625 4.984375 C 9.0625 7.75 6.804688 9.996094 4.039062 9.996094 Z M 6.054688 3.71875 C 5.035156 3.71875 4.203125 4.550781 4.203125 5.570312 L 4.203125 9.164062 C 6.4375 9.085938 8.246094 7.234375 8.246094 4.984375 C 8.246094 4.535156 8.179688 4.113281 8.042969 3.71875 Z M 6.054688 3.71875 " fill-opacity="1" fill-rule="evenodd"/></g></svg>