<svg xmlns="http://www.w3.org/2000/svg" xmlns:xlink="http://www.w3.org/1999/xlink" width="40" zoomAndPan="magnify" viewBox="0 0 30 30.000001" height="40" preserveAspectRatio="xMidYMid meet" version="1.0"><defs><clipPath id="700014aba4"><path d="M 0.484375 0 L 29.515625 0 L 29.515625 29.03125 L 0.484375 29.03125 Z M 0.484375 0 " clip-rule="nonzero"/></clipPath><clipPath id="109ba7764a"><path d="M 0.484375 0 L 29.515625 0 L 29.515625 29.03125 L 0.484375 29.03125 Z M 0.484375 0 " clip-rule="nonzero"/></clipPath><clipPath id="d91c7588e2"><path d="M 2.660156 0 L 27.339844 0 C 28.542969 0 29.515625 0.976562 29.515625 2.175781 L 29.515625 26.855469 C 29.515625 28.058594 28.542969 29.03125 27.339844 29.03125 L 2.660156 29.03125 C 1.457031 29.03125 0.484375 28.058594 0.484375 26.855469 L 0.484375 2.175781 C 0.484375 0.976562 1.457031 0 2.660156 0 Z M 2.660156 0 " clip-rule="nonzero"/></clipPath><clipPath id="72991c2a83"><path d="M 0.484375 0 L 29.515625 0 L 29.515625 29.03125 L 0.484375 29.03125 Z M 0.484375 0 " clip-rule="nonzero"/></clipPath><clipPath id="918fd1584e"><path d="M 2.660156 0 L 27.339844 0 C 28.542969 0 29.515625 0.976562 29.515625 2.175781 L 29.515625 26.855469 C 29.515625 28.058594 28.542969 29.03125 27.339844 29.03125 L 2.660156 29.03125 C 1.457031 29.03125 0.484375 28.058594 0.484375 26.855469 L 0.484375 2.175781 C 0.484375 0.976562 1.457031 0 2.660156 0 Z M 2.660156 0 " clip-rule="nonzero"/></clipPath><clipPath id="ef33ed27e0"><rect x="0" width="30" y="0" height="30"/></clipPath><clipPath id="459bbd256c"><path d="M 8 21 L 11 21 L 11 24.417969 L 8 24.417969 Z M 8 21 " clip-rule="nonzero"/></clipPath><clipPath id="fceb338605"><path d="M 11 21 L 15 21 L 15 24.417969 L 11 24.417969 Z M 11 21 " clip-rule="nonzero"/></clipPath><clipPath id="9ac1c87c40"><path d="M 14 21 L 18 21 L 18 24.417969 L 14 24.417969 Z M 14 21 " clip-rule="nonzero"/></clipPath><clipPath id="64f90e7b16"><path d="M 3.386719 4.824219 L 26.613281 4.824219 L 26.613281 24.417969 L 3.386719 24.417969 Z M 3.386719 4.824219 " clip-rule="nonzero"/></clipPath><clipPath id="dce8ae6492"><path d="M 17 21 L 21 21 L 21 24.417969 L 17 24.417969 Z M 17 21 " clip-rule="nonzero"/></clipPath><clipPath id="df0c09d742"><path d="M 20 21 L 24 21 L 24 24.417969 L 20 24.417969 Z M 20 21 " clip-rule="nonzero"/></clipPath></defs><g clip-path="url(#700014aba4)"><path fill="#ffffff" d="M 0.484375 0 L 29.515625 0 L 29.515625 29.03125 L 0.484375 29.03125 Z M 0.484375 0 " fill-opacity="1" fill-rule="nonzero"/><path fill="#000000" d="M 0.484375 0 L 29.515625 0 L 29.515625 29.03125 L 0.484375 29.03125 Z M 0.484375 0 " fill-opacity="1" fill-rule="nonzero"/></g><g clip-path="url(#109ba7764a)"><g clip-path="url(#d91c7588e2)"><g transform="matrix(1, 0, 0, 1, 0, 0.000000000000005692)"><g clip-path="url(#ef33ed27e0)"><g clip-path="url(#72991c2a83)"><g clip-path="url(#918fd1584e)"><path fill="#93e85f" d="M 0.484375 0 L 29.515625 0 L 29.515625 29.03125 L 0.484375 29.03125 Z M 0.484375 0 " fill-opacity="1" fill-rule="nonzero"/></g></g></g></g></g></g><g clip-path="url(#459bbd256c)"><path fill="#000000" d="M 9.667969 21.882812 L 10.058594 22.742188 L 10.988281 22.851562 L 10.300781 23.492188 L 10.484375 24.417969 L 9.667969 23.957031 L 8.855469 24.417969 L 9.035156 23.492188 L 8.351562 22.851562 L 9.277344 22.742188 Z M 9.667969 21.882812 " fill-opacity="1" fill-rule="nonzero"/></g><g clip-path="url(#fceb338605)"><path fill="#000000" d="M 12.726562 21.882812 L 13.117188 22.742188 L 14.046875 22.851562 L 13.359375 23.492188 L 13.542969 24.417969 L 12.726562 23.957031 L 11.914062 24.417969 L 12.09375 23.492188 L 11.410156 22.851562 L 12.335938 22.742188 Z M 12.726562 21.882812 " fill-opacity="1" fill-rule="nonzero"/></g><g clip-path="url(#9ac1c87c40)"><path fill="#000000" d="M 15.808594 21.882812 L 16.199219 22.742188 L 17.128906 22.851562 L 16.441406 23.492188 L 16.625 24.417969 L 15.808594 23.957031 L 14.996094 24.417969 L 15.175781 23.492188 L 14.492188 22.851562 L 15.417969 22.742188 Z M 15.808594 21.882812 " fill-opacity="1" fill-rule="nonzero"/></g><g clip-path="url(#64f90e7b16)"><path fill="#000000" d="M 24.066406 21.945312 L 19.320312 18.011719 C 18.777344 19.207031 17.703125 20.019531 16.460938 20.019531 L 9.917969 20.019531 L 5.597656 24.148438 L 5.597656 19.824219 C 4.320312 19.324219 3.398438 17.917969 3.398438 16.261719 L 3.398438 10.785156 C 3.398438 8.710938 4.84375 7.027344 6.625 7.027344 L 8.160156 7.027344 C 8.746094 5.726562 10.042969 4.824219 11.546875 4.824219 L 22.878906 4.824219 C 24.933594 4.824219 26.597656 6.507812 26.597656 8.582031 L 26.597656 14.058594 C 26.597656 15.714844 25.539062 17.121094 24.066406 17.621094 Z M 11.546875 17.816406 C 9.492188 17.816406 7.828125 16.132812 7.828125 14.058594 L 7.828125 8.582031 C 7.828125 8.464844 7.832031 8.34375 7.84375 8.226562 L 7.203125 8.226562 C 5.75 8.226562 4.570312 9.601562 4.570312 11.292969 L 4.570312 15.753906 C 4.570312 17.273438 5.519531 18.53125 6.761719 18.777344 L 6.761719 19.050781 L 6.78125 19.050781 L 6.78125 21.371094 L 9.128906 19.050781 L 9.136719 19.050781 L 9.371094 18.820312 L 15.882812 18.820312 C 16.65625 18.820312 17.347656 18.433594 17.828125 17.816406 Z M 19.996094 16.847656 L 22.699219 19.167969 L 22.699219 16.847656 L 22.722656 16.847656 L 22.722656 16.574219 C 24.15625 16.328125 25.246094 15.070312 25.246094 13.550781 L 25.246094 9.089844 C 25.246094 7.398438 23.890625 6.023438 22.214844 6.023438 L 12.210938 6.023438 C 10.539062 6.023438 9.179688 7.398438 9.179688 9.089844 L 9.179688 13.550781 C 9.179688 15.242188 10.539062 16.617188 12.210938 16.617188 L 19.714844 16.617188 L 19.984375 16.847656 Z M 19.996094 16.847656 " fill-opacity="1" fill-rule="nonzero"/></g><g clip-path="url(#dce8ae6492)"><path fill="#000000" d="M 18.890625 21.882812 L 19.28125 22.742188 L 20.210938 22.851562 L 19.523438 23.492188 L 19.707031 24.417969 L 18.890625 23.957031 L 18.078125 24.417969 L 18.257812 23.492188 L 17.574219 22.851562 L 18.5 22.742188 Z M 18.890625 21.882812 " fill-opacity="1" fill-rule="nonzero"/></g><g clip-path="url(#df0c09d742)"><path fill="#000000" d="M 21.972656 21.882812 L 22.367188 22.742188 L 23.292969 22.851562 L 22.605469 23.492188 L 22.789062 24.417969 L 21.972656 23.957031 L 21.160156 24.417969 L 21.339844 23.492188 L 20.65625 22.851562 L 21.582031 22.742188 Z M 21.972656 21.882812 " fill-opacity="1" fill-rule="nonzero"/></g><path fill="#000000" d="M 13.503906 10.101562 C 14.160156 10.101562 14.691406 10.640625 14.691406 11.300781 C 14.691406 11.964844 14.160156 12.503906 13.503906 12.503906 C 12.851562 12.503906 12.316406 11.964844 12.316406 11.300781 C 12.316406 10.640625 12.851562 10.101562 13.503906 10.101562 Z M 13.503906 10.101562 " fill-opacity="1" fill-rule="nonzero"/><path fill="#000000" d="M 17.152344 10.101562 C 17.808594 10.101562 18.339844 10.640625 18.339844 11.300781 C 18.339844 11.964844 17.808594 12.503906 17.152344 12.503906 C 16.5 12.503906 15.96875 11.964844 15.96875 11.300781 C 15.96875 10.640625 16.5 10.101562 17.152344 10.101562 Z M 17.152344 10.101562 " fill-opacity="1" fill-rule="nonzero"/><path fill="#000000" d="M 20.980469 10.101562 C 21.636719 10.101562 22.167969 10.640625 22.167969 11.300781 C 22.167969 11.964844 21.636719 12.503906 20.980469 12.503906 C 20.328125 12.503906 19.792969 11.964844 19.792969 11.300781 C 19.792969 10.640625 20.328125 10.101562 20.980469 10.101562 Z M 20.980469 10.101562 " fill-opacity="1" fill-rule="nonzero"/></svg>