<svg xmlns="http://www.w3.org/2000/svg" xmlns:xlink="http://www.w3.org/1999/xlink" width="40" zoomAndPan="magnify" viewBox="0 0 30 30.000001" height="40" preserveAspectRatio="xMidYMid meet" version="1.0"><defs><filter x="0%" y="0%" width="100%" height="100%" id="04ddf95ef3"><feColorMatrix values="0 0 0 0 1 0 0 0 0 1 0 0 0 0 1 0 0 0 1 0" color-interpolation-filters="sRGB"/></filter><clipPath id="8ec0de9ae6"><path d="M 0.484375 0 L 29.515625 0 L 29.515625 29.03125 L 0.484375 29.03125 Z M 0.484375 0 " clip-rule="nonzero"/></clipPath><clipPath id="ed94cc0d45"><path d="M 0.484375 0 L 29.515625 0 L 29.515625 29.03125 L 0.484375 29.03125 Z M 0.484375 0 " clip-rule="nonzero"/></clipPath><clipPath id="714608c5b2"><path d="M 2.660156 0 L 27.339844 0 C 28.542969 0 29.515625 0.976562 29.515625 2.175781 L 29.515625 26.855469 C 29.515625 28.058594 28.542969 29.03125 27.339844 29.03125 L 2.660156 29.03125 C 1.457031 29.03125 0.484375 28.058594 0.484375 26.855469 L 0.484375 2.175781 C 0.484375 0.976562 1.457031 0 2.660156 0 Z M 2.660156 0 " clip-rule="nonzero"/></clipPath><clipPath id="c6731cc4ac"><path d="M 0.484375 0 L 29.515625 0 L 29.515625 29.03125 L 0.484375 29.03125 Z M 0.484375 0 " clip-rule="nonzero"/></clipPath><clipPath id="1f2434f28c"><path d="M 2.660156 0 L 27.339844 0 C 28.542969 0 29.515625 0.976562 29.515625 2.175781 L 29.515625 26.855469 C 29.515625 28.058594 28.542969 29.03125 27.339844 29.03125 L 2.660156 29.03125 C 1.457031 29.03125 0.484375 28.058594 0.484375 26.855469 L 0.484375 2.175781 C 0.484375 0.976562 1.457031 0 2.660156 0 Z M 2.660156 0 " clip-rule="nonzero"/></clipPath><clipPath id="0dc0aac545"><rect x="0" width="30" y="0" height="30"/></clipPath><mask id="96e764c5c7"><g filter="url(#04ddf95ef3)"><rect x="-3" width="36" fill="#000000" y="-3" height="36.000001" fill-opacity="0.3"/></g></mask><clipPath id="d76e073653"><path d="M 0.542969 0.21875 L 11.457031 0.21875 L 11.457031 9 L 0.542969 9 Z M 0.542969 0.21875 " clip-rule="nonzero"/></clipPath><clipPath id="6d4964903a"><rect x="0" width="12" y="0" height="10"/></clipPath><clipPath id="9872200bfb"><path d="M 3.386719 2.902344 L 26.613281 2.902344 L 26.613281 26.128906 L 3.386719 26.128906 Z M 3.386719 2.902344 " clip-rule="nonzero"/></clipPath></defs><g clip-path="url(#8ec0de9ae6)"><path fill="#ffffff" d="M 0.484375 0 L 29.515625 0 L 29.515625 29.03125 L 0.484375 29.03125 Z M 0.484375 0 " fill-opacity="1" fill-rule="nonzero"/><path fill="#000000" d="M 0.484375 0 L 29.515625 0 L 29.515625 29.03125 L 0.484375 29.03125 Z M 0.484375 0 " fill-opacity="1" fill-rule="nonzero"/></g><g clip-path="url(#ed94cc0d45)"><g clip-path="url(#714608c5b2)"><g transform="matrix(1, 0, 0, 1, 0, 0.000000000000005692)"><g clip-path="url(#0dc0aac545)"><g clip-path="url(#c6731cc4ac)"><g clip-path="url(#1f2434f28c)"><path fill="#93e85f" d="M 0.484375 0 L 29.515625 0 L 29.515625 29.03125 L 0.484375 29.03125 Z M 0.484375 0 " fill-opacity="1" fill-rule="nonzero"/></g></g></g></g></g></g><g mask="url(#96e764c5c7)"><g transform="matrix(1, 0, 0, 1, 9, 10)"><g clip-path="url(#6d4964903a)"><g clip-path="url(#d76e073653)"><path fill="#000000" d="M 1.625 0.25 C 1.027344 0.25 0.542969 0.734375 0.542969 1.328125 L 0.542969 7.8125 C 0.542969 8.40625 1.027344 8.890625 1.625 8.890625 L 10.265625 8.890625 C 10.863281 8.890625 11.347656 8.40625 11.347656 7.8125 L 11.347656 1.328125 C 11.347656 0.734375 10.863281 0.25 10.265625 0.25 Z M 9.1875 4.632812 L 6.671875 5.890625 C 6.445312 6.003906 6.195312 6.0625 5.945312 6.0625 C 5.695312 6.0625 5.449219 6.003906 5.222656 5.890625 L 2.707031 4.632812 L 2.707031 3.425781 L 5.703125 4.925781 C 5.855469 5 6.035156 5 6.1875 4.925781 L 9.1875 3.425781 Z M 9.1875 4.632812 " fill-opacity="1" fill-rule="nonzero"/></g></g></g></g><g clip-path="url(#9872200bfb)"><path fill="#000000" d="M 26.558594 14.570312 C 26.558594 20.972656 21.347656 26.183594 14.945312 26.183594 C 8.542969 26.183594 3.332031 20.972656 3.332031 14.570312 C 3.332031 8.167969 8.542969 2.957031 14.945312 2.957031 C 17.882812 2.957031 20.652344 4.0625 22.777344 6.015625 L 22.777344 3.765625 C 22.777344 3.320312 23.140625 2.957031 23.589844 2.957031 C 24.035156 2.957031 24.398438 3.320312 24.398438 3.765625 L 24.398438 8.089844 C 24.398438 8.535156 24.035156 8.898438 23.589844 8.898438 L 19.265625 8.898438 C 18.820312 8.898438 18.457031 8.535156 18.457031 8.089844 C 18.457031 7.640625 18.820312 7.277344 19.265625 7.277344 L 21.761719 7.277344 C 19.921875 5.554688 17.507812 4.578125 14.945312 4.578125 C 9.4375 4.578125 4.953125 9.058594 4.953125 14.570312 C 4.953125 20.082031 9.4375 24.5625 14.945312 24.5625 C 20.457031 24.5625 24.9375 20.082031 24.9375 14.570312 C 24.9375 14.121094 25.300781 13.761719 25.75 13.761719 C 26.195312 13.761719 26.558594 14.121094 26.558594 14.570312 Z M 26.558594 14.570312 " fill-opacity="1" fill-rule="nonzero"/></g></svg>