<svg xmlns="http://www.w3.org/2000/svg" xmlns:xlink="http://www.w3.org/1999/xlink" width="40" zoomAndPan="magnify" viewBox="0 0 30 30.000001" height="40" preserveAspectRatio="xMidYMid meet" version="1.0"><defs><clipPath id="3d0d59ddab"><path d="M 0.484375 0 L 29.515625 0 L 29.515625 29.03125 L 0.484375 29.03125 Z M 0.484375 0 " clip-rule="nonzero"/></clipPath><clipPath id="c604c5dc46"><path d="M 0.484375 0 L 29.515625 0 L 29.515625 29.03125 L 0.484375 29.03125 Z M 0.484375 0 " clip-rule="nonzero"/></clipPath><clipPath id="f80aa46a32"><path d="M 2.660156 0 L 27.339844 0 C 28.542969 0 29.515625 0.976562 29.515625 2.175781 L 29.515625 26.855469 C 29.515625 28.058594 28.542969 29.03125 27.339844 29.03125 L 2.660156 29.03125 C 1.457031 29.03125 0.484375 28.058594 0.484375 26.855469 L 0.484375 2.175781 C 0.484375 0.976562 1.457031 0 2.660156 0 Z M 2.660156 0 " clip-rule="nonzero"/></clipPath><clipPath id="4739f4707c"><path d="M 0.484375 0 L 29.515625 0 L 29.515625 29.03125 L 0.484375 29.03125 Z M 0.484375 0 " clip-rule="nonzero"/></clipPath><clipPath id="14128f1e45"><path d="M 2.660156 0 L 27.339844 0 C 28.542969 0 29.515625 0.976562 29.515625 2.175781 L 29.515625 26.855469 C 29.515625 28.058594 28.542969 29.03125 27.339844 29.03125 L 2.660156 29.03125 C 1.457031 29.03125 0.484375 28.058594 0.484375 26.855469 L 0.484375 2.175781 C 0.484375 0.976562 1.457031 0 2.660156 0 Z M 2.660156 0 " clip-rule="nonzero"/></clipPath><clipPath id="2450fd0bd1"><rect x="0" width="30" y="0" height="30"/></clipPath><clipPath id="4a87408fa6"><path d="M 3.386719 5.285156 L 26.613281 5.285156 L 26.613281 23.429688 L 3.386719 23.429688 Z M 3.386719 5.285156 " clip-rule="nonzero"/></clipPath></defs><g clip-path="url(#3d0d59ddab)"><path fill="#ffffff" d="M 0.484375 0 L 29.515625 0 L 29.515625 29.03125 L 0.484375 29.03125 Z M 0.484375 0 " fill-opacity="1" fill-rule="nonzero"/><path fill="#000000" d="M 0.484375 0 L 29.515625 0 L 29.515625 29.03125 L 0.484375 29.03125 Z M 0.484375 0 " fill-opacity="1" fill-rule="nonzero"/></g><g clip-path="url(#c604c5dc46)"><g clip-path="url(#f80aa46a32)"><g transform="matrix(1, 0, 0, 1, 0, 0.000000000000005692)"><g clip-path="url(#2450fd0bd1)"><g clip-path="url(#4739f4707c)"><g clip-path="url(#14128f1e45)"><path fill="#93e85f" d="M 0.484375 0 L 29.515625 0 L 29.515625 29.03125 L 0.484375 29.03125 Z M 0.484375 0 " fill-opacity="1" fill-rule="nonzero"/></g></g></g></g></g></g><g clip-path="url(#4a87408fa6)"><path fill="#000000" d="M 5.894531 23.425781 C 5.835938 23.425781 5.78125 23.40625 5.734375 23.367188 C 5.640625 23.292969 5.617188 23.164062 5.671875 23.058594 L 8.292969 18.257812 L 4.632812 18.257812 C 3.949219 18.257812 3.398438 17.714844 3.398438 17.042969 L 3.398438 6.492188 C 3.398438 5.824219 3.949219 5.28125 4.632812 5.28125 L 25.371094 5.28125 C 26.050781 5.28125 26.605469 5.824219 26.605469 6.492188 L 26.605469 17.046875 C 26.605469 17.714844 26.050781 18.257812 25.371094 18.257812 L 12.578125 18.257812 L 6.054688 23.371094 C 6.007812 23.40625 5.953125 23.425781 5.894531 23.425781 Z M 4.632812 5.777344 C 4.230469 5.777344 3.902344 6.101562 3.902344 6.492188 L 3.902344 17.046875 C 3.902344 17.4375 4.230469 17.761719 4.632812 17.761719 L 8.714844 17.761719 C 8.804688 17.761719 8.886719 17.804688 8.933594 17.878906 C 8.980469 17.957031 8.980469 18.050781 8.941406 18.125 L 6.703125 22.226562 L 12.332031 17.8125 C 12.378906 17.777344 12.433594 17.757812 12.492188 17.757812 L 25.371094 17.757812 C 25.769531 17.757812 26.097656 17.4375 26.097656 17.042969 L 26.097656 6.492188 C 26.097656 6.101562 25.769531 5.777344 25.371094 5.777344 Z M 4.632812 5.777344 " fill-opacity="1" fill-rule="nonzero"/></g><path fill="#000000" d="M 6.714844 11.367188 C 6.671875 11.367188 6.628906 11.355469 6.589844 11.335938 C 5.253906 10.589844 5.230469 10.105469 5.300781 9.078125 C 5.308594 8.929688 5.320312 8.765625 5.328125 8.585938 C 5.347656 8.105469 5.75 7.726562 6.242188 7.726562 L 6.734375 7.726562 C 7.238281 7.726562 7.648438 8.128906 7.648438 8.625 L 7.648438 9.089844 C 7.648438 9.585938 7.238281 9.988281 6.734375 9.988281 L 6.667969 9.988281 C 6.605469 10.292969 6.808594 10.777344 6.933594 10.996094 C 6.988281 11.09375 6.972656 11.214844 6.890625 11.296875 C 6.84375 11.34375 6.777344 11.367188 6.714844 11.367188 Z M 6.242188 8.222656 C 6.023438 8.222656 5.84375 8.390625 5.835938 8.605469 C 5.828125 8.792969 5.816406 8.960938 5.804688 9.109375 C 5.757812 9.800781 5.738281 10.113281 6.195312 10.484375 C 6.128906 10.195312 6.121094 9.871094 6.277344 9.609375 C 6.324219 9.535156 6.40625 9.488281 6.496094 9.488281 L 6.734375 9.488281 C 6.957031 9.488281 7.140625 9.308594 7.140625 9.089844 L 7.140625 8.621094 C 7.140625 8.402344 6.957031 8.222656 6.734375 8.222656 Z M 6.242188 8.222656 " fill-opacity="1" fill-rule="nonzero"/><path fill="#000000" d="M 9.625 11.367188 C 9.582031 11.367188 9.539062 11.355469 9.5 11.335938 C 8.164062 10.589844 8.140625 10.105469 8.210938 9.078125 C 8.21875 8.929688 8.230469 8.765625 8.238281 8.585938 C 8.257812 8.105469 8.660156 7.726562 9.152344 7.726562 L 9.644531 7.726562 C 10.148438 7.726562 10.558594 8.128906 10.558594 8.625 L 10.558594 9.089844 C 10.558594 9.585938 10.148438 9.988281 9.644531 9.988281 L 9.578125 9.988281 C 9.515625 10.292969 9.71875 10.777344 9.84375 10.996094 C 9.898438 11.09375 9.882812 11.214844 9.800781 11.296875 C 9.753906 11.34375 9.6875 11.367188 9.625 11.367188 Z M 9.152344 8.222656 C 8.933594 8.222656 8.753906 8.390625 8.746094 8.605469 C 8.738281 8.792969 8.726562 8.960938 8.714844 9.109375 C 8.667969 9.800781 8.648438 10.113281 9.105469 10.484375 C 9.039062 10.195312 9.03125 9.871094 9.1875 9.609375 C 9.234375 9.535156 9.316406 9.488281 9.40625 9.488281 L 9.644531 9.488281 C 9.867188 9.488281 10.050781 9.308594 10.050781 9.089844 L 10.050781 8.621094 C 10.050781 8.402344 9.867188 8.222656 9.644531 8.222656 Z M 9.152344 8.222656 " fill-opacity="1" fill-rule="nonzero"/><path fill="#000000" d="M 24.472656 8.660156 L 11.488281 8.660156 C 11.347656 8.660156 11.234375 8.550781 11.234375 8.410156 C 11.234375 8.273438 11.347656 8.164062 11.488281 8.164062 L 24.472656 8.164062 C 24.613281 8.164062 24.726562 8.273438 24.726562 8.410156 C 24.726562 8.550781 24.613281 8.660156 24.472656 8.660156 Z M 24.472656 8.660156 " fill-opacity="1" fill-rule="nonzero"/><path fill="#000000" d="M 24.472656 9.792969 L 11.488281 9.792969 C 11.347656 9.792969 11.234375 9.683594 11.234375 9.546875 C 11.234375 9.410156 11.347656 9.296875 11.488281 9.296875 L 24.472656 9.296875 C 24.613281 9.296875 24.726562 9.410156 24.726562 9.546875 C 24.726562 9.683594 24.613281 9.792969 24.472656 9.792969 Z M 24.472656 9.792969 " fill-opacity="1" fill-rule="nonzero"/><path fill="#000000" d="M 24.472656 10.929688 L 11.488281 10.929688 C 11.347656 10.929688 11.234375 10.816406 11.234375 10.679688 C 11.234375 10.542969 11.347656 10.429688 11.488281 10.429688 L 24.472656 10.429688 C 24.613281 10.429688 24.726562 10.542969 24.726562 10.679688 C 24.726562 10.816406 24.613281 10.929688 24.472656 10.929688 Z M 24.472656 10.929688 " fill-opacity="1" fill-rule="nonzero"/><path fill="#000000" d="M 23.289062 15.8125 C 23.222656 15.8125 23.15625 15.789062 23.109375 15.742188 C 23.027344 15.660156 23.011719 15.539062 23.066406 15.441406 C 23.167969 15.265625 23.402344 14.757812 23.335938 14.433594 L 23.269531 14.433594 C 22.765625 14.433594 22.355469 14.03125 22.355469 13.535156 L 22.355469 13.070312 C 22.355469 12.574219 22.765625 12.171875 23.269531 12.171875 L 23.757812 12.171875 C 24.25 12.171875 24.652344 12.550781 24.671875 13.035156 C 24.679688 13.210938 24.691406 13.378906 24.699219 13.523438 C 24.773438 14.550781 24.746094 15.035156 23.414062 15.78125 C 23.375 15.804688 23.332031 15.8125 23.289062 15.8125 Z M 23.269531 12.667969 C 23.042969 12.667969 22.859375 12.847656 22.859375 13.070312 L 22.859375 13.535156 C 22.859375 13.757812 23.042969 13.9375 23.269531 13.9375 L 23.507812 13.9375 C 23.59375 13.9375 23.675781 13.984375 23.722656 14.058594 C 23.882812 14.316406 23.871094 14.640625 23.804688 14.933594 C 24.265625 14.558594 24.242188 14.246094 24.195312 13.558594 C 24.1875 13.410156 24.171875 13.238281 24.167969 13.054688 C 24.15625 12.839844 23.980469 12.671875 23.757812 12.671875 L 23.269531 12.671875 Z M 23.269531 12.667969 " fill-opacity="1" fill-rule="nonzero"/><path fill="#000000" d="M 20.378906 15.8125 C 20.3125 15.8125 20.246094 15.789062 20.199219 15.742188 C 20.117188 15.660156 20.101562 15.539062 20.15625 15.441406 C 20.257812 15.265625 20.492188 14.757812 20.421875 14.433594 L 20.359375 14.433594 C 19.855469 14.433594 19.445312 14.03125 19.445312 13.535156 L 19.445312 13.070312 C 19.445312 12.574219 19.855469 12.171875 20.359375 12.171875 L 20.847656 12.171875 C 21.339844 12.171875 21.742188 12.550781 21.761719 13.035156 C 21.769531 13.210938 21.78125 13.378906 21.789062 13.523438 C 21.859375 14.550781 21.835938 15.035156 20.5 15.78125 C 20.464844 15.804688 20.421875 15.8125 20.378906 15.8125 Z M 20.359375 12.667969 C 20.132812 12.667969 19.949219 12.847656 19.949219 13.070312 L 19.949219 13.535156 C 19.949219 13.757812 20.132812 13.9375 20.359375 13.9375 L 20.59375 13.9375 C 20.683594 13.9375 20.765625 13.984375 20.8125 14.058594 C 20.972656 14.316406 20.960938 14.640625 20.894531 14.933594 C 21.355469 14.558594 21.332031 14.246094 21.285156 13.558594 C 21.273438 13.410156 21.261719 13.238281 21.253906 13.054688 C 21.246094 12.839844 21.066406 12.671875 20.847656 12.671875 L 20.359375 12.671875 Z M 20.359375 12.667969 " fill-opacity="1" fill-rule="nonzero"/><path fill="#000000" d="M 18.511719 13.105469 L 5.527344 13.105469 C 5.386719 13.105469 5.273438 12.996094 5.273438 12.859375 C 5.273438 12.722656 5.386719 12.609375 5.527344 12.609375 L 18.511719 12.609375 C 18.652344 12.609375 18.765625 12.722656 18.765625 12.859375 C 18.765625 12.996094 18.652344 13.105469 18.511719 13.105469 Z M 18.511719 13.105469 " fill-opacity="1" fill-rule="nonzero"/><path fill="#000000" d="M 18.511719 14.242188 L 5.527344 14.242188 C 5.386719 14.242188 5.273438 14.128906 5.273438 13.992188 C 5.273438 13.855469 5.386719 13.742188 5.527344 13.742188 L 18.511719 13.742188 C 18.652344 13.742188 18.765625 13.855469 18.765625 13.992188 C 18.765625 14.128906 18.652344 14.242188 18.511719 14.242188 Z M 18.511719 14.242188 " fill-opacity="1" fill-rule="nonzero"/><path fill="#000000" d="M 18.511719 15.375 L 5.527344 15.375 C 5.386719 15.375 5.273438 15.265625 5.273438 15.128906 C 5.273438 14.988281 5.386719 14.878906 5.527344 14.878906 L 18.511719 14.878906 C 18.652344 14.878906 18.765625 14.988281 18.765625 15.128906 C 18.765625 15.265625 18.652344 15.375 18.511719 15.375 Z M 18.511719 15.375 " fill-opacity="1" fill-rule="nonzero"/></svg>