<svg xmlns="http://www.w3.org/2000/svg" xmlns:xlink="http://www.w3.org/1999/xlink" width="40" zoomAndPan="magnify" viewBox="0 0 30 30.000001" height="40" preserveAspectRatio="xMidYMid meet" version="1.0"><defs><clipPath id="e74ec693e3"><path d="M 0.484375 0 L 29.515625 0 L 29.515625 29.03125 L 0.484375 29.03125 Z M 0.484375 0 " clip-rule="nonzero"/></clipPath><clipPath id="2360c9890b"><path d="M 0.484375 0 L 29.515625 0 L 29.515625 29.03125 L 0.484375 29.03125 Z M 0.484375 0 " clip-rule="nonzero"/></clipPath><clipPath id="9ad859e462"><path d="M 2.660156 0 L 27.339844 0 C 28.542969 0 29.515625 0.976562 29.515625 2.175781 L 29.515625 26.855469 C 29.515625 28.058594 28.542969 29.03125 27.339844 29.03125 L 2.660156 29.03125 C 1.457031 29.03125 0.484375 28.058594 0.484375 26.855469 L 0.484375 2.175781 C 0.484375 0.976562 1.457031 0 2.660156 0 Z M 2.660156 0 " clip-rule="nonzero"/></clipPath><clipPath id="bd26b1ade9"><path d="M 0.484375 0 L 29.515625 0 L 29.515625 29.03125 L 0.484375 29.03125 Z M 0.484375 0 " clip-rule="nonzero"/></clipPath><clipPath id="cd050493af"><path d="M 2.660156 0 L 27.339844 0 C 28.542969 0 29.515625 0.976562 29.515625 2.175781 L 29.515625 26.855469 C 29.515625 28.058594 28.542969 29.03125 27.339844 29.03125 L 2.660156 29.03125 C 1.457031 29.03125 0.484375 28.058594 0.484375 26.855469 L 0.484375 2.175781 C 0.484375 0.976562 1.457031 0 2.660156 0 Z M 2.660156 0 " clip-rule="nonzero"/></clipPath><clipPath id="48e5574e39"><rect x="0" width="30" y="0" height="30"/></clipPath><clipPath id="a977f7ce2d"><path d="M 3.808594 13 L 17 13 L 17 26.128906 L 3.808594 26.128906 Z M 3.808594 13 " clip-rule="nonzero"/></clipPath><clipPath id="a208ee5bb7"><path d="M 16 13 L 26.308594 13 L 26.308594 25 L 16 25 Z M 16 13 " clip-rule="nonzero"/></clipPath></defs><g clip-path="url(#e74ec693e3)"><path fill="#ffffff" d="M 0.484375 0 L 29.515625 0 L 29.515625 29.03125 L 0.484375 29.03125 Z M 0.484375 0 " fill-opacity="1" fill-rule="nonzero"/><path fill="#000000" d="M 0.484375 0 L 29.515625 0 L 29.515625 29.03125 L 0.484375 29.03125 Z M 0.484375 0 " fill-opacity="1" fill-rule="nonzero"/></g><g clip-path="url(#2360c9890b)"><g clip-path="url(#9ad859e462)"><g transform="matrix(1, 0, 0, 1, 0, 0.000000000000005692)"><g clip-path="url(#48e5574e39)"><g clip-path="url(#bd26b1ade9)"><g clip-path="url(#cd050493af)"><path fill="#93e85f" d="M 0.484375 0 L 29.515625 0 L 29.515625 29.03125 L 0.484375 29.03125 Z M 0.484375 0 " fill-opacity="1" fill-rule="nonzero"/></g></g></g></g></g></g><g clip-path="url(#a977f7ce2d)"><path fill="#000000" d="M 7.015625 26.113281 C 6.601562 26.113281 6.195312 26.035156 5.8125 25.882812 C 5.414062 25.722656 5.054688 25.488281 4.75 25.183594 C 4.445312 24.882812 4.207031 24.527344 4.042969 24.128906 C 3.890625 23.746094 3.8125 23.34375 3.808594 22.925781 C 3.808594 22.507812 3.886719 22.097656 4.046875 21.710938 C 4.207031 21.308594 4.445312 20.949219 4.753906 20.644531 L 11.296875 14.136719 C 11.441406 13.992188 11.632812 13.914062 11.835938 13.914062 C 12.042969 13.914062 12.234375 13.992188 12.378906 14.136719 C 12.746094 14.503906 13.339844 14.503906 13.707031 14.136719 L 14.105469 13.738281 L 14.90625 14.535156 L 14.507812 14.933594 C 14.117188 15.324219 13.59375 15.535156 13.042969 15.535156 C 12.613281 15.535156 12.203125 15.40625 11.859375 15.167969 L 5.554688 21.4375 C 5.160156 21.832031 4.941406 22.359375 4.941406 22.925781 C 4.941406 23.480469 5.15625 24 5.546875 24.386719 C 5.941406 24.773438 6.460938 24.988281 7.015625 24.988281 C 7.570312 24.988281 8.097656 24.773438 8.488281 24.382812 L 14.808594 18.097656 C 14.566406 17.757812 14.4375 17.351562 14.4375 16.925781 C 14.4375 16.375 14.652344 15.855469 15.042969 15.46875 L 15.445312 15.070312 L 16.246094 15.867188 L 15.84375 16.261719 C 15.476562 16.628906 15.476562 17.21875 15.84375 17.585938 C 16.140625 17.882812 16.140625 18.363281 15.84375 18.660156 L 9.289062 25.175781 C 8.984375 25.480469 8.625 25.71875 8.226562 25.878906 C 7.839844 26.035156 7.433594 26.113281 7.015625 26.113281 Z M 7.015625 26.113281 " fill-opacity="1" fill-rule="nonzero"/></g><path fill="#000000" d="M 12.828125 16.457031 L 13.628906 15.660156 L 15.84375 17.863281 L 15.042969 18.660156 Z M 12.828125 16.457031 " fill-opacity="1" fill-rule="nonzero"/><path fill="#000000" d="M 4.796875 21.316406 L 5.59375 20.519531 L 9.425781 24.328125 L 8.625 25.125 Z M 4.796875 21.316406 " fill-opacity="1" fill-rule="nonzero"/><path fill="#000000" d="M 13.105469 13.769531 L 13.90625 12.972656 L 16.972656 16.019531 L 16.171875 16.816406 Z M 13.105469 13.769531 " fill-opacity="1" fill-rule="nonzero"/><path fill="#000000" d="M 7.476562 20.4375 L 11.171875 16.765625 L 11.972656 17.558594 L 8.277344 21.234375 Z M 7.476562 20.4375 " fill-opacity="1" fill-rule="nonzero"/><path fill="#000000" d="M 8.769531 21.722656 L 12.464844 18.050781 L 13.265625 18.84375 L 9.570312 22.519531 Z M 8.769531 21.722656 " fill-opacity="1" fill-rule="nonzero"/><path fill="#000000" d="M 22.582031 9.851562 C 22.394531 9.851562 22.210938 9.777344 22.078125 9.644531 L 20.363281 7.9375 C 20.21875 7.796875 20.144531 7.597656 20.15625 7.394531 C 20.164062 7.195312 20.265625 7.003906 20.421875 6.878906 L 22.667969 5.105469 C 22.949219 4.878906 23.359375 4.902344 23.617188 5.160156 L 24.875 6.410156 C 25.128906 6.664062 25.152344 7.070312 24.925781 7.355469 L 23.144531 9.585938 C 23.015625 9.742188 22.828125 9.839844 22.625 9.851562 C 22.609375 9.851562 22.597656 9.851562 22.582031 9.851562 Z M 21.492188 7.472656 L 22.546875 8.519531 L 23.808594 6.941406 L 23.078125 6.214844 Z M 21.492188 7.472656 " fill-opacity="1" fill-rule="nonzero"/><path fill="#000000" d="M 15.441406 13.742188 L 21.21875 7.996094 L 22.019531 8.792969 L 16.242188 14.539062 Z M 15.441406 13.742188 " fill-opacity="1" fill-rule="nonzero"/><path fill="#000000" d="M 22.597656 22.851562 L 20.289062 22.234375 L 19.671875 19.941406 L 21.363281 18.261719 L 23.667969 18.875 L 24.289062 21.171875 Z M 21.214844 21.316406 L 22.261719 21.597656 L 23.027344 20.835938 L 22.746094 19.792969 L 21.699219 19.515625 L 20.933594 20.277344 Z M 21.214844 21.316406 " fill-opacity="1" fill-rule="nonzero"/><path fill="#000000" d="M 9.359375 11.269531 L 10.160156 10.472656 L 12.394531 12.695312 L 11.59375 13.492188 Z M 9.359375 11.269531 " fill-opacity="1" fill-rule="nonzero"/><g clip-path="url(#a208ee5bb7)"><path fill="#000000" d="M 22.046875 24.859375 C 20.953125 24.859375 19.859375 24.445312 19.03125 23.613281 C 18.007812 22.59375 17.582031 21.136719 17.878906 19.742188 L 16.464844 18.335938 L 17.265625 17.539062 L 19.144531 19.410156 L 19.046875 19.730469 C 18.71875 20.828125 19.019531 22.011719 19.832031 22.820312 C 21.050781 24.035156 23.035156 24.039062 24.257812 22.828125 C 24.847656 22.238281 25.175781 21.457031 25.175781 20.625 C 25.179688 19.792969 24.851562 19.011719 24.261719 18.421875 C 23.445312 17.613281 22.253906 17.3125 21.148438 17.640625 L 20.828125 17.738281 L 17.410156 14.335938 L 18.207031 13.542969 L 21.160156 16.476562 C 22.566406 16.179688 24.035156 16.605469 25.0625 17.625 C 25.46875 18.03125 25.78125 18.503906 25.996094 19.03125 C 26.203125 19.539062 26.308594 20.074219 26.308594 20.625 C 26.308594 21.175781 26.203125 21.714844 25.996094 22.222656 C 25.777344 22.75 25.464844 23.222656 25.054688 23.625 C 24.226562 24.449219 23.136719 24.859375 22.046875 24.859375 Z M 22.046875 24.859375 " fill-opacity="1" fill-rule="nonzero"/></g><path fill="#000000" d="M 15.050781 11.992188 L 11.488281 8.453125 L 11.585938 8.128906 C 11.914062 7.03125 11.613281 5.847656 10.800781 5.035156 C 10.101562 4.34375 9.140625 4.027344 8.195312 4.148438 L 9.523438 5.46875 C 9.886719 5.828125 10.085938 6.304688 10.085938 6.816406 C 10.085938 7.324219 9.886719 7.800781 9.523438 8.160156 C 9.164062 8.523438 8.679688 8.71875 8.167969 8.71875 C 7.65625 8.71875 7.175781 8.523438 6.816406 8.160156 L 5.480469 6.835938 C 5.355469 7.78125 5.671875 8.742188 6.375 9.4375 C 7.160156 10.21875 8.300781 10.527344 9.371094 10.25 L 10.550781 9.226562 L 11.296875 10.074219 L 9.925781 11.261719 L 9.808594 11.296875 C 8.304688 11.746094 6.683594 11.335938 5.574219 10.234375 C 4.964844 9.625 4.558594 8.859375 4.398438 8.019531 C 4.246094 7.195312 4.335938 6.355469 4.660156 5.589844 C 4.738281 5.40625 4.902344 5.273438 5.097656 5.234375 C 5.292969 5.195312 5.496094 5.257812 5.636719 5.398438 L 7.617188 7.367188 C 7.761719 7.511719 7.960938 7.59375 8.167969 7.59375 C 8.378906 7.59375 8.574219 7.511719 8.722656 7.367188 C 8.871094 7.21875 8.953125 7.023438 8.953125 6.816406 C 8.953125 6.605469 8.871094 6.410156 8.722656 6.261719 L 6.75 4.300781 C 6.605469 4.160156 6.546875 3.957031 6.585938 3.761719 C 6.621094 3.566406 6.757812 3.40625 6.941406 3.328125 C 7.710938 3.007812 8.554688 2.917969 9.378906 3.074219 C 10.222656 3.230469 10.992188 3.632812 11.601562 4.242188 C 12.628906 5.261719 13.054688 6.722656 12.757812 8.121094 L 15.851562 11.195312 Z M 15.050781 11.992188 " fill-opacity="1" fill-rule="nonzero"/></svg>