<svg xmlns="http://www.w3.org/2000/svg" xmlns:xlink="http://www.w3.org/1999/xlink" width="40" zoomAndPan="magnify" viewBox="0 0 30 30.000001" height="40" preserveAspectRatio="xMidYMid meet" version="1.0"><defs><clipPath id="cbb31dbb5a"><path d="M 0.484375 0 L 29.515625 0 L 29.515625 29.03125 L 0.484375 29.03125 Z M 0.484375 0 " clip-rule="nonzero"/></clipPath><clipPath id="ee5a81d21b"><path d="M 0.484375 0 L 29.515625 0 L 29.515625 29.03125 L 0.484375 29.03125 Z M 0.484375 0 " clip-rule="nonzero"/></clipPath><clipPath id="b5fa34cc35"><path d="M 2.660156 0 L 27.339844 0 C 28.542969 0 29.515625 0.976562 29.515625 2.175781 L 29.515625 26.855469 C 29.515625 28.058594 28.542969 29.03125 27.339844 29.03125 L 2.660156 29.03125 C 1.457031 29.03125 0.484375 28.058594 0.484375 26.855469 L 0.484375 2.175781 C 0.484375 0.976562 1.457031 0 2.660156 0 Z M 2.660156 0 " clip-rule="nonzero"/></clipPath><clipPath id="a5629289cf"><path d="M 0.484375 0 L 29.515625 0 L 29.515625 29.03125 L 0.484375 29.03125 Z M 0.484375 0 " clip-rule="nonzero"/></clipPath><clipPath id="6e18b5966a"><path d="M 2.660156 0 L 27.339844 0 C 28.542969 0 29.515625 0.976562 29.515625 2.175781 L 29.515625 26.855469 C 29.515625 28.058594 28.542969 29.03125 27.339844 29.03125 L 2.660156 29.03125 C 1.457031 29.03125 0.484375 28.058594 0.484375 26.855469 L 0.484375 2.175781 C 0.484375 0.976562 1.457031 0 2.660156 0 Z M 2.660156 0 " clip-rule="nonzero"/></clipPath><clipPath id="21b34ab7b2"><rect x="0" width="30" y="0" height="30"/></clipPath><clipPath id="76642d5a1e"><path d="M 4.675781 2.902344 L 24.996094 2.902344 L 24.996094 26.128906 L 4.675781 26.128906 Z M 4.675781 2.902344 " clip-rule="nonzero"/></clipPath></defs><g clip-path="url(#cbb31dbb5a)"><path fill="#ffffff" d="M 0.484375 0 L 29.515625 0 L 29.515625 29.03125 L 0.484375 29.03125 Z M 0.484375 0 " fill-opacity="1" fill-rule="nonzero"/><path fill="#000000" d="M 0.484375 0 L 29.515625 0 L 29.515625 29.03125 L 0.484375 29.03125 Z M 0.484375 0 " fill-opacity="1" fill-rule="nonzero"/></g><g clip-path="url(#ee5a81d21b)"><g clip-path="url(#b5fa34cc35)"><g transform="matrix(1, 0, 0, 1, 0, 0.000000000000005692)"><g clip-path="url(#21b34ab7b2)"><g clip-path="url(#a5629289cf)"><g clip-path="url(#6e18b5966a)"><path fill="#93e85f" d="M 0.484375 0 L 29.515625 0 L 29.515625 29.03125 L 0.484375 29.03125 Z M 0.484375 0 " fill-opacity="1" fill-rule="nonzero"/></g></g></g></g></g></g><g clip-path="url(#76642d5a1e)"><path fill="#000000" d="M 24.933594 15.863281 L 24.933594 6.019531 C 24.933594 5.78125 24.824219 5.5625 24.632812 5.425781 C 21.375 3.105469 18.117188 2.894531 14.839844 2.898438 C 11.585938 2.902344 8.324219 3.113281 5.050781 5.425781 C 4.859375 5.558594 4.746094 5.78125 4.746094 6.019531 C 4.746094 6.019531 4.746094 10.96875 4.746094 15.863281 C 4.746094 21.527344 9.265625 26.117188 14.839844 26.117188 L 14.839844 25.394531 C 14.839844 26.117188 14.839844 26.117188 14.839844 26.117188 C 20.414062 26.117188 24.933594 21.527344 24.933594 15.863281 Z M 23.511719 6.402344 C 20.628906 4.476562 17.738281 4.339844 14.839844 4.34375 C 11.960938 4.347656 9.066406 4.484375 6.171875 6.402344 L 6.171875 15.863281 C 6.171875 20.726562 10.050781 24.671875 14.839844 24.671875 C 14.839844 24.671875 14.839844 25.394531 14.839844 25.394531 L 14.839844 24.671875 C 19.628906 24.671875 23.511719 20.726562 23.511719 15.863281 Z M 23.511719 6.402344 " fill-opacity="1" fill-rule="evenodd"/></g><path fill="#000000" d="M 19.304688 13.976562 C 19.304688 13.574219 18.988281 13.25 18.59375 13.25 L 11.085938 13.25 C 10.695312 13.25 10.375 13.574219 10.375 13.976562 L 10.375 19.296875 C 10.375 19.699219 10.695312 20.023438 11.085938 20.023438 L 18.59375 20.023438 C 18.988281 20.023438 19.304688 19.699219 19.304688 19.296875 Z M 19.304688 13.976562 " fill-opacity="1" fill-rule="evenodd"/><path fill="#000000" d="M 18.367188 12.574219 C 18.367188 11.625 17.996094 10.714844 17.335938 10.042969 C 16.671875 9.371094 15.777344 8.992188 14.839844 8.992188 L 14.839844 9.714844 C 14.839844 8.992188 14.839844 8.992188 14.839844 8.992188 C 13.90625 8.992188 13.007812 9.371094 12.347656 10.042969 C 11.683594 10.714844 11.3125 11.625 11.3125 12.574219 C 11.3125 13.347656 11.3125 13.976562 11.3125 13.976562 C 11.3125 14.375 11.632812 14.699219 12.027344 14.699219 L 17.65625 14.699219 C 18.046875 14.699219 18.367188 14.375 18.367188 13.976562 Z M 16.941406 13.25 L 16.941406 12.574219 C 16.941406 12.007812 16.722656 11.464844 16.328125 11.066406 C 15.933594 10.664062 15.398438 10.441406 14.839844 10.441406 L 14.839844 9.714844 L 14.839844 10.441406 C 14.28125 10.441406 13.75 10.664062 13.355469 11.066406 C 12.960938 11.464844 12.738281 12.007812 12.738281 12.574219 L 12.738281 13.25 Z M 16.941406 13.25 " fill-opacity="1" fill-rule="evenodd"/></svg>