<svg xmlns="http://www.w3.org/2000/svg" xmlns:xlink="http://www.w3.org/1999/xlink" width="40" zoomAndPan="magnify" viewBox="0 0 30 30.000001" height="40" preserveAspectRatio="xMidYMid meet" version="1.0"><defs><clipPath id="a9f4165438"><path d="M 0.484375 0 L 29.515625 0 L 29.515625 29.03125 L 0.484375 29.03125 Z M 0.484375 0 " clip-rule="nonzero"/></clipPath><clipPath id="535a95b89a"><path d="M 0.484375 0 L 29.515625 0 L 29.515625 29.03125 L 0.484375 29.03125 Z M 0.484375 0 " clip-rule="nonzero"/></clipPath><clipPath id="6d779fa9a1"><path d="M 2.660156 0 L 27.339844 0 C 28.542969 0 29.515625 0.976562 29.515625 2.175781 L 29.515625 26.855469 C 29.515625 28.058594 28.542969 29.03125 27.339844 29.03125 L 2.660156 29.03125 C 1.457031 29.03125 0.484375 28.058594 0.484375 26.855469 L 0.484375 2.175781 C 0.484375 0.976562 1.457031 0 2.660156 0 Z M 2.660156 0 " clip-rule="nonzero"/></clipPath><clipPath id="d4887d644a"><path d="M 0.484375 0 L 29.515625 0 L 29.515625 29.03125 L 0.484375 29.03125 Z M 0.484375 0 " clip-rule="nonzero"/></clipPath><clipPath id="fa168dbb14"><path d="M 2.660156 0 L 27.339844 0 C 28.542969 0 29.515625 0.976562 29.515625 2.175781 L 29.515625 26.855469 C 29.515625 28.058594 28.542969 29.03125 27.339844 29.03125 L 2.660156 29.03125 C 1.457031 29.03125 0.484375 28.058594 0.484375 26.855469 L 0.484375 2.175781 C 0.484375 0.976562 1.457031 0 2.660156 0 Z M 2.660156 0 " clip-rule="nonzero"/></clipPath><clipPath id="f20b02a3f5"><rect x="0" width="30" y="0" height="30"/></clipPath><clipPath id="b55bf2143a"><path d="M 3.824219 2.902344 L 26.324219 2.902344 L 26.324219 26.128906 L 3.824219 26.128906 Z M 3.824219 2.902344 " clip-rule="nonzero"/></clipPath></defs><g clip-path="url(#a9f4165438)"><path fill="#ffffff" d="M 0.484375 0 L 29.515625 0 L 29.515625 29.03125 L 0.484375 29.03125 Z M 0.484375 0 " fill-opacity="1" fill-rule="nonzero"/><path fill="#000000" d="M 0.484375 0 L 29.515625 0 L 29.515625 29.03125 L 0.484375 29.03125 Z M 0.484375 0 " fill-opacity="1" fill-rule="nonzero"/></g><g clip-path="url(#535a95b89a)"><g clip-path="url(#6d779fa9a1)"><g transform="matrix(1, 0, 0, 1, 0, 0.000000000000005692)"><g clip-path="url(#f20b02a3f5)"><g clip-path="url(#d4887d644a)"><g clip-path="url(#fa168dbb14)"><path fill="#93e85f" d="M 0.484375 0 L 29.515625 0 L 29.515625 29.03125 L 0.484375 29.03125 Z M 0.484375 0 " fill-opacity="1" fill-rule="nonzero"/></g></g></g></g></g></g><g clip-path="url(#b55bf2143a)"><path fill="#000000" d="M 18.765625 8.117188 C 18.71875 8.027344 18.671875 7.941406 18.621094 7.851562 L 20.925781 5.183594 C 20.992188 5.25 21.0625 5.3125 21.140625 5.367188 Z M 9.242188 8.996094 L 6.347656 10.488281 C 6.398438 10.566406 6.441406 10.652344 6.476562 10.738281 L 9.371094 9.246094 C 9.320312 9.167969 9.277344 9.085938 9.242188 8.996094 Z M 14.972656 9.957031 L 12.207031 8.855469 C 12.179688 8.945312 12.144531 9.03125 12.101562 9.117188 L 14.867188 10.21875 C 14.894531 10.128906 14.929688 10.039062 14.972656 9.957031 Z M 6.21875 17.492188 C 6.175781 17.453125 6.132812 17.410156 6.089844 17.371094 C 5.441406 16.722656 4.914062 15.984375 4.53125 15.183594 L 3.820312 15.183594 L 3.820312 21.171875 L 6.21875 21.171875 Z M 11.894531 17.378906 L 11.894531 12.886719 L 9.5 12.886719 L 9.5 16.933594 C 10.191406 17.226562 10.941406 17.382812 11.714844 17.382812 C 11.777344 17.382812 11.835938 17.378906 11.894531 17.378906 Z M 9.5 19.375 L 9.5 21.171875 L 11.894531 21.171875 L 11.894531 19.683594 C 11.835938 19.683594 11.777344 19.683594 11.714844 19.683594 C 10.957031 19.683594 10.210938 19.578125 9.5 19.375 Z M 17.046875 13.609375 L 15.175781 13.609375 L 15.175781 16.203125 C 15.359375 16.058594 15.535156 15.90625 15.703125 15.742188 C 16.316406 15.128906 16.773438 14.402344 17.046875 13.609375 Z M 15.175781 18.902344 L 15.175781 21.171875 L 17.574219 21.171875 L 17.574219 20.097656 L 15.941406 18.480469 C 15.695312 18.636719 15.441406 18.777344 15.175781 18.902344 Z M 20.855469 18.359375 L 23.25 20.742188 L 23.25 8.59375 L 20.855469 8.59375 Z M 20.695312 23.199219 L 3.820312 23.199219 L 3.820312 24.226562 L 21.726562 24.226562 Z M 6.082031 11.878906 C 6.167969 11.714844 6.21875 11.527344 6.21875 11.332031 C 6.21875 11.1875 6.191406 11.054688 6.148438 10.929688 C 6.097656 11.242188 6.078125 11.5625 6.082031 11.878906 Z M 10.699219 9.59375 C 11.359375 9.59375 11.894531 9.0625 11.894531 8.40625 C 11.894531 7.75 11.359375 7.214844 10.699219 7.214844 C 10.039062 7.214844 9.5 7.75 9.5 8.40625 C 9.5 9.0625 10.039062 9.59375 10.699219 9.59375 Z M 16.375 11.859375 C 16.769531 11.859375 17.121094 11.667969 17.339844 11.375 C 17.292969 10.757812 17.148438 10.164062 16.914062 9.605469 C 16.75 9.523438 16.570312 9.476562 16.375 9.476562 C 15.714844 9.476562 15.175781 10.011719 15.175781 10.667969 C 15.175781 11.324219 15.714844 11.859375 16.375 11.859375 Z M 22.054688 2.90625 C 21.390625 2.90625 20.855469 3.4375 20.855469 4.09375 C 20.855469 4.75 21.390625 5.285156 22.054688 5.285156 C 22.714844 5.285156 23.25 4.75 23.25 4.09375 C 23.25 3.4375 22.714844 2.90625 22.054688 2.90625 Z M 18.246094 16.296875 C 17.980469 16.675781 17.679688 17.035156 17.339844 17.371094 C 17.003906 17.703125 16.644531 18.003906 16.261719 18.269531 L 17.449219 19.445312 L 19.429688 17.476562 Z M 17.714844 19.710938 L 23.691406 25.648438 C 24 25.953125 24.414062 26.128906 24.828125 26.128906 C 25.195312 26.128906 25.53125 25.992188 25.777344 25.75 C 26.324219 25.207031 26.277344 24.277344 25.675781 23.679688 L 19.699219 17.742188 Z M 6.355469 17.105469 C 4.925781 15.683594 4.136719 13.792969 4.136719 11.78125 C 4.136719 9.769531 4.925781 7.878906 6.355469 6.457031 C 7.789062 5.035156 9.691406 4.253906 11.714844 4.253906 C 13.742188 4.253906 15.644531 5.035156 17.074219 6.457031 C 20.03125 9.394531 20.03125 14.167969 17.074219 17.105469 C 15.644531 18.527344 13.742188 19.308594 11.714844 19.308594 C 9.691406 19.308594 7.789062 18.527344 6.355469 17.105469 Z M 7.464844 16.007812 C 8.597656 17.132812 10.109375 17.757812 11.714844 17.757812 C 13.324219 17.757812 14.832031 17.132812 15.96875 16.007812 C 17.105469 14.878906 17.730469 13.378906 17.730469 11.78125 C 17.730469 10.1875 17.105469 8.683594 15.96875 7.558594 C 14.832031 6.429688 13.324219 5.808594 11.714844 5.808594 C 10.109375 5.808594 8.597656 6.429688 7.464844 7.558594 C 5.117188 9.886719 5.117188 13.675781 7.464844 16.007812 Z M 7.464844 16.007812 " fill-opacity="1" fill-rule="nonzero"/></g></svg>