<svg xmlns="http://www.w3.org/2000/svg" xmlns:xlink="http://www.w3.org/1999/xlink" width="40" zoomAndPan="magnify" viewBox="0 0 30 30.000001" height="40" preserveAspectRatio="xMidYMid meet" version="1.0"><defs><clipPath id="4976efcbf0"><path d="M 0.484375 0 L 29.515625 0 L 29.515625 29.03125 L 0.484375 29.03125 Z M 0.484375 0 " clip-rule="nonzero"/></clipPath><clipPath id="f73ea3b4cd"><path d="M 0.484375 0 L 29.515625 0 L 29.515625 29.03125 L 0.484375 29.03125 Z M 0.484375 0 " clip-rule="nonzero"/></clipPath><clipPath id="db0341bde1"><path d="M 2.660156 0 L 27.339844 0 C 28.542969 0 29.515625 0.976562 29.515625 2.175781 L 29.515625 26.855469 C 29.515625 28.058594 28.542969 29.03125 27.339844 29.03125 L 2.660156 29.03125 C 1.457031 29.03125 0.484375 28.058594 0.484375 26.855469 L 0.484375 2.175781 C 0.484375 0.976562 1.457031 0 2.660156 0 Z M 2.660156 0 " clip-rule="nonzero"/></clipPath><clipPath id="b680983c83"><path d="M 0.484375 0 L 29.515625 0 L 29.515625 29.03125 L 0.484375 29.03125 Z M 0.484375 0 " clip-rule="nonzero"/></clipPath><clipPath id="8afffd1e3c"><path d="M 2.660156 0 L 27.339844 0 C 28.542969 0 29.515625 0.976562 29.515625 2.175781 L 29.515625 26.855469 C 29.515625 28.058594 28.542969 29.03125 27.339844 29.03125 L 2.660156 29.03125 C 1.457031 29.03125 0.484375 28.058594 0.484375 26.855469 L 0.484375 2.175781 C 0.484375 0.976562 1.457031 0 2.660156 0 Z M 2.660156 0 " clip-rule="nonzero"/></clipPath><clipPath id="d84edbfff8"><rect x="0" width="30" y="0" height="30"/></clipPath><clipPath id="c0068557bf"><path d="M 11 9 L 24.640625 9 L 24.640625 23 L 11 23 Z M 11 9 " clip-rule="nonzero"/></clipPath><clipPath id="a8b70f71a8"><path d="M 5.042969 2.902344 L 22 2.902344 L 22 26.128906 L 5.042969 26.128906 Z M 5.042969 2.902344 " clip-rule="nonzero"/></clipPath></defs><g clip-path="url(#4976efcbf0)"><path fill="#ffffff" d="M 0.484375 0 L 29.515625 0 L 29.515625 29.03125 L 0.484375 29.03125 Z M 0.484375 0 " fill-opacity="1" fill-rule="nonzero"/><path fill="#000000" d="M 0.484375 0 L 29.515625 0 L 29.515625 29.03125 L 0.484375 29.03125 Z M 0.484375 0 " fill-opacity="1" fill-rule="nonzero"/></g><g clip-path="url(#f73ea3b4cd)"><g clip-path="url(#db0341bde1)"><g transform="matrix(1, 0, 0, 1, 0, 0.000000000000005692)"><g clip-path="url(#d84edbfff8)"><g clip-path="url(#b680983c83)"><g clip-path="url(#8afffd1e3c)"><path fill="#93e85f" d="M 0.484375 0 L 29.515625 0 L 29.515625 29.03125 L 0.484375 29.03125 Z M 0.484375 0 " fill-opacity="1" fill-rule="nonzero"/></g></g></g></g></g></g><g clip-path="url(#c0068557bf)"><path fill="#000000" d="M 24.34375 21.367188 L 22.492188 19.480469 L 20.183594 17.136719 C 20.753906 16.328125 21.066406 15.363281 21.066406 14.351562 C 21.066406 13.078125 20.578125 11.878906 19.691406 10.980469 C 18.804688 10.078125 17.625 9.582031 16.371094 9.582031 C 15.121094 9.582031 13.941406 10.078125 13.054688 10.980469 C 12.167969 11.878906 11.679688 13.078125 11.679688 14.351562 C 11.679688 15.621094 12.167969 16.820312 13.054688 17.722656 C 13.941406 18.621094 15.121094 19.117188 16.371094 19.117188 C 17.371094 19.117188 18.320312 18.804688 19.113281 18.21875 L 21.421875 20.566406 L 23.277344 22.453125 C 23.570312 22.75 24.050781 22.75 24.34375 22.453125 C 24.640625 22.152344 24.640625 21.664062 24.34375 21.367188 Z M 18.996094 17.015625 C 17.550781 18.484375 15.199219 18.484375 13.753906 17.015625 C 12.308594 15.546875 12.308594 13.15625 13.753906 11.6875 C 15.199219 10.21875 17.550781 10.21875 18.996094 11.6875 C 20.441406 13.15625 20.441406 15.546875 18.996094 17.015625 Z M 18.996094 17.015625 " fill-opacity="1" fill-rule="nonzero"/></g><path fill="#000000" d="M 7.101562 17.027344 L 8.566406 17.027344 L 8.566406 18.804688 L 7.101562 18.804688 Z M 7.101562 17.027344 " fill-opacity="1" fill-rule="nonzero"/><path fill="#000000" d="M 9.289062 15.914062 L 10.753906 15.914062 L 10.753906 18.804688 L 9.289062 18.804688 Z M 9.289062 15.914062 " fill-opacity="1" fill-rule="nonzero"/><path fill="#000000" d="M 15.847656 17.496094 C 16.019531 17.523438 16.195312 17.539062 16.371094 17.539062 C 16.695312 17.539062 17.011719 17.488281 17.3125 17.394531 L 17.3125 13.027344 L 15.847656 13.027344 Z M 15.847656 17.496094 " fill-opacity="1" fill-rule="nonzero"/><path fill="#000000" d="M 13.660156 15.953125 C 13.792969 16.1875 13.960938 16.40625 14.15625 16.605469 C 14.4375 16.894531 14.769531 17.117188 15.125 17.277344 L 15.125 14.136719 L 13.660156 14.136719 Z M 13.660156 15.953125 " fill-opacity="1" fill-rule="nonzero"/><path fill="#000000" d="M 11.472656 16.300781 L 11.472656 18.804688 L 12.9375 18.804688 L 12.9375 18.398438 C 12.839844 18.3125 12.746094 18.222656 12.65625 18.128906 C 12.132812 17.601562 11.734375 16.976562 11.472656 16.300781 Z M 11.472656 16.300781 " fill-opacity="1" fill-rule="nonzero"/><path fill="#000000" d="M 8.367188 9.660156 L 12.675781 9.660156 L 12.675781 10.21875 L 8.367188 10.21875 Z M 8.367188 9.660156 " fill-opacity="1" fill-rule="nonzero"/><path fill="#000000" d="M 8.367188 10.972656 L 11.472656 10.972656 L 11.472656 11.527344 L 8.367188 11.527344 Z M 8.367188 10.972656 " fill-opacity="1" fill-rule="nonzero"/><path fill="#000000" d="M 8.367188 12.238281 L 10.753906 12.238281 L 10.753906 12.792969 L 8.367188 12.792969 Z M 8.367188 12.238281 " fill-opacity="1" fill-rule="nonzero"/><path fill="#000000" d="M 8.378906 8.25 L 18.132812 8.25 L 18.132812 8.804688 L 8.378906 8.804688 Z M 8.378906 8.25 " fill-opacity="1" fill-rule="nonzero"/><g clip-path="url(#a8b70f71a8)"><path fill="#000000" d="M 21.039062 21.859375 C 20.816406 21.859375 20.632812 22.042969 20.632812 22.273438 L 20.632812 25.289062 L 5.859375 25.289062 L 5.859375 3.742188 L 20.632812 3.742188 L 20.632812 10.890625 C 20.632812 11.117188 20.816406 11.304688 21.039062 11.304688 C 21.265625 11.304688 21.449219 11.117188 21.449219 10.890625 L 21.449219 3.050781 C 21.449219 2.972656 21.386719 2.914062 21.3125 2.914062 L 5.175781 2.914062 C 5.101562 2.914062 5.042969 2.972656 5.042969 3.050781 L 5.042969 25.984375 C 5.042969 26.058594 5.101562 26.121094 5.175781 26.121094 L 21.316406 26.121094 C 21.390625 26.121094 21.449219 26.058594 21.449219 25.984375 L 21.449219 22.273438 C 21.449219 22.042969 21.265625 21.859375 21.039062 21.859375 Z M 21.039062 21.859375 " fill-opacity="1" fill-rule="nonzero"/></g><path fill="#000000" d="M 9.867188 6.847656 L 10.074219 7.578125 L 10.550781 7.578125 L 9.796875 4.929688 L 9.226562 4.929688 L 8.46875 7.578125 L 8.933594 7.578125 L 9.132812 6.847656 Z M 9.375 5.855469 C 9.417969 5.695312 9.457031 5.488281 9.492188 5.324219 L 9.503906 5.324219 C 9.539062 5.488281 9.578125 5.6875 9.621094 5.855469 L 9.796875 6.496094 L 9.199219 6.496094 Z M 9.375 5.855469 " fill-opacity="1" fill-rule="nonzero"/><path fill="#000000" d="M 10.789062 4.929688 L 10.789062 6.5 C 10.789062 7.28125 11.132812 7.621094 11.695312 7.621094 C 12.269531 7.621094 12.640625 7.269531 12.640625 6.492188 L 12.640625 4.929688 L 12.183594 4.929688 L 12.183594 6.535156 C 12.183594 7.027344 12.003906 7.234375 11.710938 7.234375 C 11.4375 7.234375 11.246094 7.027344 11.246094 6.535156 L 11.246094 4.929688 Z M 10.789062 4.929688 " fill-opacity="1" fill-rule="nonzero"/><path fill="#000000" d="M 15.160156 6.195312 C 15.160156 5.722656 15.011719 5.398438 14.769531 5.191406 C 14.554688 5.007812 14.257812 4.910156 13.824219 4.910156 C 13.574219 4.910156 13.339844 4.933594 13.15625 4.964844 L 13.15625 7.566406 C 13.292969 7.585938 13.484375 7.601562 13.71875 7.601562 C 14.175781 7.601562 14.539062 7.488281 14.773438 7.265625 C 15.003906 7.050781 15.160156 6.699219 15.160156 6.195312 Z M 13.824219 7.230469 C 13.75 7.230469 13.667969 7.230469 13.609375 7.21875 L 13.609375 5.300781 C 13.667969 5.289062 13.757812 5.277344 13.875 5.277344 C 14.398438 5.277344 14.683594 5.617188 14.679688 6.203125 C 14.679688 6.917969 14.34375 7.234375 13.824219 7.230469 Z M 13.824219 7.230469 " fill-opacity="1" fill-rule="nonzero"/><path fill="#000000" d="M 15.546875 4.929688 L 16.003906 4.929688 L 16.003906 7.578125 L 15.546875 7.578125 Z M 15.546875 4.929688 " fill-opacity="1" fill-rule="nonzero"/><path fill="#000000" d="M 17.417969 7.578125 L 17.417969 5.332031 L 18.085938 5.332031 L 18.085938 4.929688 L 16.300781 4.929688 L 16.300781 5.332031 L 16.960938 5.332031 L 16.960938 7.578125 Z M 17.417969 7.578125 " fill-opacity="1" fill-rule="nonzero"/><path fill="#000000" d="M 13.179688 24.847656 C 14.582031 24.847656 15.714844 23.695312 15.714844 22.273438 C 15.714844 20.847656 14.578125 19.695312 13.179688 19.695312 C 11.777344 19.695312 10.644531 20.847656 10.644531 22.273438 C 10.644531 23.695312 11.78125 24.847656 13.179688 24.847656 Z M 11.496094 22.425781 C 11.621094 22.292969 11.832031 22.292969 11.957031 22.425781 L 12.503906 22.976562 L 14.226562 21.222656 C 14.355469 21.09375 14.5625 21.09375 14.691406 21.222656 C 14.820312 21.355469 14.820312 21.566406 14.691406 21.695312 L 12.503906 23.921875 L 11.496094 22.894531 C 11.367188 22.765625 11.367188 22.554688 11.496094 22.425781 Z M 11.496094 22.425781 " fill-opacity="1" fill-rule="nonzero"/></svg>