<svg xmlns="http://www.w3.org/2000/svg" xmlns:xlink="http://www.w3.org/1999/xlink" width="40" zoomAndPan="magnify" viewBox="0 0 30 30.000001" height="40" preserveAspectRatio="xMidYMid meet" version="1.0"><defs><clipPath id="27cd7a8b72"><path d="M 3.386719 6.007812 L 26.613281 6.007812 L 26.613281 22.699219 L 3.386719 22.699219 Z M 3.386719 6.007812 " clip-rule="nonzero"/></clipPath></defs><g clip-path="url(#27cd7a8b72)"><path fill="#ffffff" d="M 24.988281 13.636719 L 19.976562 13.636719 C 19.667969 13.636719 19.375 13.730469 19.128906 13.882812 L 19.128906 7.671875 C 19.128906 6.773438 18.402344 6.046875 17.503906 6.046875 L 12.492188 6.046875 C 11.597656 6.046875 10.871094 6.773438 10.871094 7.671875 L 10.871094 11.234375 C 10.621094 11.082031 10.332031 10.988281 10.023438 10.988281 L 5.011719 10.988281 C 4.113281 10.988281 3.386719 11.71875 3.386719 12.613281 L 3.386719 22.601562 C 3.386719 22.816406 3.558594 22.988281 3.773438 22.988281 L 26.226562 22.988281 C 26.441406 22.988281 26.613281 22.816406 26.613281 22.601562 L 26.613281 15.261719 C 26.613281 14.367188 25.886719 13.636719 24.988281 13.636719 Z M 19.976562 14.410156 L 24.988281 14.410156 C 25.457031 14.410156 25.839844 14.792969 25.839844 15.261719 L 25.839844 20.253906 L 19.128906 20.253906 L 19.128906 15.261719 C 19.128906 14.792969 19.511719 14.410156 19.976562 14.410156 Z M 11.644531 7.671875 C 11.644531 7.203125 12.027344 6.820312 12.496094 6.820312 L 17.507812 6.820312 C 17.972656 6.820312 18.355469 7.203125 18.355469 7.671875 L 18.355469 20.253906 L 11.644531 20.253906 Z M 5.011719 11.765625 L 10.023438 11.765625 C 10.488281 11.765625 10.871094 12.144531 10.871094 12.613281 L 10.871094 20.253906 L 4.160156 20.253906 L 4.160156 12.613281 C 4.160156 12.144531 4.542969 11.765625 5.011719 11.765625 Z M 4.160156 21.027344 L 10.871094 21.027344 L 10.871094 22.214844 L 4.160156 22.214844 Z M 11.644531 21.027344 L 18.355469 21.027344 L 18.355469 22.214844 L 11.644531 22.214844 Z M 19.128906 22.214844 L 19.128906 21.027344 L 25.839844 21.027344 L 25.839844 22.214844 Z M 19.128906 22.214844 " fill-opacity="1" fill-rule="nonzero"/></g><path fill="#ffffff" d="M 14.234375 9 L 14.613281 8.808594 L 14.613281 10.417969 C 14.613281 10.628906 14.785156 10.804688 15 10.804688 C 15.214844 10.804688 15.386719 10.628906 15.386719 10.417969 L 15.386719 8.175781 C 15.386719 8.042969 15.316406 7.917969 15.203125 7.847656 C 15.085938 7.777344 14.945312 7.769531 14.824219 7.832031 L 13.886719 8.308594 C 13.695312 8.40625 13.617188 8.636719 13.714844 8.828125 C 13.8125 9.019531 14.042969 9.09375 14.234375 9 Z M 14.234375 9 " fill-opacity="1" fill-rule="nonzero"/><path fill="#ffffff" d="M 6.429688 15.832031 L 8.046875 15.832031 C 8.261719 15.832031 8.433594 15.660156 8.433594 15.445312 C 8.433594 15.230469 8.261719 15.058594 8.046875 15.058594 L 6.816406 15.058594 L 6.816406 14.691406 L 8.046875 14.691406 C 8.261719 14.691406 8.433594 14.519531 8.433594 14.304688 L 8.433594 13.121094 C 8.433594 12.910156 8.261719 12.734375 8.046875 12.734375 L 6.429688 12.734375 C 6.214844 12.734375 6.042969 12.910156 6.042969 13.121094 C 6.042969 13.335938 6.214844 13.507812 6.429688 13.507812 L 7.660156 13.507812 L 7.660156 13.917969 L 6.429688 13.917969 C 6.214844 13.917969 6.042969 14.089844 6.042969 14.304688 L 6.042969 15.445312 C 6.042969 15.660156 6.214844 15.832031 6.429688 15.832031 Z M 6.429688 15.832031 " fill-opacity="1" fill-rule="nonzero"/><path fill="#ffffff" d="M 21.996094 17.429688 C 21.78125 17.429688 21.609375 17.601562 21.609375 17.816406 C 21.609375 18.03125 21.78125 18.203125 21.996094 18.203125 L 23.390625 18.203125 C 23.605469 18.203125 23.78125 18.03125 23.78125 17.816406 L 23.78125 15.597656 C 23.78125 15.382812 23.605469 15.210938 23.390625 15.210938 L 21.996094 15.210938 C 21.78125 15.210938 21.609375 15.382812 21.609375 15.597656 C 21.609375 15.8125 21.78125 15.984375 21.996094 15.984375 L 23.003906 15.984375 L 23.003906 16.285156 L 21.996094 16.285156 C 21.78125 16.285156 21.609375 16.460938 21.609375 16.675781 C 21.609375 16.886719 21.78125 17.0625 21.996094 17.0625 L 23.003906 17.0625 L 23.003906 17.429688 Z M 21.996094 17.429688 " fill-opacity="1" fill-rule="nonzero"/></svg>