<svg xmlns="http://www.w3.org/2000/svg" xmlns:xlink="http://www.w3.org/1999/xlink" width="40" zoomAndPan="magnify" viewBox="0 0 30 30.000001" height="40" preserveAspectRatio="xMidYMid meet" version="1.0"><defs><clipPath id="d6f2691697"><path d="M 3.824219 2.902344 L 26.324219 2.902344 L 26.324219 26.128906 L 3.824219 26.128906 Z M 3.824219 2.902344 " clip-rule="nonzero"/></clipPath></defs><g clip-path="url(#d6f2691697)"><path fill="#ffffff" d="M 18.667969 8.117188 C 18.621094 8.027344 18.574219 7.941406 18.523438 7.851562 L 20.8125 5.183594 C 20.878906 5.25 20.949219 5.3125 21.027344 5.367188 Z M 9.203125 8.996094 L 6.332031 10.488281 C 6.378906 10.566406 6.425781 10.652344 6.460938 10.738281 L 9.335938 9.246094 C 9.285156 9.167969 9.242188 9.085938 9.203125 8.996094 Z M 14.898438 9.957031 L 12.152344 8.855469 C 12.125 8.945312 12.089844 9.03125 12.046875 9.117188 L 14.792969 10.21875 C 14.820312 10.128906 14.855469 10.039062 14.898438 9.957031 Z M 6.203125 17.492188 C 6.160156 17.453125 6.117188 17.410156 6.074219 17.371094 C 5.429688 16.722656 4.910156 15.984375 4.527344 15.183594 L 3.820312 15.183594 L 3.820312 21.171875 L 6.203125 21.171875 Z M 11.84375 17.378906 L 11.84375 12.886719 L 9.460938 12.886719 L 9.460938 16.933594 C 10.148438 17.226562 10.894531 17.382812 11.664062 17.382812 C 11.722656 17.382812 11.785156 17.378906 11.84375 17.378906 Z M 9.460938 19.375 L 9.460938 21.171875 L 11.84375 21.171875 L 11.84375 19.683594 C 11.785156 19.683594 11.722656 19.683594 11.664062 19.683594 C 10.910156 19.683594 10.167969 19.578125 9.460938 19.375 Z M 16.960938 13.609375 L 15.101562 13.609375 L 15.101562 16.203125 C 15.285156 16.058594 15.457031 15.90625 15.625 15.742188 C 16.234375 15.128906 16.6875 14.402344 16.960938 13.609375 Z M 15.101562 18.902344 L 15.101562 21.171875 L 17.484375 21.171875 L 17.484375 20.097656 L 15.863281 18.480469 C 15.617188 18.636719 15.363281 18.777344 15.101562 18.902344 Z M 20.742188 18.359375 L 23.125 20.742188 L 23.125 8.59375 L 20.742188 8.59375 Z M 20.585938 23.199219 L 3.820312 23.199219 L 3.820312 24.226562 L 21.609375 24.226562 Z M 6.066406 11.878906 C 6.152344 11.714844 6.203125 11.527344 6.203125 11.332031 C 6.203125 11.1875 6.175781 11.054688 6.132812 10.929688 C 6.085938 11.242188 6.0625 11.5625 6.066406 11.878906 Z M 10.652344 9.59375 C 11.308594 9.59375 11.84375 9.0625 11.84375 8.40625 C 11.84375 7.75 11.308594 7.214844 10.652344 7.214844 C 9.996094 7.214844 9.460938 7.75 9.460938 8.40625 C 9.460938 9.0625 9.996094 9.59375 10.652344 9.59375 Z M 16.292969 11.859375 C 16.683594 11.859375 17.03125 11.667969 17.25 11.375 C 17.207031 10.757812 17.0625 10.164062 16.828125 9.605469 C 16.667969 9.523438 16.484375 9.476562 16.292969 9.476562 C 15.636719 9.476562 15.101562 10.011719 15.101562 10.667969 C 15.101562 11.324219 15.636719 11.859375 16.292969 11.859375 Z M 21.933594 2.90625 C 21.277344 2.90625 20.742188 3.4375 20.742188 4.09375 C 20.742188 4.75 21.277344 5.285156 21.933594 5.285156 C 22.589844 5.285156 23.125 4.75 23.125 4.09375 C 23.125 3.4375 22.589844 2.90625 21.933594 2.90625 Z M 18.152344 16.296875 C 17.886719 16.675781 17.589844 17.035156 17.253906 17.371094 C 16.917969 17.703125 16.5625 18.003906 16.183594 18.269531 L 17.359375 19.445312 L 19.328125 17.476562 Z M 17.625 19.710938 L 23.5625 25.648438 C 23.867188 25.953125 24.277344 26.128906 24.691406 26.128906 C 25.054688 26.128906 25.390625 25.992188 25.632812 25.75 C 26.175781 25.207031 26.128906 24.277344 25.53125 23.679688 L 19.59375 17.742188 Z M 6.339844 17.105469 C 4.917969 15.683594 4.136719 13.792969 4.136719 11.78125 C 4.136719 9.769531 4.917969 7.878906 6.339844 6.457031 C 7.761719 5.035156 9.652344 4.253906 11.664062 4.253906 C 13.675781 4.253906 15.566406 5.035156 16.988281 6.457031 C 19.921875 9.394531 19.921875 14.167969 16.988281 17.105469 C 15.566406 18.527344 13.675781 19.308594 11.664062 19.308594 C 9.652344 19.308594 7.761719 18.527344 6.339844 17.105469 Z M 7.441406 16.007812 C 8.566406 17.132812 10.070312 17.757812 11.664062 17.757812 C 13.261719 17.757812 14.761719 17.132812 15.890625 16.007812 C 17.015625 14.878906 17.640625 13.378906 17.640625 11.78125 C 17.640625 10.1875 17.015625 8.683594 15.890625 7.558594 C 14.761719 6.429688 13.261719 5.808594 11.664062 5.808594 C 10.070312 5.808594 8.566406 6.429688 7.441406 7.558594 C 5.109375 9.886719 5.109375 13.675781 7.441406 16.007812 Z M 7.441406 16.007812 " fill-opacity="1" fill-rule="nonzero"/></g></svg>