<svg xmlns="http://www.w3.org/2000/svg" xmlns:xlink="http://www.w3.org/1999/xlink" width="40" zoomAndPan="magnify" viewBox="0 0 30 30.000001" height="40" preserveAspectRatio="xMidYMid meet" version="1.0"><defs><clipPath id="892ecfd439"><path d="M 11 9 L 24.640625 9 L 24.640625 23 L 11 23 Z M 11 9 " clip-rule="nonzero"/></clipPath><clipPath id="2770405a35"><path d="M 5.042969 2.902344 L 22 2.902344 L 22 26.128906 L 5.042969 26.128906 Z M 5.042969 2.902344 " clip-rule="nonzero"/></clipPath></defs><g clip-path="url(#892ecfd439)"><path fill="#ffffff" d="M 24.660156 21.367188 L 22.773438 19.480469 L 20.425781 17.136719 C 21.011719 16.328125 21.324219 15.363281 21.324219 14.351562 C 21.324219 13.078125 20.828125 11.878906 19.929688 10.980469 C 19.027344 10.078125 17.832031 9.582031 16.554688 9.582031 C 15.28125 9.582031 14.085938 10.078125 13.183594 10.980469 C 12.285156 11.878906 11.789062 13.078125 11.789062 14.351562 C 11.789062 15.621094 12.285156 16.820312 13.183594 17.722656 C 14.085938 18.621094 15.28125 19.117188 16.554688 19.117188 C 17.570312 19.117188 18.535156 18.804688 19.339844 18.21875 L 23.574219 22.453125 C 23.871094 22.75 24.355469 22.75 24.65625 22.453125 C 24.957031 22.152344 24.957031 21.664062 24.660156 21.367188 Z M 19.21875 17.015625 C 17.75 18.484375 15.363281 18.484375 13.894531 17.015625 C 12.425781 15.546875 12.425781 13.15625 13.894531 11.6875 C 15.363281 10.21875 17.75 10.21875 19.21875 11.6875 C 20.691406 13.15625 20.691406 15.546875 19.21875 17.015625 Z M 19.21875 17.015625 " fill-opacity="1" fill-rule="nonzero"/></g><path fill="#ffffff" d="M 7.132812 17.027344 L 8.621094 17.027344 L 8.621094 18.804688 L 7.132812 18.804688 Z M 7.132812 17.027344 " fill-opacity="1" fill-rule="nonzero"/><path fill="#ffffff" d="M 9.355469 15.914062 L 10.84375 15.914062 L 10.84375 18.804688 L 9.355469 18.804688 Z M 9.355469 15.914062 " fill-opacity="1" fill-rule="nonzero"/><path fill="#ffffff" d="M 16.023438 17.496094 C 16.199219 17.523438 16.375 17.539062 16.554688 17.539062 C 16.886719 17.539062 17.207031 17.488281 17.511719 17.394531 L 17.511719 13.027344 L 16.023438 13.027344 Z M 16.023438 17.496094 " fill-opacity="1" fill-rule="nonzero"/><path fill="#ffffff" d="M 13.800781 15.953125 C 13.9375 16.1875 14.105469 16.40625 14.304688 16.605469 C 14.589844 16.894531 14.925781 17.117188 15.289062 17.277344 L 15.289062 14.136719 L 13.800781 14.136719 Z M 13.800781 15.953125 " fill-opacity="1" fill-rule="nonzero"/><path fill="#ffffff" d="M 11.578125 16.300781 L 11.578125 18.804688 L 13.066406 18.804688 L 13.066406 18.398438 C 12.96875 18.3125 12.871094 18.222656 12.777344 18.128906 C 12.25 17.601562 11.84375 16.976562 11.578125 16.300781 Z M 11.578125 16.300781 " fill-opacity="1" fill-rule="nonzero"/><path fill="#ffffff" d="M 8.421875 9.660156 L 12.800781 9.660156 L 12.800781 10.21875 L 8.421875 10.21875 Z M 8.421875 9.660156 " fill-opacity="1" fill-rule="nonzero"/><path fill="#ffffff" d="M 8.421875 10.972656 L 11.578125 10.972656 L 11.578125 11.527344 L 8.421875 11.527344 Z M 8.421875 10.972656 " fill-opacity="1" fill-rule="nonzero"/><path fill="#ffffff" d="M 8.421875 12.238281 L 10.84375 12.238281 L 10.84375 12.792969 L 8.421875 12.792969 Z M 8.421875 12.238281 " fill-opacity="1" fill-rule="nonzero"/><path fill="#ffffff" d="M 8.433594 8.25 L 18.34375 8.25 L 18.34375 8.804688 L 8.433594 8.804688 Z M 8.433594 8.25 " fill-opacity="1" fill-rule="nonzero"/><g clip-path="url(#2770405a35)"><path fill="#ffffff" d="M 21.300781 21.859375 C 21.070312 21.859375 20.886719 22.042969 20.886719 22.273438 L 20.886719 25.289062 L 5.871094 25.289062 L 5.871094 3.742188 L 20.886719 3.742188 L 20.886719 10.890625 C 20.886719 11.117188 21.070312 11.304688 21.300781 11.304688 C 21.527344 11.304688 21.714844 11.117188 21.714844 10.890625 L 21.714844 3.050781 C 21.714844 2.972656 21.652344 2.914062 21.578125 2.914062 L 5.179688 2.914062 C 5.101562 2.914062 5.042969 2.972656 5.042969 3.050781 L 5.042969 25.984375 C 5.042969 26.058594 5.101562 26.121094 5.179688 26.121094 L 21.578125 26.121094 C 21.65625 26.121094 21.714844 26.058594 21.714844 25.984375 L 21.714844 22.273438 C 21.714844 22.042969 21.527344 21.859375 21.300781 21.859375 Z M 21.300781 21.859375 " fill-opacity="1" fill-rule="nonzero"/></g><path fill="#ffffff" d="M 9.945312 6.847656 L 10.152344 7.578125 L 10.640625 7.578125 L 9.875 4.929688 L 9.296875 4.929688 L 8.523438 7.578125 L 8.996094 7.578125 L 9.199219 6.847656 Z M 9.445312 5.855469 C 9.488281 5.695312 9.527344 5.488281 9.566406 5.324219 L 9.574219 5.324219 C 9.613281 5.488281 9.652344 5.6875 9.695312 5.855469 L 9.875 6.496094 L 9.269531 6.496094 Z M 9.445312 5.855469 " fill-opacity="1" fill-rule="nonzero"/><path fill="#ffffff" d="M 10.882812 4.929688 L 10.882812 6.5 C 10.882812 7.28125 11.230469 7.621094 11.804688 7.621094 C 12.386719 7.621094 12.761719 7.269531 12.761719 6.492188 L 12.761719 4.929688 L 12.300781 4.929688 L 12.300781 6.535156 C 12.300781 7.027344 12.117188 7.234375 11.816406 7.234375 C 11.539062 7.234375 11.347656 7.027344 11.347656 6.535156 L 11.347656 4.929688 Z M 10.882812 4.929688 " fill-opacity="1" fill-rule="nonzero"/><path fill="#ffffff" d="M 15.324219 6.195312 C 15.324219 5.722656 15.171875 5.398438 14.929688 5.191406 C 14.710938 5.007812 14.40625 4.910156 13.96875 4.910156 C 13.714844 4.910156 13.476562 4.933594 13.285156 4.964844 L 13.285156 7.566406 C 13.425781 7.585938 13.621094 7.601562 13.859375 7.601562 C 14.324219 7.601562 14.691406 7.488281 14.929688 7.265625 C 15.167969 7.050781 15.324219 6.699219 15.324219 6.195312 Z M 13.96875 7.230469 C 13.890625 7.230469 13.808594 7.230469 13.75 7.21875 L 13.75 5.300781 C 13.808594 5.289062 13.898438 5.277344 14.015625 5.277344 C 14.550781 5.277344 14.839844 5.617188 14.835938 6.203125 C 14.835938 6.917969 14.492188 7.234375 13.96875 7.230469 Z M 13.96875 7.230469 " fill-opacity="1" fill-rule="nonzero"/><path fill="#ffffff" d="M 15.714844 4.929688 L 16.179688 4.929688 L 16.179688 7.578125 L 15.714844 7.578125 Z M 15.714844 4.929688 " fill-opacity="1" fill-rule="nonzero"/><path fill="#ffffff" d="M 17.621094 7.578125 L 17.621094 5.332031 L 18.296875 5.332031 L 18.296875 4.929688 L 16.484375 4.929688 L 16.484375 5.332031 L 17.152344 5.332031 L 17.152344 7.578125 Z M 17.621094 7.578125 " fill-opacity="1" fill-rule="nonzero"/><path fill="#ffffff" d="M 13.3125 24.847656 C 14.734375 24.847656 15.886719 23.695312 15.886719 22.273438 C 15.886719 20.847656 14.734375 19.695312 13.3125 19.695312 C 11.886719 19.695312 10.734375 20.847656 10.734375 22.273438 C 10.734375 23.695312 11.890625 24.847656 13.3125 24.847656 Z M 11.597656 22.425781 C 11.730469 22.292969 11.941406 22.292969 12.070312 22.425781 L 12.625 22.976562 L 14.375 21.222656 C 14.507812 21.09375 14.71875 21.09375 14.847656 21.222656 C 14.976562 21.355469 14.976562 21.566406 14.847656 21.695312 L 12.625 23.921875 L 11.597656 22.894531 C 11.46875 22.765625 11.46875 22.554688 11.597656 22.425781 Z M 11.597656 22.425781 " fill-opacity="1" fill-rule="nonzero"/></svg>