<svg xmlns="http://www.w3.org/2000/svg" xmlns:xlink="http://www.w3.org/1999/xlink" width="40" zoomAndPan="magnify" viewBox="0 0 30 30.000001" height="40" preserveAspectRatio="xMidYMid meet" version="1.0"><defs><clipPath id="e1344f8ed6"><path d="M 3.386719 13 L 13 13 L 13 23 L 3.386719 23 Z M 3.386719 13 " clip-rule="nonzero"/></clipPath><clipPath id="17709043fc"><path d="M 4 3.324219 L 23 3.324219 L 23 22 L 4 22 Z M 4 3.324219 " clip-rule="nonzero"/></clipPath><clipPath id="d04b8d899d"><path d="M 19 18 L 26.613281 18 L 26.613281 25.824219 L 19 25.824219 Z M 19 18 " clip-rule="nonzero"/></clipPath></defs><path fill="#ffffff" d="M 14.363281 18.398438 C 14.269531 18.398438 14.175781 18.378906 14.085938 18.34375 C 13.902344 18.269531 13.757812 18.128906 13.679688 17.945312 L 13.429688 17.351562 C 13.410156 17.351562 13.390625 17.351562 13.371094 17.351562 L 13.261719 17.625 C 13.140625 17.929688 12.796875 18.074219 12.496094 17.949219 C 12.195312 17.828125 12.046875 17.484375 12.171875 17.183594 L 12.394531 16.628906 C 12.515625 16.332031 12.808594 16.148438 13.128906 16.167969 C 13.304688 16.179688 13.480469 16.179688 13.65625 16.164062 C 13.972656 16.140625 14.269531 16.320312 14.394531 16.613281 L 14.59375 17.085938 L 15.824219 16.566406 L 15.625 16.09375 C 15.5 15.800781 15.578125 15.460938 15.816406 15.25 C 15.949219 15.136719 16.070312 15.007812 16.183594 14.875 C 16.390625 14.632812 16.730469 14.550781 17.027344 14.671875 L 17.503906 14.863281 L 18.003906 13.628906 L 17.527344 13.433594 C 17.230469 13.316406 17.046875 13.019531 17.066406 12.699219 C 17.078125 12.527344 17.078125 12.347656 17.0625 12.175781 C 17.039062 11.855469 17.21875 11.558594 17.511719 11.433594 L 17.984375 11.234375 L 17.464844 10.007812 L 16.992188 10.207031 C 16.699219 10.332031 16.359375 10.253906 16.148438 10.011719 C 16.03125 9.882812 15.90625 9.757812 15.773438 9.644531 C 15.53125 9.4375 15.449219 9.097656 15.570312 8.804688 L 15.761719 8.328125 L 14.527344 7.828125 L 14.332031 8.300781 C 14.210938 8.597656 13.914062 8.785156 13.597656 8.761719 C 13.421875 8.753906 13.246094 8.753906 13.074219 8.765625 C 12.753906 8.792969 12.457031 8.609375 12.332031 8.316406 L 12.132812 7.84375 L 10.90625 8.363281 L 11.105469 8.835938 C 11.230469 9.128906 11.152344 9.46875 10.910156 9.683594 C 10.78125 9.796875 10.65625 9.921875 10.542969 10.054688 C 10.335938 10.296875 9.996094 10.382812 9.703125 10.261719 L 9.226562 10.070312 L 8.726562 11.304688 L 9.199219 11.496094 C 9.496094 11.617188 9.679688 11.914062 9.660156 12.230469 C 9.648438 12.40625 9.652344 12.582031 9.664062 12.757812 C 9.691406 13.074219 9.507812 13.375 9.214844 13.496094 L 8.710938 13.710938 C 8.414062 13.835938 8.066406 13.695312 7.941406 13.398438 C 7.8125 13.097656 7.953125 12.753906 8.253906 12.625 L 8.476562 12.53125 C 8.476562 12.511719 8.476562 12.492188 8.476562 12.472656 L 7.878906 12.230469 C 7.695312 12.15625 7.554688 12.015625 7.476562 11.832031 C 7.398438 11.652344 7.398438 11.449219 7.472656 11.265625 L 8.300781 9.222656 C 8.375 9.039062 8.515625 8.898438 8.699219 8.820312 C 8.878906 8.742188 9.082031 8.742188 9.265625 8.816406 L 9.863281 9.058594 C 9.875 9.042969 9.890625 9.03125 9.902344 9.015625 L 9.652344 8.421875 C 9.492188 8.046875 9.667969 7.609375 10.046875 7.449219 L 12.074219 6.59375 C 12.453125 6.433594 12.886719 6.609375 13.046875 6.984375 L 13.296875 7.578125 C 13.316406 7.578125 13.335938 7.578125 13.355469 7.578125 L 13.597656 6.980469 C 13.75 6.601562 14.183594 6.417969 14.5625 6.574219 L 16.605469 7.402344 C 16.789062 7.476562 16.933594 7.617188 17.011719 7.800781 C 17.085938 7.980469 17.089844 8.183594 17.015625 8.367188 L 16.773438 8.964844 C 16.785156 8.976562 16.800781 8.992188 16.8125 9.003906 L 17.40625 8.753906 C 17.589844 8.675781 17.792969 8.675781 17.976562 8.75 C 18.15625 8.824219 18.300781 8.964844 18.378906 9.148438 L 19.238281 11.175781 C 19.316406 11.359375 19.316406 11.5625 19.242188 11.746094 C 19.167969 11.929688 19.027344 12.070312 18.84375 12.148438 L 18.25 12.398438 C 18.25 12.417969 18.25 12.4375 18.25 12.457031 L 18.847656 12.699219 C 19.226562 12.855469 19.410156 13.289062 19.257812 13.667969 L 18.429688 15.707031 C 18.273438 16.085938 17.84375 16.269531 17.464844 16.117188 L 16.867188 15.875 C 16.851562 15.886719 16.839844 15.902344 16.824219 15.914062 L 17.074219 16.507812 C 17.234375 16.886719 17.058594 17.320312 16.679688 17.480469 L 14.652344 18.339844 C 14.558594 18.378906 14.460938 18.398438 14.363281 18.398438 Z M 14.363281 18.398438 " fill-opacity="1" fill-rule="nonzero"/><path fill="#ffffff" d="M 13.363281 15.488281 C 12.980469 15.488281 12.597656 15.414062 12.230469 15.265625 C 11.480469 14.960938 10.898438 14.386719 10.582031 13.640625 C 9.933594 12.109375 10.652344 10.332031 12.1875 9.683594 C 13.722656 9.035156 15.496094 9.757812 16.144531 11.289062 C 16.460938 12.03125 16.464844 12.851562 16.164062 13.601562 C 15.859375 14.347656 15.285156 14.933594 14.539062 15.246094 C 14.164062 15.40625 13.761719 15.488281 13.363281 15.488281 Z M 13.363281 10.621094 C 13.121094 10.621094 12.878906 10.667969 12.644531 10.769531 C 12.191406 10.960938 11.839844 11.316406 11.65625 11.773438 C 11.472656 12.230469 11.476562 12.730469 11.667969 13.183594 C 11.859375 13.636719 12.214844 13.988281 12.671875 14.171875 C 13.128906 14.359375 13.628906 14.355469 14.082031 14.164062 C 14.535156 13.972656 14.886719 13.613281 15.070312 13.160156 C 15.257812 12.703125 15.253906 12.199219 15.0625 11.746094 C 14.765625 11.046875 14.082031 10.621094 13.363281 10.621094 Z M 13.363281 10.621094 " fill-opacity="1" fill-rule="nonzero"/><path fill="#ffffff" d="M 7.847656 19.765625 C 7.085938 19.765625 6.394531 19.242188 6.210938 18.472656 C 6.105469 18.035156 6.179688 17.585938 6.414062 17.203125 C 6.648438 16.820312 7.019531 16.554688 7.457031 16.449219 C 7.894531 16.34375 8.34375 16.417969 8.726562 16.652344 C 9.109375 16.886719 9.375 17.257812 9.480469 17.695312 C 9.585938 18.132812 9.511719 18.582031 9.277344 18.964844 C 9.042969 19.347656 8.671875 19.613281 8.234375 19.71875 C 8.105469 19.75 7.972656 19.765625 7.847656 19.765625 Z M 7.847656 17.578125 C 7.808594 17.578125 7.769531 17.585938 7.730469 17.59375 C 7.597656 17.625 7.488281 17.707031 7.417969 17.820312 C 7.347656 17.933594 7.324219 18.070312 7.355469 18.199219 C 7.417969 18.46875 7.691406 18.636719 7.960938 18.574219 C 8.230469 18.511719 8.398438 18.238281 8.335938 17.96875 C 8.304688 17.835938 8.222656 17.726562 8.109375 17.65625 C 8.027344 17.605469 7.9375 17.578125 7.847656 17.578125 Z M 7.847656 17.578125 " fill-opacity="1" fill-rule="nonzero"/><g clip-path="url(#e1344f8ed6)"><path fill="#ffffff" d="M 7.890625 22.511719 C 7.746094 22.511719 7.597656 22.46875 7.46875 22.390625 C 7.285156 22.277344 7.15625 22.097656 7.105469 21.886719 L 6.960938 21.277344 C 6.917969 21.265625 6.875 21.253906 6.832031 21.238281 L 6.378906 21.671875 C 6.054688 21.976562 5.539062 21.960938 5.234375 21.636719 L 4.148438 20.488281 C 3.84375 20.164062 3.859375 19.652344 4.183594 19.34375 L 4.636719 18.914062 C 4.632812 18.894531 4.628906 18.871094 4.621094 18.851562 C 4.617188 18.828125 4.613281 18.808594 4.605469 18.785156 L 4.007812 18.605469 C 3.800781 18.542969 3.628906 18.40625 3.527344 18.214844 C 3.421875 18.023438 3.402344 17.804688 3.460938 17.597656 L 3.914062 16.085938 C 3.976562 15.878906 4.113281 15.707031 4.304688 15.605469 C 4.496094 15.503906 4.714844 15.480469 4.921875 15.542969 L 5.523438 15.722656 C 5.554688 15.691406 5.585938 15.660156 5.617188 15.628906 L 5.472656 15.019531 C 5.371094 14.585938 5.640625 14.148438 6.074219 14.042969 L 7.609375 13.679688 C 7.820312 13.628906 8.039062 13.664062 8.222656 13.777344 C 8.40625 13.890625 8.535156 14.070312 8.585938 14.28125 L 8.730469 14.890625 C 8.773438 14.902344 8.816406 14.914062 8.859375 14.929688 L 9.3125 14.496094 C 9.636719 14.191406 10.152344 14.207031 10.457031 14.53125 L 11.542969 15.679688 C 11.691406 15.835938 11.769531 16.039062 11.761719 16.257812 C 11.757812 16.472656 11.667969 16.671875 11.507812 16.820312 L 11.054688 17.253906 C 11.058594 17.273438 11.066406 17.296875 11.070312 17.316406 C 11.074219 17.339844 11.078125 17.359375 11.085938 17.382812 L 11.6875 17.5625 C 11.894531 17.625 12.0625 17.761719 12.167969 17.953125 C 12.269531 18.144531 12.292969 18.363281 12.230469 18.570312 L 11.777344 20.082031 C 11.714844 20.289062 11.578125 20.460938 11.386719 20.5625 C 11.195312 20.664062 10.976562 20.6875 10.769531 20.625 L 10.167969 20.445312 C 10.136719 20.476562 10.105469 20.507812 10.074219 20.539062 L 10.21875 21.148438 C 10.320312 21.582031 10.050781 22.019531 9.617188 22.121094 L 8.082031 22.488281 C 8.019531 22.503906 7.957031 22.511719 7.890625 22.511719 Z M 6.746094 20.007812 C 6.847656 20.007812 6.949219 20.027344 7.046875 20.066406 C 7.171875 20.117188 7.296875 20.152344 7.425781 20.179688 C 7.734375 20.242188 7.980469 20.480469 8.054688 20.785156 L 8.167969 21.257812 L 8.988281 21.0625 L 8.875 20.589844 C 8.804688 20.285156 8.917969 19.960938 9.164062 19.765625 C 9.265625 19.6875 9.363281 19.59375 9.449219 19.496094 C 9.65625 19.257812 9.988281 19.164062 10.289062 19.253906 L 10.753906 19.394531 L 10.996094 18.585938 L 10.53125 18.445312 C 10.230469 18.355469 10.007812 18.09375 9.960938 17.785156 C 9.953125 17.71875 9.941406 17.652344 9.925781 17.589844 C 9.910156 17.523438 9.890625 17.460938 9.871094 17.398438 C 9.769531 17.101562 9.851562 16.769531 10.082031 16.550781 L 10.433594 16.21875 L 9.855469 15.605469 L 9.5 15.9375 C 9.273438 16.15625 8.933594 16.21875 8.644531 16.101562 C 8.519531 16.050781 8.394531 16.011719 8.265625 15.988281 C 7.957031 15.925781 7.710938 15.6875 7.636719 15.382812 L 7.523438 14.910156 L 6.703125 15.105469 L 6.816406 15.578125 C 6.886719 15.882812 6.777344 16.207031 6.527344 16.402344 C 6.425781 16.480469 6.328125 16.574219 6.242188 16.671875 C 6.035156 16.910156 5.703125 17.003906 5.402344 16.914062 L 4.9375 16.773438 L 4.695312 17.582031 L 5.160156 17.722656 C 5.460938 17.8125 5.683594 18.070312 5.730469 18.382812 C 5.738281 18.449219 5.75 18.511719 5.765625 18.578125 C 5.78125 18.640625 5.800781 18.707031 5.820312 18.765625 C 5.921875 19.066406 5.839844 19.398438 5.609375 19.613281 L 5.257812 19.949219 L 5.835938 20.5625 L 6.191406 20.230469 C 6.34375 20.085938 6.542969 20.007812 6.746094 20.007812 Z M 5.207031 19.1875 Z M 4.800781 18.757812 C 4.800781 18.757812 4.800781 18.761719 4.800781 18.761719 Z M 9.082031 15.007812 Z M 9.082031 15.007812 " fill-opacity="1" fill-rule="nonzero"/></g><path fill="#ffffff" d="M 20.945312 20.71875 C 20.796875 20.71875 20.644531 20.664062 20.53125 20.546875 L 19.769531 19.785156 C 19.539062 19.558594 19.539062 19.183594 19.769531 18.953125 C 20 18.726562 20.371094 18.726562 20.601562 18.953125 L 21.363281 19.714844 C 21.59375 19.945312 21.59375 20.320312 21.363281 20.546875 C 21.246094 20.664062 21.097656 20.71875 20.945312 20.71875 Z M 20.945312 20.71875 " fill-opacity="1" fill-rule="nonzero"/><g clip-path="url(#17709043fc)"><path fill="#ffffff" d="M 13.152344 21.351562 C 12.847656 21.351562 12.535156 21.335938 12.234375 21.304688 C 11.910156 21.273438 11.675781 20.984375 11.707031 20.660156 C 11.738281 20.339844 12.027344 20.101562 12.351562 20.136719 C 12.617188 20.164062 12.886719 20.175781 13.152344 20.175781 C 17.476562 20.175781 20.992188 16.660156 20.992188 12.339844 C 20.992188 8.019531 17.476562 4.5 13.152344 4.5 C 8.832031 4.5 5.316406 8.019531 5.316406 12.339844 C 5.316406 12.90625 5.378906 13.472656 5.496094 14.023438 C 5.566406 14.339844 5.367188 14.652344 5.046875 14.722656 C 4.730469 14.792969 4.417969 14.589844 4.347656 14.273438 C 4.210938 13.640625 4.140625 12.992188 4.140625 12.339844 C 4.140625 7.367188 8.183594 3.324219 13.152344 3.324219 C 18.125 3.324219 22.167969 7.367188 22.167969 12.339844 C 22.167969 17.308594 18.125 21.351562 13.152344 21.351562 Z M 13.152344 21.351562 " fill-opacity="1" fill-rule="nonzero"/></g><g clip-path="url(#d04b8d899d)"><path fill="#ffffff" d="M 24.390625 25.699219 C 24.171875 25.699219 23.96875 25.613281 23.8125 25.460938 L 19.902344 21.550781 C 19.585938 21.230469 19.585938 20.714844 19.902344 20.394531 L 21.292969 19.003906 C 21.613281 18.6875 22.128906 18.6875 22.449219 19.003906 L 26.359375 22.914062 C 26.511719 23.070312 26.597656 23.273438 26.597656 23.492188 C 26.597656 23.710938 26.511719 23.914062 26.359375 24.070312 L 24.96875 25.460938 C 24.816406 25.613281 24.609375 25.699219 24.390625 25.699219 Z M 24.644531 24.628906 L 24.648438 24.628906 Z M 20.988281 20.972656 L 24.390625 24.375 L 25.273438 23.492188 L 21.871094 20.089844 Z M 20.988281 20.972656 " fill-opacity="1" fill-rule="nonzero"/></g></svg>