<svg xmlns="http://www.w3.org/2000/svg" xmlns:xlink="http://www.w3.org/1999/xlink" width="40" zoomAndPan="magnify" viewBox="0 0 30 30.000001" height="40" preserveAspectRatio="xMidYMid meet" version="1.0"><defs><clipPath id="5766fd8c05"><path d="M 0.484375 0 L 29.515625 0 L 29.515625 29.03125 L 0.484375 29.03125 Z M 0.484375 0 " clip-rule="nonzero"/></clipPath><clipPath id="2fbe9fbeb4"><path d="M 0.484375 0 L 29.515625 0 L 29.515625 29.03125 L 0.484375 29.03125 Z M 0.484375 0 " clip-rule="nonzero"/></clipPath><clipPath id="13a3e7ec50"><path d="M 2.660156 0 L 27.339844 0 C 28.542969 0 29.515625 0.976562 29.515625 2.175781 L 29.515625 26.855469 C 29.515625 28.058594 28.542969 29.03125 27.339844 29.03125 L 2.660156 29.03125 C 1.457031 29.03125 0.484375 28.058594 0.484375 26.855469 L 0.484375 2.175781 C 0.484375 0.976562 1.457031 0 2.660156 0 Z M 2.660156 0 " clip-rule="nonzero"/></clipPath><clipPath id="cec7c19729"><path d="M 0.484375 0 L 29.515625 0 L 29.515625 29.03125 L 0.484375 29.03125 Z M 0.484375 0 " clip-rule="nonzero"/></clipPath><clipPath id="77cd38f39f"><path d="M 2.660156 0 L 27.339844 0 C 28.542969 0 29.515625 0.976562 29.515625 2.175781 L 29.515625 26.855469 C 29.515625 28.058594 28.542969 29.03125 27.339844 29.03125 L 2.660156 29.03125 C 1.457031 29.03125 0.484375 28.058594 0.484375 26.855469 L 0.484375 2.175781 C 0.484375 0.976562 1.457031 0 2.660156 0 Z M 2.660156 0 " clip-rule="nonzero"/></clipPath><clipPath id="25f0492831"><rect x="0" width="30" y="0" height="30"/></clipPath><clipPath id="3cf2124b3c"><path d="M 3.386719 13 L 13 13 L 13 23 L 3.386719 23 Z M 3.386719 13 " clip-rule="nonzero"/></clipPath><clipPath id="1b1febf72d"><path d="M 4 3.324219 L 23 3.324219 L 23 22 L 4 22 Z M 4 3.324219 " clip-rule="nonzero"/></clipPath><clipPath id="cf8f26f344"><path d="M 19 18 L 26.613281 18 L 26.613281 25.824219 L 19 25.824219 Z M 19 18 " clip-rule="nonzero"/></clipPath></defs><g clip-path="url(#5766fd8c05)"><path fill="#ffffff" d="M 0.484375 0 L 29.515625 0 L 29.515625 29.03125 L 0.484375 29.03125 Z M 0.484375 0 " fill-opacity="1" fill-rule="nonzero"/><path fill="#000000" d="M 0.484375 0 L 29.515625 0 L 29.515625 29.03125 L 0.484375 29.03125 Z M 0.484375 0 " fill-opacity="1" fill-rule="nonzero"/></g><g clip-path="url(#2fbe9fbeb4)"><g clip-path="url(#13a3e7ec50)"><g transform="matrix(1, 0, 0, 1, 0, 0.000000000000005692)"><g clip-path="url(#25f0492831)"><g clip-path="url(#cec7c19729)"><g clip-path="url(#77cd38f39f)"><path fill="#93e85f" d="M 0.484375 0 L 29.515625 0 L 29.515625 29.03125 L 0.484375 29.03125 Z M 0.484375 0 " fill-opacity="1" fill-rule="nonzero"/></g></g></g></g></g></g><path fill="#000000" d="M 14.363281 18.484375 C 14.269531 18.484375 14.175781 18.464844 14.085938 18.425781 C 13.902344 18.351562 13.757812 18.210938 13.679688 18.027344 L 13.429688 17.429688 C 13.410156 17.429688 13.390625 17.429688 13.371094 17.429688 L 13.261719 17.707031 C 13.140625 18.007812 12.796875 18.15625 12.496094 18.03125 C 12.195312 17.910156 12.046875 17.566406 12.171875 17.261719 L 12.394531 16.703125 C 12.515625 16.40625 12.808594 16.21875 13.128906 16.238281 C 13.304688 16.25 13.480469 16.25 13.65625 16.234375 C 13.972656 16.210938 14.269531 16.394531 14.394531 16.6875 L 14.59375 17.164062 L 15.824219 16.640625 L 15.625 16.167969 C 15.5 15.871094 15.578125 15.527344 15.816406 15.316406 C 15.949219 15.199219 16.070312 15.074219 16.183594 14.941406 C 16.390625 14.695312 16.730469 14.613281 17.027344 14.734375 L 17.503906 14.925781 L 18.003906 13.683594 L 17.527344 13.492188 C 17.230469 13.371094 17.046875 13.074219 17.066406 12.753906 C 17.078125 12.578125 17.078125 12.398438 17.0625 12.226562 C 17.039062 11.90625 17.21875 11.605469 17.511719 11.480469 L 17.984375 11.277344 L 17.464844 10.042969 L 16.992188 10.246094 C 16.699219 10.371094 16.359375 10.292969 16.148438 10.050781 C 16.03125 9.917969 15.90625 9.796875 15.773438 9.679688 C 15.53125 9.472656 15.449219 9.132812 15.570312 8.832031 L 15.761719 8.355469 L 14.527344 7.851562 L 14.332031 8.328125 C 14.210938 8.628906 13.914062 8.816406 13.597656 8.792969 C 13.421875 8.78125 13.246094 8.785156 13.074219 8.796875 C 12.753906 8.820312 12.457031 8.640625 12.332031 8.34375 L 12.132812 7.871094 L 10.90625 8.394531 L 11.105469 8.867188 C 11.230469 9.164062 11.152344 9.503906 10.910156 9.71875 C 10.78125 9.832031 10.65625 9.960938 10.542969 10.09375 C 10.335938 10.335938 9.996094 10.421875 9.703125 10.300781 L 9.226562 10.105469 L 8.726562 11.347656 L 9.199219 11.542969 C 9.496094 11.664062 9.679688 11.960938 9.660156 12.28125 C 9.648438 12.457031 9.652344 12.632812 9.664062 12.808594 C 9.691406 13.128906 9.507812 13.429688 9.214844 13.554688 L 8.710938 13.769531 C 8.414062 13.894531 8.066406 13.753906 7.941406 13.453125 C 7.8125 13.152344 7.953125 12.804688 8.253906 12.679688 L 8.476562 12.582031 C 8.476562 12.5625 8.476562 12.542969 8.476562 12.523438 L 7.878906 12.28125 C 7.695312 12.207031 7.554688 12.0625 7.476562 11.878906 C 7.398438 11.695312 7.398438 11.496094 7.472656 11.308594 L 8.300781 9.257812 C 8.375 9.070312 8.515625 8.925781 8.699219 8.851562 C 8.878906 8.773438 9.082031 8.769531 9.265625 8.847656 L 9.863281 9.089844 C 9.875 9.074219 9.890625 9.0625 9.902344 9.046875 L 9.652344 8.449219 C 9.492188 8.070312 9.667969 7.632812 10.046875 7.472656 L 12.074219 6.609375 C 12.453125 6.449219 12.886719 6.628906 13.046875 7.007812 L 13.296875 7.601562 C 13.316406 7.601562 13.335938 7.601562 13.355469 7.601562 L 13.597656 7.003906 C 13.75 6.621094 14.183594 6.4375 14.5625 6.589844 L 16.605469 7.425781 C 16.789062 7.5 16.933594 7.640625 17.011719 7.824219 C 17.085938 8.007812 17.089844 8.210938 17.015625 8.394531 L 16.773438 8.996094 C 16.785156 9.007812 16.800781 9.023438 16.8125 9.035156 L 17.40625 8.785156 C 17.589844 8.707031 17.792969 8.707031 17.976562 8.78125 C 18.15625 8.855469 18.300781 8.996094 18.378906 9.179688 L 19.238281 11.222656 C 19.316406 11.40625 19.316406 11.605469 19.242188 11.792969 C 19.167969 11.976562 19.027344 12.121094 18.84375 12.199219 L 18.25 12.449219 C 18.25 12.46875 18.25 12.488281 18.25 12.507812 L 18.847656 12.753906 C 19.226562 12.90625 19.410156 13.34375 19.257812 13.722656 L 18.429688 15.777344 C 18.273438 16.15625 17.84375 16.34375 17.464844 16.1875 L 16.867188 15.945312 C 16.851562 15.957031 16.839844 15.972656 16.824219 15.984375 L 17.074219 16.582031 C 17.234375 16.960938 17.058594 17.398438 16.679688 17.558594 L 14.652344 18.421875 C 14.558594 18.460938 14.460938 18.484375 14.363281 18.484375 Z M 14.363281 18.484375 " fill-opacity="1" fill-rule="nonzero"/><path fill="#000000" d="M 13.363281 15.554688 C 12.980469 15.554688 12.597656 15.480469 12.230469 15.332031 C 11.480469 15.027344 10.898438 14.445312 10.582031 13.699219 C 9.933594 12.15625 10.652344 10.371094 12.1875 9.71875 C 13.722656 9.066406 15.496094 9.792969 16.144531 11.332031 C 16.460938 12.082031 16.464844 12.90625 16.164062 13.65625 C 15.859375 14.410156 15.285156 14.996094 14.539062 15.3125 C 14.164062 15.472656 13.761719 15.554688 13.363281 15.554688 Z M 13.363281 10.664062 C 13.121094 10.664062 12.878906 10.710938 12.644531 10.808594 C 12.191406 11.003906 11.839844 11.363281 11.65625 11.820312 C 11.472656 12.277344 11.476562 12.78125 11.667969 13.238281 C 11.859375 13.695312 12.214844 14.046875 12.671875 14.234375 C 13.128906 14.421875 13.628906 14.417969 14.082031 14.222656 C 14.535156 14.03125 14.886719 13.671875 15.070312 13.214844 C 15.257812 12.753906 15.253906 12.25 15.0625 11.792969 C 14.765625 11.089844 14.082031 10.664062 13.363281 10.664062 Z M 13.363281 10.664062 " fill-opacity="1" fill-rule="nonzero"/><path fill="#000000" d="M 7.847656 19.855469 C 7.085938 19.855469 6.394531 19.332031 6.210938 18.558594 C 6.105469 18.117188 6.179688 17.664062 6.414062 17.28125 C 6.648438 16.894531 7.019531 16.625 7.457031 16.523438 C 7.894531 16.417969 8.34375 16.492188 8.726562 16.726562 C 9.109375 16.964844 9.375 17.335938 9.480469 17.777344 C 9.585938 18.214844 9.511719 18.667969 9.277344 19.050781 C 9.042969 19.4375 8.671875 19.707031 8.234375 19.808594 C 8.105469 19.839844 7.972656 19.855469 7.847656 19.855469 Z M 7.847656 17.660156 C 7.808594 17.660156 7.769531 17.664062 7.730469 17.671875 C 7.597656 17.703125 7.488281 17.785156 7.417969 17.902344 C 7.347656 18.015625 7.324219 18.152344 7.355469 18.285156 C 7.417969 18.554688 7.691406 18.722656 7.960938 18.660156 C 8.230469 18.59375 8.398438 18.320312 8.335938 18.050781 C 8.304688 17.917969 8.222656 17.804688 8.109375 17.734375 C 8.027344 17.683594 7.9375 17.660156 7.847656 17.660156 Z M 7.847656 17.660156 " fill-opacity="1" fill-rule="nonzero"/><g clip-path="url(#3cf2124b3c)"><path fill="#000000" d="M 7.890625 22.617188 C 7.746094 22.617188 7.597656 22.574219 7.46875 22.496094 C 7.285156 22.382812 7.15625 22.203125 7.105469 21.992188 L 6.960938 21.378906 C 6.917969 21.367188 6.875 21.351562 6.832031 21.339844 L 6.378906 21.773438 C 6.054688 22.082031 5.539062 22.066406 5.234375 21.738281 L 4.148438 20.585938 C 3.84375 20.257812 3.859375 19.742188 4.183594 19.433594 L 4.636719 19 C 4.632812 18.980469 4.628906 18.957031 4.621094 18.9375 C 4.617188 18.914062 4.613281 18.894531 4.605469 18.871094 L 4.007812 18.691406 C 3.800781 18.628906 3.628906 18.488281 3.527344 18.296875 C 3.421875 18.105469 3.402344 17.886719 3.460938 17.679688 L 3.914062 16.15625 C 3.976562 15.949219 4.113281 15.777344 4.304688 15.671875 C 4.496094 15.570312 4.714844 15.546875 4.921875 15.609375 L 5.523438 15.789062 C 5.554688 15.757812 5.585938 15.726562 5.617188 15.699219 L 5.472656 15.085938 C 5.371094 14.648438 5.640625 14.207031 6.074219 14.105469 L 7.609375 13.738281 C 7.820312 13.6875 8.039062 13.722656 8.222656 13.835938 C 8.40625 13.949219 8.535156 14.128906 8.585938 14.339844 L 8.730469 14.953125 C 8.773438 14.964844 8.816406 14.980469 8.859375 14.992188 L 9.3125 14.558594 C 9.636719 14.25 10.152344 14.265625 10.457031 14.59375 L 11.542969 15.746094 C 11.691406 15.90625 11.769531 16.113281 11.761719 16.328125 C 11.757812 16.546875 11.667969 16.75 11.507812 16.898438 L 11.054688 17.332031 C 11.058594 17.351562 11.066406 17.375 11.070312 17.394531 C 11.074219 17.417969 11.078125 17.4375 11.085938 17.460938 L 11.6875 17.640625 C 11.894531 17.703125 12.0625 17.84375 12.167969 18.035156 C 12.269531 18.226562 12.292969 18.445312 12.230469 18.652344 L 11.777344 20.175781 C 11.714844 20.382812 11.578125 20.554688 11.386719 20.660156 C 11.195312 20.761719 10.976562 20.785156 10.769531 20.722656 L 10.167969 20.542969 C 10.136719 20.574219 10.105469 20.605469 10.074219 20.632812 L 10.21875 21.246094 C 10.320312 21.683594 10.050781 22.125 9.617188 22.226562 L 8.082031 22.59375 C 8.019531 22.609375 7.957031 22.617188 7.890625 22.617188 Z M 6.746094 20.101562 C 6.847656 20.101562 6.949219 20.121094 7.046875 20.160156 C 7.171875 20.210938 7.296875 20.246094 7.425781 20.273438 C 7.734375 20.335938 7.980469 20.574219 8.054688 20.882812 L 8.167969 21.359375 L 8.988281 21.160156 L 8.875 20.6875 C 8.804688 20.378906 8.917969 20.054688 9.164062 19.859375 C 9.265625 19.777344 9.363281 19.683594 9.449219 19.585938 C 9.65625 19.347656 9.988281 19.253906 10.289062 19.34375 L 10.753906 19.484375 L 10.996094 18.667969 L 10.53125 18.53125 C 10.230469 18.4375 10.007812 18.179688 9.960938 17.863281 C 9.953125 17.800781 9.941406 17.734375 9.925781 17.667969 C 9.910156 17.605469 9.890625 17.539062 9.871094 17.476562 C 9.769531 17.175781 9.851562 16.84375 10.082031 16.625 L 10.433594 16.289062 L 9.855469 15.671875 L 9.5 16.007812 C 9.273438 16.226562 8.933594 16.289062 8.644531 16.171875 C 8.519531 16.121094 8.394531 16.085938 8.265625 16.058594 C 7.957031 15.996094 7.710938 15.757812 7.636719 15.449219 L 7.523438 14.972656 L 6.703125 15.171875 L 6.816406 15.644531 C 6.886719 15.953125 6.777344 16.277344 6.527344 16.472656 C 6.425781 16.554688 6.328125 16.644531 6.242188 16.746094 C 6.035156 16.984375 5.703125 17.078125 5.402344 16.988281 L 4.9375 16.847656 L 4.695312 17.664062 L 5.160156 17.800781 C 5.460938 17.894531 5.683594 18.152344 5.730469 18.46875 C 5.738281 18.53125 5.75 18.597656 5.765625 18.664062 C 5.78125 18.726562 5.800781 18.792969 5.820312 18.855469 C 5.921875 19.152344 5.839844 19.488281 5.609375 19.707031 L 5.257812 20.039062 L 5.835938 20.660156 L 6.191406 20.324219 C 6.34375 20.179688 6.542969 20.101562 6.746094 20.101562 Z M 5.207031 19.277344 Z M 4.800781 18.84375 C 4.800781 18.84375 4.800781 18.847656 4.800781 18.847656 Z M 9.082031 15.074219 Z M 9.082031 15.074219 " fill-opacity="1" fill-rule="nonzero"/></g><path fill="#000000" d="M 20.945312 20.816406 C 20.796875 20.816406 20.644531 20.757812 20.53125 20.644531 L 19.769531 19.878906 C 19.539062 19.648438 19.539062 19.273438 19.769531 19.042969 C 20 18.8125 20.371094 18.8125 20.601562 19.042969 L 21.363281 19.808594 C 21.59375 20.039062 21.59375 20.414062 21.363281 20.644531 C 21.246094 20.757812 21.097656 20.816406 20.945312 20.816406 Z M 20.945312 20.816406 " fill-opacity="1" fill-rule="nonzero"/><g clip-path="url(#1b1febf72d)"><path fill="#000000" d="M 13.152344 21.453125 C 12.847656 21.453125 12.535156 21.4375 12.234375 21.40625 C 11.910156 21.375 11.675781 21.082031 11.707031 20.757812 C 11.738281 20.433594 12.027344 20.195312 12.351562 20.230469 C 12.617188 20.257812 12.886719 20.269531 13.152344 20.269531 C 17.476562 20.269531 20.992188 16.734375 20.992188 12.390625 C 20.992188 8.042969 17.476562 4.507812 13.152344 4.507812 C 8.832031 4.507812 5.316406 8.042969 5.316406 12.390625 C 5.316406 12.960938 5.378906 13.53125 5.496094 14.082031 C 5.566406 14.402344 5.367188 14.714844 5.046875 14.785156 C 4.730469 14.855469 4.417969 14.652344 4.347656 14.335938 C 4.210938 13.699219 4.140625 13.046875 4.140625 12.390625 C 4.140625 7.390625 8.183594 3.324219 13.152344 3.324219 C 18.125 3.324219 22.167969 7.390625 22.167969 12.390625 C 22.167969 17.386719 18.125 21.453125 13.152344 21.453125 Z M 13.152344 21.453125 " fill-opacity="1" fill-rule="nonzero"/></g><g clip-path="url(#cf8f26f344)"><path fill="#000000" d="M 24.390625 25.824219 C 24.171875 25.824219 23.96875 25.738281 23.8125 25.582031 L 19.902344 21.652344 C 19.585938 21.332031 19.585938 20.8125 19.902344 20.492188 L 21.292969 19.09375 C 21.613281 18.773438 22.128906 18.773438 22.449219 19.09375 L 26.359375 23.023438 C 26.511719 23.179688 26.597656 23.386719 26.597656 23.605469 C 26.597656 23.824219 26.511719 24.03125 26.359375 24.1875 L 24.96875 25.585938 C 24.816406 25.738281 24.609375 25.824219 24.390625 25.824219 Z M 24.644531 24.746094 L 24.648438 24.746094 Z M 20.988281 21.070312 L 24.390625 24.492188 L 25.273438 23.605469 L 21.871094 20.183594 Z M 20.988281 21.070312 " fill-opacity="1" fill-rule="nonzero"/></g></svg>