<svg xmlns="http://www.w3.org/2000/svg" xmlns:xlink="http://www.w3.org/1999/xlink" width="40" zoomAndPan="magnify" viewBox="0 0 30 30.000001" height="40" preserveAspectRatio="xMidYMid meet" version="1.0"><defs><clipPath id="837d0a68e0"><path d="M 6 5.269531 L 24 5.269531 L 24 23.414062 L 6 23.414062 Z M 6 5.269531 " clip-rule="nonzero"/></clipPath><clipPath id="ea33ed4c33"><path d="M 3.386719 13 L 6 13 L 6 20 L 3.386719 20 Z M 3.386719 13 " clip-rule="nonzero"/></clipPath><clipPath id="2b2f77a0eb"><path d="M 24 12 L 26.613281 12 L 26.613281 20 L 24 20 Z M 24 12 " clip-rule="nonzero"/></clipPath></defs><g clip-path="url(#837d0a68e0)"><path fill="#ffffff" d="M 19.902344 23.753906 L 10.082031 23.753906 C 7.921875 23.753906 6.164062 22 6.164062 19.851562 L 6.164062 13.484375 C 6.164062 11.324219 7.921875 9.566406 10.082031 9.566406 L 14.570312 9.566406 L 14.585938 8.070312 C 14 7.894531 13.566406 7.351562 13.566406 6.699219 C 13.566406 5.910156 14.21875 5.269531 15.007812 5.269531 C 15.796875 5.269531 16.449219 5.910156 16.449219 6.699219 C 16.449219 7.351562 16 7.90625 15.402344 8.085938 L 15.386719 9.566406 L 19.902344 9.566406 C 22.054688 9.566406 23.808594 11.324219 23.808594 13.484375 L 23.808594 19.863281 C 23.808594 22.011719 22.054688 23.753906 19.902344 23.753906 Z M 11.308594 17.578125 C 10.152344 17.578125 9.238281 16.667969 9.238281 15.527344 C 9.238281 14.371094 10.152344 13.457031 11.308594 13.457031 C 12.464844 13.457031 13.359375 14.371094 13.359375 15.527344 C 13.359375 16.667969 12.464844 17.578125 11.308594 17.578125 Z M 11.308594 14.273438 C 10.601562 14.273438 10.054688 14.816406 10.054688 15.527344 C 10.054688 16.21875 10.601562 16.761719 11.308594 16.761719 C 12 16.761719 12.558594 16.21875 12.558594 15.527344 C 12.558594 14.816406 12 14.273438 11.308594 14.273438 Z M 18.691406 17.496094 C 17.535156 17.496094 16.613281 16.574219 16.613281 15.429688 C 16.613281 14.289062 17.535156 13.363281 18.691406 13.363281 C 19.820312 13.363281 20.746094 14.289062 20.746094 15.429688 C 20.746094 16.574219 19.820312 17.496094 18.691406 17.496094 Z M 18.691406 14.179688 C 17.984375 14.179688 17.429688 14.75 17.429688 15.429688 C 17.429688 16.125 17.984375 16.695312 18.691406 16.695312 C 19.386719 16.695312 19.929688 16.125 19.929688 15.429688 C 19.929688 14.722656 19.375 14.179688 18.691406 14.179688 Z M 14.84375 19.972656 C 14.066406 19.972656 13.386719 19.605469 13.007812 19.28125 C 12.832031 19.128906 12.816406 18.859375 12.964844 18.707031 C 13.117188 18.546875 13.359375 18.519531 13.539062 18.679688 C 13.660156 18.789062 14.84375 19.726562 15.972656 18.695312 C 16.136719 18.546875 16.378906 18.546875 16.558594 18.707031 C 16.707031 18.886719 16.707031 19.128906 16.542969 19.292969 C 15.972656 19.78125 15.386719 19.972656 14.84375 19.972656 Z M 14.84375 19.972656 " fill-opacity="1" fill-rule="evenodd"/></g><g clip-path="url(#ea33ed4c33)"><path fill="#ffffff" d="M 5.347656 19.386719 L 5.1875 19.386719 C 4.207031 19.386719 3.390625 18.585938 3.390625 17.59375 L 3.390625 14.816406 C 3.390625 13.824219 4.207031 13.007812 5.1875 13.007812 L 5.375 13.007812 C 5.363281 13.160156 5.347656 13.320312 5.347656 13.484375 Z M 5.347656 19.386719 " fill-opacity="1" fill-rule="evenodd"/></g><g clip-path="url(#2b2f77a0eb)"><path fill="#ffffff" d="M 24.785156 19.386719 L 24.625 19.386719 L 24.625 13.484375 C 24.625 13.308594 24.609375 13.144531 24.597656 12.996094 L 24.785156 12.996094 C 25.792969 12.996094 26.609375 13.796875 26.609375 14.804688 L 26.609375 17.59375 C 26.609375 18.597656 25.792969 19.386719 24.785156 19.386719 Z M 24.785156 19.386719 " fill-opacity="1" fill-rule="evenodd"/></g></svg>