<svg xmlns="http://www.w3.org/2000/svg" xmlns:xlink="http://www.w3.org/1999/xlink" width="40" zoomAndPan="magnify" viewBox="0 0 30 30.000001" height="40" preserveAspectRatio="xMidYMid meet" version="1.0"><defs><clipPath id="c97592b068"><path d="M 6.953125 2.902344 L 22.921875 2.902344 L 22.921875 26.128906 L 6.953125 26.128906 Z M 6.953125 2.902344 " clip-rule="nonzero"/></clipPath></defs><path fill="#ffffff" d="M 21.335938 20.503906 C 21.164062 20.386719 20.949219 20.363281 20.757812 20.441406 C 20.753906 20.445312 19.820312 20.828125 19.816406 20.828125 C 19.816406 20.828125 16.570312 22.152344 16.570312 22.152344 C 16.335938 22.25 16.183594 22.476562 16.183594 22.726562 L 16.183594 23.667969 C 16.175781 24 16.472656 24.292969 16.804688 24.289062 C 16.882812 24.289062 16.964844 24.273438 17.039062 24.242188 C 17.894531 23.894531 20.414062 22.863281 21.226562 22.53125 C 21.460938 22.433594 21.613281 22.210938 21.613281 21.957031 L 21.613281 21.015625 C 21.613281 20.808594 21.507812 20.617188 21.335938 20.503906 Z M 16.859375 23.796875 C 16.761719 23.832031 16.667969 23.769531 16.664062 23.667969 C 16.664062 23.667969 16.664062 22.726562 16.664062 22.726562 C 16.664062 22.671875 16.699219 22.621094 16.753906 22.597656 L 19.671875 21.40625 L 19.671875 22.648438 Z M 21.128906 21.957031 C 21.128906 22.011719 21.097656 22.0625 21.042969 22.085938 L 20.152344 22.449219 L 20.152344 21.210938 L 20.9375 20.886719 C 21.035156 20.851562 21.125 20.914062 21.128906 21.015625 C 21.128906 21.015625 21.128906 21.957031 21.128906 21.957031 Z M 21.128906 21.957031 " fill-opacity="1" fill-rule="nonzero"/><path fill="#ffffff" d="M 10.515625 22.007812 L 8.71875 21.273438 C 8.421875 21.164062 8.246094 21.59375 8.535156 21.71875 C 8.535156 21.71875 10.332031 22.453125 10.332031 22.453125 C 10.363281 22.464844 10.394531 22.472656 10.421875 22.472656 C 10.679688 22.472656 10.757812 22.109375 10.515625 22.007812 Z M 10.515625 22.007812 " fill-opacity="1" fill-rule="nonzero"/><path fill="#ffffff" d="M 12.464844 22.445312 C 12.332031 22.445312 12.222656 22.550781 12.222656 22.683594 L 12.222656 23.304688 C 12.230469 23.621094 12.695312 23.621094 12.703125 23.304688 C 12.703125 23.304688 12.703125 22.683594 12.703125 22.683594 C 12.703125 22.550781 12.597656 22.445312 12.464844 22.445312 Z M 12.464844 22.445312 " fill-opacity="1" fill-rule="nonzero"/><path fill="#ffffff" d="M 11.355469 21.992188 C 11.222656 21.992188 11.113281 22.097656 11.113281 22.230469 L 11.113281 22.851562 C 11.121094 23.167969 11.585938 23.167969 11.59375 22.851562 C 11.59375 22.851562 11.59375 22.230469 11.59375 22.230469 C 11.59375 22.097656 11.488281 21.992188 11.355469 21.992188 Z M 11.355469 21.992188 " fill-opacity="1" fill-rule="nonzero"/><path fill="#ffffff" d="M 13.574219 22.898438 C 13.441406 22.898438 13.332031 23.007812 13.332031 23.140625 L 13.332031 23.757812 C 13.339844 24.074219 13.804688 24.074219 13.8125 23.757812 C 13.8125 23.757812 13.8125 23.140625 13.8125 23.140625 C 13.8125 23.007812 13.707031 22.898438 13.574219 22.898438 Z M 13.574219 22.898438 " fill-opacity="1" fill-rule="nonzero"/><path fill="#ffffff" d="M 21.335938 14.234375 C 21.164062 14.121094 20.949219 14.097656 20.757812 14.175781 C 20.753906 14.175781 19.816406 14.558594 19.816406 14.5625 C 19.816406 14.5625 16.570312 15.886719 16.570312 15.886719 C 16.335938 15.984375 16.183594 16.207031 16.183594 16.460938 L 16.183594 17.402344 C 16.175781 17.734375 16.472656 18.027344 16.804688 18.023438 C 16.882812 18.023438 16.964844 18.007812 17.039062 17.976562 C 17.894531 17.625 20.414062 16.597656 21.226562 16.265625 C 21.460938 16.167969 21.613281 15.941406 21.613281 15.691406 L 21.613281 14.75 C 21.613281 14.542969 21.507812 14.351562 21.335938 14.234375 Z M 16.859375 17.53125 C 16.761719 17.566406 16.667969 17.503906 16.664062 17.402344 C 16.664062 17.402344 16.664062 16.460938 16.664062 16.460938 C 16.664062 16.40625 16.699219 16.355469 16.753906 16.332031 L 19.671875 15.140625 L 19.671875 16.378906 Z M 21.128906 15.691406 C 21.128906 15.746094 21.097656 15.796875 21.042969 15.820312 L 20.152344 16.183594 L 20.152344 14.941406 L 20.9375 14.621094 C 21.035156 14.585938 21.125 14.648438 21.128906 14.75 C 21.128906 14.75 21.128906 15.691406 21.128906 15.691406 Z M 21.128906 15.691406 " fill-opacity="1" fill-rule="nonzero"/><path fill="#ffffff" d="M 10.515625 15.742188 L 8.71875 15.007812 C 8.421875 14.894531 8.246094 15.328125 8.535156 15.453125 C 8.535156 15.453125 10.332031 16.1875 10.332031 16.1875 C 10.363281 16.199219 10.394531 16.207031 10.421875 16.207031 C 10.679688 16.207031 10.757812 15.839844 10.515625 15.742188 Z M 10.515625 15.742188 " fill-opacity="1" fill-rule="nonzero"/><path fill="#ffffff" d="M 12.464844 16.179688 C 12.332031 16.179688 12.222656 16.285156 12.222656 16.417969 L 12.222656 17.039062 C 12.230469 17.355469 12.695312 17.355469 12.703125 17.039062 C 12.703125 17.039062 12.703125 16.417969 12.703125 16.417969 C 12.703125 16.285156 12.597656 16.179688 12.464844 16.179688 Z M 12.464844 16.179688 " fill-opacity="1" fill-rule="nonzero"/><path fill="#ffffff" d="M 11.355469 15.726562 C 11.222656 15.726562 11.113281 15.832031 11.113281 15.964844 L 11.113281 16.585938 C 11.121094 16.902344 11.585938 16.902344 11.59375 16.585938 C 11.59375 16.585938 11.59375 15.964844 11.59375 15.964844 C 11.59375 15.832031 11.488281 15.726562 11.355469 15.726562 Z M 11.355469 15.726562 " fill-opacity="1" fill-rule="nonzero"/><path fill="#ffffff" d="M 13.574219 16.632812 C 13.441406 16.632812 13.332031 16.738281 13.332031 16.871094 L 13.332031 17.492188 C 13.339844 17.808594 13.804688 17.808594 13.8125 17.492188 C 13.8125 17.492188 13.8125 16.871094 13.8125 16.871094 C 13.8125 16.738281 13.707031 16.632812 13.574219 16.632812 Z M 13.574219 16.632812 " fill-opacity="1" fill-rule="nonzero"/><g clip-path="url(#c97592b068)"><path fill="#ffffff" d="M 22.859375 10.339844 C 22.972656 10.210938 23.039062 10.046875 23.039062 9.867188 L 23.039062 6.617188 C 23.035156 6.367188 22.898438 6.125 22.683594 6 C 22.652344 5.984375 22.625 5.96875 22.59375 5.957031 L 15.378906 3.007812 C 15.132812 2.90625 14.863281 2.90625 14.621094 3.007812 L 7.40625 5.957031 C 7.285156 6.003906 7.179688 6.089844 7.101562 6.195312 C 7.011719 6.316406 6.960938 6.460938 6.960938 6.617188 L 6.960938 9.867188 C 6.960938 10.160156 7.136719 10.421875 7.40625 10.53125 L 9.472656 11.375 L 7.40625 12.222656 C 7.289062 12.269531 7.183594 12.351562 7.105469 12.457031 C 7.101562 12.460938 7.097656 12.464844 7.09375 12.472656 C 7.011719 12.589844 6.960938 12.730469 6.960938 12.882812 L 6.960938 16.136719 C 6.960938 16.425781 7.136719 16.6875 7.40625 16.796875 L 9.472656 17.644531 L 7.40625 18.488281 C 7.144531 18.597656 6.960938 18.859375 6.960938 19.152344 C 6.960938 19.152344 6.960938 22.402344 6.960938 22.402344 C 6.960938 22.695312 7.136719 22.953125 7.40625 23.0625 L 14.730469 26.058594 C 14.902344 26.128906 15.09375 26.128906 15.269531 26.058594 L 22.59375 23.0625 C 22.847656 22.957031 23.019531 22.71875 23.035156 22.441406 C 23.035156 22.429688 23.039062 22.414062 23.039062 22.402344 C 23.039062 22.402344 23.039062 19.152344 23.039062 19.148438 C 23.039062 18.863281 22.855469 18.59375 22.59375 18.488281 C 22.59375 18.488281 20.523438 17.644531 20.523438 17.644531 L 22.59375 16.796875 C 22.847656 16.695312 23.011719 16.457031 23.035156 16.1875 C 23.035156 16.171875 23.039062 16.152344 23.039062 16.136719 L 23.039062 12.882812 C 23.035156 12.730469 22.984375 12.574219 22.890625 12.453125 C 22.890625 12.449219 22.890625 12.449219 22.890625 12.449219 C 22.8125 12.351562 22.710938 12.269531 22.59375 12.222656 C 22.59375 12.222656 20.523438 11.375 20.523438 11.375 L 22.59375 10.53125 C 22.699219 10.488281 22.789062 10.421875 22.863281 10.339844 Z M 15 3.414062 C 15.066406 3.414062 15.132812 3.425781 15.195312 3.453125 L 22.410156 6.402344 C 22.496094 6.4375 22.554688 6.523438 22.554688 6.617188 C 22.554688 6.617188 22.554688 9.867188 22.554688 9.867188 C 22.554688 9.925781 22.535156 9.976562 22.5 10.015625 C 22.386719 10.148438 15.183594 13.011719 15.238281 13.015625 L 15.238281 9.648438 C 15.261719 9.640625 21.496094 7.089844 21.523438 7.078125 C 21.644531 7.03125 21.703125 6.890625 21.652344 6.765625 C 21.601562 6.644531 21.464844 6.585938 21.339844 6.632812 L 15.085938 9.191406 C 15.03125 9.214844 14.96875 9.214844 14.910156 9.191406 L 7.835938 6.296875 L 14.804688 3.453125 C 14.867188 3.425781 14.933594 3.414062 15 3.414062 Z M 7.441406 9.867188 L 7.441406 6.65625 C 7.484375 6.671875 14.71875 9.632812 14.757812 9.644531 L 14.757812 13.015625 L 10.199219 11.152344 L 7.589844 10.085938 C 7.5 10.050781 7.441406 9.964844 7.441406 9.867188 Z M 7.441406 16.136719 L 7.441406 12.921875 C 7.484375 12.9375 14.71875 15.902344 14.757812 15.910156 L 14.757812 19.28125 L 7.589844 16.351562 C 7.5 16.316406 7.441406 16.230469 7.441406 16.136719 Z M 7.589844 22.617188 C 7.5 22.582031 7.441406 22.496094 7.441406 22.402344 L 7.441406 19.148438 C 7.441406 19.101562 7.457031 19.058594 7.480469 19.019531 C 7.484375 19.019531 7.484375 19.015625 7.488281 19.015625 C 7.515625 18.980469 7.546875 18.949219 7.589844 18.933594 C 7.589844 18.933594 10.109375 17.902344 10.109375 17.902344 L 14.730469 19.789062 C 14.902344 19.863281 15.09375 19.863281 15.269531 19.789062 L 19.890625 17.902344 L 22.160156 18.832031 L 15.085938 21.722656 C 15.058594 21.734375 15.03125 21.738281 15 21.738281 C 14.972656 21.738281 14.945312 21.734375 14.917969 21.722656 L 8.71875 19.1875 C 8.59375 19.136719 8.457031 19.195312 8.40625 19.320312 C 8.355469 19.441406 8.414062 19.582031 8.535156 19.632812 C 8.574219 19.644531 14.726562 22.167969 14.757812 22.175781 L 14.757812 25.550781 Z M 22.554688 22.417969 C 22.546875 22.507812 22.492188 22.585938 22.410156 22.617188 L 15.238281 25.550781 L 15.238281 22.179688 C 15.265625 22.175781 22.527344 19.203125 22.554688 19.191406 C 22.554688 19.214844 22.5625 22.398438 22.554688 22.417969 Z M 22.410156 12.667969 C 22.441406 12.679688 22.472656 12.703125 22.492188 12.726562 C 22.503906 12.742188 22.511719 12.753906 22.523438 12.765625 C 22.542969 12.800781 22.554688 12.84375 22.554688 12.882812 C 22.554688 12.902344 22.5625 16.136719 22.554688 16.152344 C 22.546875 16.242188 22.492188 16.316406 22.410156 16.351562 L 15.238281 19.28125 L 15.238281 15.914062 C 15.257812 15.910156 21.4375 13.375 21.460938 13.371094 C 21.585938 13.320312 21.644531 13.179688 21.59375 13.058594 C 21.542969 12.933594 21.402344 12.875 21.28125 12.925781 L 15.089844 15.453125 C 15.035156 15.476562 14.96875 15.480469 14.910156 15.457031 C 14.910156 15.457031 7.835938 12.566406 7.835938 12.566406 L 10.109375 11.636719 L 14.730469 13.523438 C 14.835938 13.566406 14.953125 13.585938 15.070312 13.574219 C 15.140625 13.566406 15.207031 13.550781 15.269531 13.523438 C 15.269531 13.523438 19.890625 11.636719 19.890625 11.636719 Z M 22.410156 12.667969 " fill-opacity="1" fill-rule="nonzero"/></g><path fill="#ffffff" d="M 12.105469 6.921875 L 14.730469 7.992188 C 14.902344 8.0625 15.09375 8.0625 15.269531 7.992188 L 17.890625 6.921875 C 18.445312 6.699219 18.445312 5.898438 17.890625 5.675781 C 17.890625 5.675781 15.269531 4.605469 15.269531 4.605469 C 15.097656 4.535156 14.902344 4.535156 14.730469 4.605469 L 12.105469 5.675781 C 11.554688 5.894531 11.554688 6.699219 12.105469 6.921875 Z M 12.289062 6.121094 L 14.910156 5.050781 C 14.96875 5.027344 15.03125 5.027344 15.089844 5.050781 L 17.710938 6.121094 C 17.871094 6.191406 17.867188 6.40625 17.710938 6.476562 C 17.710938 6.476562 15.089844 7.546875 15.089844 7.546875 C 15.03125 7.570312 14.96875 7.570312 14.910156 7.546875 L 12.289062 6.476562 C 12.125 6.40625 12.132812 6.1875 12.289062 6.121094 Z M 12.289062 6.121094 " fill-opacity="1" fill-rule="nonzero"/><path fill="#ffffff" d="M 21.335938 7.96875 C 21.164062 7.855469 20.949219 7.832031 20.757812 7.910156 C 20.753906 7.910156 19.820312 8.292969 19.816406 8.292969 C 19.816406 8.292969 16.570312 9.621094 16.570312 9.621094 C 16.335938 9.71875 16.183594 9.941406 16.183594 10.195312 L 16.183594 11.132812 C 16.175781 11.46875 16.472656 11.761719 16.804688 11.753906 C 16.882812 11.753906 16.964844 11.738281 17.039062 11.710938 C 17.894531 11.359375 20.414062 10.332031 21.226562 10 C 21.460938 9.902344 21.613281 9.675781 21.613281 9.421875 L 21.613281 8.484375 C 21.613281 8.277344 21.507812 8.085938 21.335938 7.96875 Z M 16.859375 11.265625 C 16.761719 11.300781 16.667969 11.238281 16.664062 11.132812 C 16.664062 11.132812 16.664062 10.195312 16.664062 10.195312 C 16.664062 10.140625 16.699219 10.089844 16.753906 10.066406 L 19.671875 8.875 L 19.671875 10.113281 Z M 21.128906 9.421875 C 21.128906 9.480469 21.097656 9.53125 21.042969 9.554688 L 20.152344 9.917969 L 20.152344 8.675781 L 20.9375 8.355469 C 21.035156 8.320312 21.125 8.382812 21.128906 8.484375 C 21.128906 8.484375 21.128906 9.421875 21.128906 9.421875 Z M 21.128906 9.421875 " fill-opacity="1" fill-rule="nonzero"/><path fill="#ffffff" d="M 10.332031 9.921875 C 10.628906 10.035156 10.804688 9.605469 10.515625 9.476562 C 10.515625 9.476562 8.71875 8.742188 8.71875 8.742188 C 8.421875 8.628906 8.246094 9.058594 8.535156 9.1875 C 8.535156 9.1875 10.332031 9.921875 10.332031 9.921875 Z M 10.332031 9.921875 " fill-opacity="1" fill-rule="nonzero"/><path fill="#ffffff" d="M 12.464844 11.011719 C 12.597656 11.011719 12.703125 10.90625 12.703125 10.773438 L 12.703125 10.152344 C 12.695312 9.835938 12.230469 9.835938 12.222656 10.152344 C 12.222656 10.152344 12.222656 10.773438 12.222656 10.773438 C 12.222656 10.90625 12.332031 11.011719 12.464844 11.011719 Z M 12.464844 11.011719 " fill-opacity="1" fill-rule="nonzero"/><path fill="#ffffff" d="M 11.355469 10.558594 C 11.488281 10.558594 11.59375 10.449219 11.59375 10.316406 L 11.59375 9.699219 C 11.585938 9.382812 11.121094 9.382812 11.113281 9.699219 C 11.113281 9.699219 11.113281 10.316406 11.113281 10.316406 C 11.113281 10.449219 11.222656 10.558594 11.355469 10.558594 Z M 11.355469 10.558594 " fill-opacity="1" fill-rule="nonzero"/><path fill="#ffffff" d="M 13.574219 11.464844 C 13.707031 11.464844 13.8125 11.359375 13.8125 11.226562 L 13.8125 10.605469 C 13.804688 10.289062 13.339844 10.289062 13.332031 10.605469 C 13.332031 10.605469 13.332031 11.226562 13.332031 11.226562 C 13.332031 11.359375 13.441406 11.464844 13.574219 11.464844 Z M 13.574219 11.464844 " fill-opacity="1" fill-rule="nonzero"/></svg>