<svg xmlns="http://www.w3.org/2000/svg" xmlns:xlink="http://www.w3.org/1999/xlink" width="40" zoomAndPan="magnify" viewBox="0 0 30 30.000001" height="40" preserveAspectRatio="xMidYMid meet" version="1.0"><defs><clipPath id="3190fd16ee"><path d="M 3.386719 4.527344 L 26.613281 4.527344 L 26.613281 26.304688 L 3.386719 26.304688 Z M 3.386719 4.527344 " clip-rule="nonzero"/></clipPath></defs><g clip-path="url(#3190fd16ee)"><path fill="#ffffff" d="M 26.15625 12.660156 L 25.257812 11.734375 C 25.050781 11.53125 24.769531 11.402344 24.460938 11.402344 C 24.15625 11.402344 23.898438 11.53125 23.667969 11.734375 L 22.589844 12.8125 L 22.589844 6.195312 C 22.589844 5.273438 21.847656 4.527344 20.925781 4.527344 L 5.074219 4.527344 C 4.152344 4.554688 3.410156 5.296875 3.410156 6.195312 L 3.410156 24.453125 C 3.410156 25.378906 4.152344 26.121094 5.074219 26.121094 L 20.949219 26.121094 C 21.871094 26.121094 22.617188 25.378906 22.617188 24.453125 L 22.617188 17.789062 L 26.179688 14.222656 C 26.589844 13.785156 26.589844 13.09375 26.15625 12.660156 Z M 10.71875 6.582031 L 11.230469 6.582031 C 11.433594 6.582031 11.613281 6.761719 11.613281 6.964844 C 11.613281 7.171875 11.433594 7.351562 11.230469 7.351562 L 10.71875 7.351562 C 10.511719 7.351562 10.332031 7.171875 10.332031 6.964844 C 10.332031 6.761719 10.511719 6.582031 10.71875 6.582031 Z M 8.460938 6.582031 L 8.972656 6.582031 C 9.179688 6.582031 9.359375 6.761719 9.359375 6.964844 C 9.359375 7.171875 9.179688 7.351562 8.972656 7.351562 L 8.460938 7.351562 C 8.253906 7.351562 8.074219 7.171875 8.074219 6.964844 C 8.074219 6.761719 8.253906 6.582031 8.460938 6.582031 Z M 6.203125 6.582031 L 6.71875 6.582031 C 6.921875 6.582031 7.101562 6.761719 7.101562 6.964844 C 7.101562 7.171875 6.921875 7.351562 6.71875 7.351562 L 6.203125 7.351562 C 6 7.351562 5.820312 7.171875 5.820312 6.964844 C 5.820312 6.761719 6 6.582031 6.203125 6.582031 Z M 21.820312 24.453125 C 21.820312 24.941406 21.410156 25.351562 20.925781 25.351562 L 5.074219 25.351562 C 4.589844 25.328125 4.179688 24.941406 4.179688 24.453125 L 4.179688 9.402344 L 21.820312 9.402344 L 21.820312 13.582031 L 15.742188 19.660156 C 15.691406 19.710938 15.667969 19.761719 15.640625 19.8125 L 14.589844 22.8125 C 14.539062 22.941406 14.5625 23.121094 14.691406 23.222656 C 14.769531 23.300781 14.871094 23.328125 14.972656 23.328125 C 15.027344 23.328125 15.050781 23.328125 15.101562 23.300781 L 18.101562 22.25 C 18.152344 22.222656 18.207031 22.199219 18.257812 22.148438 L 21.847656 18.554688 L 21.847656 24.453125 Z M 17.976562 21.328125 L 16.5625 19.941406 L 22.746094 13.761719 L 24.15625 15.171875 Z M 17.976562 21.328125 " fill-opacity="1" fill-rule="nonzero"/></g><path fill="#ffffff" d="M 15.4375 12.171875 L 19.617188 12.171875 C 19.820312 12.171875 20 11.992188 20 11.785156 C 20 11.582031 19.820312 11.402344 19.617188 11.402344 L 15.4375 11.402344 C 15.230469 11.402344 15.050781 11.582031 15.050781 11.785156 C 15.050781 11.992188 15.207031 12.171875 15.4375 12.171875 Z M 15.4375 12.171875 " fill-opacity="1" fill-rule="nonzero"/><path fill="#ffffff" d="M 15.4375 14.964844 L 18.640625 14.964844 C 18.847656 14.964844 19.027344 14.785156 19.027344 14.582031 C 19.027344 14.375 18.847656 14.195312 18.640625 14.195312 L 15.4375 14.195312 C 15.230469 14.195312 15.050781 14.375 15.050781 14.582031 C 15.050781 14.785156 15.207031 14.964844 15.4375 14.964844 Z M 15.4375 14.964844 " fill-opacity="1" fill-rule="nonzero"/><path fill="#ffffff" d="M 6.382812 17.761719 L 14.949219 17.761719 C 15.152344 17.761719 15.332031 17.582031 15.332031 17.378906 C 15.332031 17.171875 15.152344 16.992188 14.949219 16.992188 L 6.382812 16.992188 C 6.179688 16.992188 6 17.171875 6 17.378906 C 6 17.582031 6.179688 17.761719 6.382812 17.761719 Z M 6.382812 17.761719 " fill-opacity="1" fill-rule="nonzero"/><path fill="#ffffff" d="M 12.488281 22.558594 L 6.382812 22.558594 C 6.179688 22.558594 6 22.738281 6 22.941406 C 6 23.148438 6.179688 23.328125 6.382812 23.328125 L 12.488281 23.328125 C 12.691406 23.328125 12.871094 23.148438 12.871094 22.941406 C 12.871094 22.738281 12.71875 22.558594 12.488281 22.558594 Z M 12.488281 22.558594 " fill-opacity="1" fill-rule="nonzero"/><path fill="#ffffff" d="M 13.792969 19.761719 L 6.382812 19.761719 C 6.179688 19.761719 6 19.941406 6 20.148438 C 6 20.351562 6.179688 20.53125 6.382812 20.53125 L 13.769531 20.53125 C 13.972656 20.53125 14.152344 20.351562 14.152344 20.148438 C 14.152344 19.941406 14 19.761719 13.792969 19.761719 Z M 13.792969 19.761719 " fill-opacity="1" fill-rule="nonzero"/><path fill="#ffffff" d="M 6.382812 14.964844 L 13 14.964844 C 13.203125 14.964844 13.382812 14.785156 13.382812 14.582031 L 13.382812 11.785156 C 13.382812 11.582031 13.203125 11.402344 13 11.402344 L 6.382812 11.402344 C 6.179688 11.402344 6 11.582031 6 11.785156 L 6 14.582031 C 6 14.785156 6.179688 14.964844 6.382812 14.964844 Z M 6.382812 14.964844 " fill-opacity="1" fill-rule="nonzero"/></svg>