<svg xmlns="http://www.w3.org/2000/svg" xmlns:xlink="http://www.w3.org/1999/xlink" width="40" zoomAndPan="magnify" viewBox="0 0 30 30.000001" height="40" preserveAspectRatio="xMidYMid meet" version="1.0"><defs><clipPath id="b58e79adaf"><path d="M 8 21 L 11 21 L 11 24.417969 L 8 24.417969 Z M 8 21 " clip-rule="nonzero"/></clipPath><clipPath id="cd66b68b18"><path d="M 11 21 L 15 21 L 15 24.417969 L 11 24.417969 Z M 11 21 " clip-rule="nonzero"/></clipPath><clipPath id="2ed3fe0468"><path d="M 14 21 L 18 21 L 18 24.417969 L 14 24.417969 Z M 14 21 " clip-rule="nonzero"/></clipPath><clipPath id="0ab00d73a0"><path d="M 3.386719 4.824219 L 26.613281 4.824219 L 26.613281 24 L 3.386719 24 Z M 3.386719 4.824219 " clip-rule="nonzero"/></clipPath><clipPath id="7fdd6eafc2"><path d="M 17 21 L 21 21 L 21 24.417969 L 17 24.417969 Z M 17 21 " clip-rule="nonzero"/></clipPath><clipPath id="edc5d70b15"><path d="M 20 21 L 24 21 L 24 24.417969 L 20 24.417969 Z M 20 21 " clip-rule="nonzero"/></clipPath></defs><g clip-path="url(#b58e79adaf)"><path fill="#ffffff" d="M 9.667969 21.695312 L 10.058594 22.542969 L 10.988281 22.652344 L 10.300781 23.289062 L 10.484375 24.203125 L 9.667969 23.746094 L 8.855469 24.203125 L 9.035156 23.289062 L 8.351562 22.652344 L 9.277344 22.542969 Z M 9.667969 21.695312 " fill-opacity="1" fill-rule="nonzero"/></g><g clip-path="url(#cd66b68b18)"><path fill="#ffffff" d="M 12.726562 21.695312 L 13.117188 22.542969 L 14.046875 22.652344 L 13.359375 23.289062 L 13.542969 24.203125 L 12.726562 23.746094 L 11.914062 24.203125 L 12.09375 23.289062 L 11.410156 22.652344 L 12.335938 22.542969 Z M 12.726562 21.695312 " fill-opacity="1" fill-rule="nonzero"/></g><g clip-path="url(#2ed3fe0468)"><path fill="#ffffff" d="M 15.808594 21.695312 L 16.199219 22.542969 L 17.128906 22.652344 L 16.441406 23.289062 L 16.625 24.203125 L 15.808594 23.746094 L 14.996094 24.203125 L 15.175781 23.289062 L 14.492188 22.652344 L 15.417969 22.542969 Z M 15.808594 21.695312 " fill-opacity="1" fill-rule="nonzero"/></g><g clip-path="url(#0ab00d73a0)"><path fill="#ffffff" d="M 24.066406 21.757812 L 19.320312 17.867188 C 18.777344 19.046875 17.703125 19.855469 16.460938 19.855469 L 9.917969 19.855469 L 5.597656 23.933594 L 5.597656 19.660156 C 4.320312 19.164062 3.398438 17.773438 3.398438 16.132812 L 3.398438 10.722656 C 3.398438 8.667969 4.84375 7 6.625 7 L 8.160156 7 C 8.746094 5.714844 10.042969 4.824219 11.546875 4.824219 L 22.878906 4.824219 C 24.933594 4.824219 26.597656 6.488281 26.597656 8.542969 L 26.597656 13.957031 C 26.597656 15.59375 25.539062 16.988281 24.066406 17.480469 Z M 11.546875 17.675781 C 9.492188 17.675781 7.828125 16.011719 7.828125 13.957031 L 7.828125 8.542969 C 7.828125 8.421875 7.832031 8.304688 7.84375 8.191406 L 7.203125 8.191406 C 5.75 8.191406 4.570312 9.546875 4.570312 11.222656 L 4.570312 15.632812 C 4.570312 17.136719 5.519531 18.382812 6.761719 18.621094 L 6.761719 18.894531 L 6.78125 18.894531 L 6.78125 21.191406 L 9.128906 18.894531 L 9.136719 18.894531 L 9.371094 18.664062 L 15.882812 18.664062 C 16.65625 18.664062 17.347656 18.285156 17.828125 17.675781 Z M 19.996094 16.714844 L 22.699219 19.011719 L 22.699219 16.714844 L 22.722656 16.714844 L 22.722656 16.445312 C 24.15625 16.203125 25.246094 14.957031 25.246094 13.457031 L 25.246094 9.042969 C 25.246094 7.367188 23.890625 6.011719 22.214844 6.011719 L 12.210938 6.011719 C 10.539062 6.011719 9.179688 7.367188 9.179688 9.042969 L 9.179688 13.457031 C 9.179688 15.128906 10.539062 16.488281 12.210938 16.488281 L 19.714844 16.488281 L 19.984375 16.714844 Z M 19.996094 16.714844 " fill-opacity="1" fill-rule="nonzero"/></g><g clip-path="url(#7fdd6eafc2)"><path fill="#ffffff" d="M 18.890625 21.695312 L 19.28125 22.542969 L 20.210938 22.652344 L 19.523438 23.289062 L 19.707031 24.203125 L 18.890625 23.746094 L 18.078125 24.203125 L 18.257812 23.289062 L 17.574219 22.652344 L 18.5 22.542969 Z M 18.890625 21.695312 " fill-opacity="1" fill-rule="nonzero"/></g><g clip-path="url(#edc5d70b15)"><path fill="#ffffff" d="M 21.972656 21.695312 L 22.367188 22.542969 L 23.292969 22.652344 L 22.605469 23.289062 L 22.789062 24.203125 L 21.972656 23.746094 L 21.160156 24.203125 L 21.339844 23.289062 L 20.65625 22.652344 L 21.582031 22.542969 Z M 21.972656 21.695312 " fill-opacity="1" fill-rule="nonzero"/></g><path fill="#ffffff" d="M 13.503906 10.042969 C 14.160156 10.042969 14.691406 10.574219 14.691406 11.230469 C 14.691406 11.886719 14.160156 12.417969 13.503906 12.417969 C 12.851562 12.417969 12.316406 11.886719 12.316406 11.230469 C 12.316406 10.574219 12.851562 10.042969 13.503906 10.042969 Z M 13.503906 10.042969 " fill-opacity="1" fill-rule="nonzero"/><path fill="#ffffff" d="M 17.152344 10.042969 C 17.808594 10.042969 18.339844 10.574219 18.339844 11.230469 C 18.339844 11.886719 17.808594 12.417969 17.152344 12.417969 C 16.5 12.417969 15.96875 11.886719 15.96875 11.230469 C 15.96875 10.574219 16.5 10.042969 17.152344 10.042969 Z M 17.152344 10.042969 " fill-opacity="1" fill-rule="nonzero"/><path fill="#ffffff" d="M 20.980469 10.042969 C 21.636719 10.042969 22.167969 10.574219 22.167969 11.230469 C 22.167969 11.886719 21.636719 12.417969 20.980469 12.417969 C 20.328125 12.417969 19.792969 11.886719 19.792969 11.230469 C 19.792969 10.574219 20.328125 10.042969 20.980469 10.042969 Z M 20.980469 10.042969 " fill-opacity="1" fill-rule="nonzero"/></svg>