<svg xmlns="http://www.w3.org/2000/svg" xmlns:xlink="http://www.w3.org/1999/xlink" width="40" zoomAndPan="magnify" viewBox="0 0 30 30.000001" height="40" preserveAspectRatio="xMidYMid meet" version="1.0"><defs><clipPath id="1446fd355d"><path d="M 3.386719 5.285156 L 26.613281 5.285156 L 26.613281 23.429688 L 3.386719 23.429688 Z M 3.386719 5.285156 " clip-rule="nonzero"/></clipPath></defs><g clip-path="url(#1446fd355d)"><path fill="#ffffff" d="M 5.894531 23.742188 C 5.835938 23.742188 5.78125 23.722656 5.734375 23.683594 C 5.640625 23.605469 5.617188 23.476562 5.671875 23.371094 L 8.292969 18.484375 L 4.632812 18.484375 C 3.949219 18.484375 3.398438 17.929688 3.398438 17.25 L 3.398438 6.515625 C 3.398438 5.835938 3.949219 5.28125 4.632812 5.28125 L 25.371094 5.28125 C 26.050781 5.28125 26.605469 5.835938 26.605469 6.515625 L 26.605469 17.25 C 26.605469 17.929688 26.050781 18.484375 25.371094 18.484375 L 12.578125 18.484375 L 6.054688 23.6875 C 6.007812 23.722656 5.953125 23.742188 5.894531 23.742188 Z M 4.632812 5.789062 C 4.230469 5.789062 3.902344 6.113281 3.902344 6.515625 L 3.902344 17.25 C 3.902344 17.652344 4.230469 17.976562 4.632812 17.976562 L 8.714844 17.976562 C 8.804688 17.976562 8.886719 18.023438 8.933594 18.101562 C 8.980469 18.175781 8.980469 18.273438 8.941406 18.351562 L 6.703125 22.523438 L 12.332031 18.03125 C 12.378906 17.996094 12.433594 17.976562 12.492188 17.976562 L 25.371094 17.976562 C 25.769531 17.976562 26.097656 17.652344 26.097656 17.25 L 26.097656 6.515625 C 26.097656 6.113281 25.769531 5.789062 25.371094 5.789062 Z M 4.632812 5.789062 " fill-opacity="1" fill-rule="nonzero"/></g><path fill="#ffffff" d="M 6.714844 11.472656 C 6.671875 11.472656 6.628906 11.464844 6.589844 11.441406 C 5.253906 10.683594 5.230469 10.1875 5.300781 9.144531 C 5.308594 8.996094 5.320312 8.828125 5.328125 8.644531 C 5.347656 8.152344 5.75 7.769531 6.242188 7.769531 L 6.734375 7.769531 C 7.238281 7.769531 7.648438 8.179688 7.648438 8.683594 L 7.648438 9.15625 C 7.648438 9.660156 7.238281 10.070312 6.734375 10.070312 L 6.667969 10.070312 C 6.605469 10.378906 6.808594 10.875 6.933594 11.097656 C 6.988281 11.195312 6.972656 11.320312 6.890625 11.402344 C 6.84375 11.449219 6.777344 11.472656 6.714844 11.472656 Z M 6.242188 8.273438 C 6.023438 8.273438 5.84375 8.445312 5.835938 8.664062 C 5.828125 8.855469 5.816406 9.027344 5.804688 9.175781 C 5.757812 9.878906 5.738281 10.195312 6.195312 10.578125 C 6.128906 10.28125 6.121094 9.949219 6.277344 9.6875 C 6.324219 9.609375 6.40625 9.5625 6.496094 9.5625 L 6.734375 9.5625 C 6.957031 9.5625 7.140625 9.378906 7.140625 9.15625 L 7.140625 8.679688 C 7.140625 8.457031 6.957031 8.273438 6.734375 8.273438 Z M 6.242188 8.273438 " fill-opacity="1" fill-rule="nonzero"/><path fill="#ffffff" d="M 9.625 11.472656 C 9.582031 11.472656 9.539062 11.464844 9.5 11.441406 C 8.164062 10.683594 8.140625 10.1875 8.210938 9.144531 C 8.21875 8.996094 8.230469 8.828125 8.238281 8.644531 C 8.257812 8.152344 8.660156 7.769531 9.152344 7.769531 L 9.644531 7.769531 C 10.148438 7.769531 10.558594 8.179688 10.558594 8.683594 L 10.558594 9.15625 C 10.558594 9.660156 10.148438 10.070312 9.644531 10.070312 L 9.578125 10.070312 C 9.515625 10.378906 9.71875 10.875 9.84375 11.097656 C 9.898438 11.195312 9.882812 11.320312 9.800781 11.402344 C 9.753906 11.449219 9.6875 11.472656 9.625 11.472656 Z M 9.152344 8.273438 C 8.933594 8.273438 8.753906 8.445312 8.746094 8.664062 C 8.738281 8.855469 8.726562 9.027344 8.714844 9.175781 C 8.667969 9.878906 8.648438 10.195312 9.105469 10.578125 C 9.039062 10.28125 9.03125 9.949219 9.1875 9.6875 C 9.234375 9.609375 9.316406 9.5625 9.40625 9.5625 L 9.644531 9.5625 C 9.867188 9.5625 10.050781 9.378906 10.050781 9.15625 L 10.050781 8.679688 C 10.050781 8.457031 9.867188 8.273438 9.644531 8.273438 Z M 9.152344 8.273438 " fill-opacity="1" fill-rule="nonzero"/><path fill="#ffffff" d="M 24.472656 8.71875 L 11.488281 8.71875 C 11.347656 8.71875 11.234375 8.605469 11.234375 8.464844 C 11.234375 8.328125 11.347656 8.214844 11.488281 8.214844 L 24.472656 8.214844 C 24.613281 8.214844 24.726562 8.328125 24.726562 8.464844 C 24.726562 8.605469 24.613281 8.71875 24.472656 8.71875 Z M 24.472656 8.71875 " fill-opacity="1" fill-rule="nonzero"/><path fill="#ffffff" d="M 24.472656 9.875 L 11.488281 9.875 C 11.347656 9.875 11.234375 9.761719 11.234375 9.621094 C 11.234375 9.480469 11.347656 9.367188 11.488281 9.367188 L 24.472656 9.367188 C 24.613281 9.367188 24.726562 9.480469 24.726562 9.621094 C 24.726562 9.761719 24.613281 9.875 24.472656 9.875 Z M 24.472656 9.875 " fill-opacity="1" fill-rule="nonzero"/><path fill="#ffffff" d="M 24.472656 11.027344 L 11.488281 11.027344 C 11.347656 11.027344 11.234375 10.914062 11.234375 10.773438 C 11.234375 10.636719 11.347656 10.519531 11.488281 10.519531 L 24.472656 10.519531 C 24.613281 10.519531 24.726562 10.636719 24.726562 10.773438 C 24.726562 10.914062 24.613281 11.027344 24.472656 11.027344 Z M 24.472656 11.027344 " fill-opacity="1" fill-rule="nonzero"/><path fill="#ffffff" d="M 23.289062 16 C 23.222656 16 23.15625 15.972656 23.109375 15.925781 C 23.027344 15.84375 23.011719 15.71875 23.066406 15.621094 C 23.167969 15.441406 23.402344 14.921875 23.335938 14.59375 L 23.269531 14.59375 C 22.765625 14.59375 22.355469 14.183594 22.355469 13.679688 L 22.355469 13.207031 C 22.355469 12.703125 22.765625 12.292969 23.269531 12.292969 L 23.757812 12.292969 C 24.25 12.292969 24.652344 12.675781 24.671875 13.167969 C 24.679688 13.351562 24.691406 13.519531 24.699219 13.667969 C 24.773438 14.710938 24.746094 15.207031 23.414062 15.964844 C 23.375 15.988281 23.332031 16 23.289062 16 Z M 23.269531 12.796875 C 23.042969 12.796875 22.859375 12.980469 22.859375 13.207031 L 22.859375 13.679688 C 22.859375 13.90625 23.042969 14.089844 23.269531 14.089844 L 23.507812 14.089844 C 23.59375 14.089844 23.675781 14.136719 23.722656 14.210938 C 23.882812 14.476562 23.871094 14.804688 23.804688 15.101562 C 24.265625 14.722656 24.242188 14.40625 24.195312 13.703125 C 24.1875 13.550781 24.171875 13.378906 24.167969 13.191406 C 24.15625 12.972656 23.980469 12.800781 23.757812 12.800781 L 23.269531 12.800781 Z M 23.269531 12.796875 " fill-opacity="1" fill-rule="nonzero"/><path fill="#ffffff" d="M 20.378906 16 C 20.3125 16 20.246094 15.972656 20.199219 15.925781 C 20.117188 15.84375 20.101562 15.71875 20.15625 15.621094 C 20.257812 15.441406 20.492188 14.921875 20.421875 14.59375 L 20.359375 14.59375 C 19.855469 14.59375 19.445312 14.183594 19.445312 13.679688 L 19.445312 13.207031 C 19.445312 12.703125 19.855469 12.292969 20.359375 12.292969 L 20.847656 12.292969 C 21.339844 12.292969 21.742188 12.675781 21.761719 13.167969 C 21.769531 13.351562 21.78125 13.519531 21.789062 13.667969 C 21.859375 14.710938 21.835938 15.207031 20.5 15.964844 C 20.464844 15.988281 20.421875 16 20.378906 16 Z M 20.359375 12.796875 C 20.132812 12.796875 19.949219 12.980469 19.949219 13.207031 L 19.949219 13.679688 C 19.949219 13.90625 20.132812 14.089844 20.359375 14.089844 L 20.59375 14.089844 C 20.683594 14.089844 20.765625 14.136719 20.8125 14.210938 C 20.972656 14.476562 20.960938 14.804688 20.894531 15.101562 C 21.355469 14.722656 21.332031 14.40625 21.285156 13.703125 C 21.273438 13.550781 21.261719 13.378906 21.253906 13.191406 C 21.246094 12.972656 21.066406 12.800781 20.847656 12.800781 L 20.359375 12.800781 Z M 20.359375 12.796875 " fill-opacity="1" fill-rule="nonzero"/><path fill="#ffffff" d="M 18.511719 13.246094 L 5.527344 13.246094 C 5.386719 13.246094 5.273438 13.128906 5.273438 12.992188 C 5.273438 12.851562 5.386719 12.738281 5.527344 12.738281 L 18.511719 12.738281 C 18.652344 12.738281 18.765625 12.851562 18.765625 12.992188 C 18.765625 13.128906 18.652344 13.246094 18.511719 13.246094 Z M 18.511719 13.246094 " fill-opacity="1" fill-rule="nonzero"/><path fill="#ffffff" d="M 18.511719 14.398438 L 5.527344 14.398438 C 5.386719 14.398438 5.273438 14.285156 5.273438 14.144531 C 5.273438 14.003906 5.386719 13.890625 5.527344 13.890625 L 18.511719 13.890625 C 18.652344 13.890625 18.765625 14.003906 18.765625 14.144531 C 18.765625 14.285156 18.652344 14.398438 18.511719 14.398438 Z M 18.511719 14.398438 " fill-opacity="1" fill-rule="nonzero"/><path fill="#ffffff" d="M 18.511719 15.554688 L 5.527344 15.554688 C 5.386719 15.554688 5.273438 15.4375 5.273438 15.300781 C 5.273438 15.160156 5.386719 15.046875 5.527344 15.046875 L 18.511719 15.046875 C 18.652344 15.046875 18.765625 15.160156 18.765625 15.300781 C 18.765625 15.4375 18.652344 15.554688 18.511719 15.554688 Z M 18.511719 15.554688 " fill-opacity="1" fill-rule="nonzero"/></svg>