<svg xmlns="http://www.w3.org/2000/svg" xmlns:xlink="http://www.w3.org/1999/xlink" width="40" zoomAndPan="magnify" viewBox="0 0 30 30.000001" height="40" preserveAspectRatio="xMidYMid meet" version="1.0"><defs><clipPath id="5aaf684fcc"><path d="M 3.808594 13 L 17 13 L 17 26.128906 L 3.808594 26.128906 Z M 3.808594 13 " clip-rule="nonzero"/></clipPath><clipPath id="833dc77c21"><path d="M 16 13 L 26.308594 13 L 26.308594 25 L 16 25 Z M 16 13 " clip-rule="nonzero"/></clipPath></defs><g clip-path="url(#5aaf684fcc)"><path fill="#ffffff" d="M 7 26.113281 C 6.585938 26.113281 6.183594 26.035156 5.800781 25.882812 C 5.402344 25.722656 5.050781 25.488281 4.746094 25.183594 C 4.441406 24.882812 4.203125 24.527344 4.042969 24.128906 C 3.890625 23.746094 3.8125 23.34375 3.808594 22.925781 C 3.808594 22.507812 3.886719 22.097656 4.042969 21.710938 C 4.207031 21.308594 4.445312 20.949219 4.75 20.644531 L 11.253906 14.136719 C 11.398438 13.992188 11.589844 13.914062 11.792969 13.914062 C 11.996094 13.914062 12.1875 13.992188 12.332031 14.136719 C 12.695312 14.503906 13.289062 14.503906 13.652344 14.136719 L 14.050781 13.738281 L 14.84375 14.535156 L 14.449219 14.933594 C 14.058594 15.324219 13.542969 15.535156 12.992188 15.535156 C 12.566406 15.535156 12.15625 15.40625 11.816406 15.167969 L 5.546875 21.4375 C 5.152344 21.832031 4.933594 22.359375 4.9375 22.925781 C 4.9375 23.480469 5.148438 24 5.539062 24.386719 C 5.929688 24.773438 6.449219 24.988281 7 24.988281 C 7.550781 24.988281 8.074219 24.773438 8.464844 24.382812 L 14.746094 18.097656 C 14.507812 17.757812 14.378906 17.351562 14.378906 16.925781 C 14.378906 16.375 14.59375 15.855469 14.980469 15.46875 L 15.378906 15.070312 L 16.175781 15.867188 L 15.777344 16.261719 C 15.414062 16.628906 15.414062 17.21875 15.777344 17.585938 C 16.074219 17.882812 16.074219 18.363281 15.777344 18.660156 L 9.257812 25.175781 C 8.953125 25.480469 8.597656 25.71875 8.203125 25.878906 C 7.816406 26.035156 7.414062 26.113281 7 26.113281 Z M 7 26.113281 " fill-opacity="1" fill-rule="nonzero"/></g><path fill="#ffffff" d="M 12.777344 16.457031 L 13.574219 15.660156 L 15.777344 17.863281 L 14.980469 18.660156 Z M 12.777344 16.457031 " fill-opacity="1" fill-rule="nonzero"/><path fill="#ffffff" d="M 4.789062 21.316406 L 5.585938 20.519531 L 9.394531 24.328125 L 8.597656 25.125 Z M 4.789062 21.316406 " fill-opacity="1" fill-rule="nonzero"/><path fill="#ffffff" d="M 13.054688 13.769531 L 13.851562 12.972656 L 16.898438 16.019531 L 16.101562 16.816406 Z M 13.054688 13.769531 " fill-opacity="1" fill-rule="nonzero"/><path fill="#ffffff" d="M 7.457031 20.4375 L 11.132812 16.765625 L 11.925781 17.558594 L 8.253906 21.234375 Z M 7.457031 20.4375 " fill-opacity="1" fill-rule="nonzero"/><path fill="#ffffff" d="M 8.742188 21.722656 L 12.417969 18.050781 L 13.210938 18.84375 L 9.539062 22.519531 Z M 8.742188 21.722656 " fill-opacity="1" fill-rule="nonzero"/><path fill="#ffffff" d="M 22.480469 9.851562 C 22.292969 9.851562 22.109375 9.777344 21.976562 9.644531 L 20.269531 7.9375 C 20.128906 7.796875 20.050781 7.597656 20.0625 7.394531 C 20.074219 7.195312 20.171875 7.003906 20.332031 6.878906 L 22.5625 5.105469 C 22.84375 4.878906 23.25 4.902344 23.507812 5.160156 L 24.757812 6.410156 C 25.011719 6.664062 25.035156 7.070312 24.808594 7.355469 L 23.035156 9.585938 C 22.910156 9.742188 22.722656 9.839844 22.519531 9.851562 C 22.507812 9.851562 22.492188 9.851562 22.480469 9.851562 Z M 21.394531 7.472656 L 22.445312 8.519531 L 23.699219 6.941406 L 22.972656 6.214844 Z M 21.394531 7.472656 " fill-opacity="1" fill-rule="nonzero"/><path fill="#ffffff" d="M 15.375 13.742188 L 21.125 7.996094 L 21.917969 8.792969 L 16.171875 14.539062 Z M 15.375 13.742188 " fill-opacity="1" fill-rule="nonzero"/><path fill="#ffffff" d="M 22.496094 22.851562 L 20.199219 22.234375 L 19.585938 19.941406 L 21.265625 18.261719 L 23.558594 18.875 L 24.175781 21.171875 Z M 21.117188 21.316406 L 22.15625 21.597656 L 22.917969 20.835938 L 22.640625 19.792969 L 21.601562 19.515625 L 20.839844 20.277344 Z M 21.117188 21.316406 " fill-opacity="1" fill-rule="nonzero"/><path fill="#ffffff" d="M 9.328125 11.269531 L 10.125 10.472656 L 12.347656 12.695312 L 11.550781 13.492188 Z M 9.328125 11.269531 " fill-opacity="1" fill-rule="nonzero"/><g clip-path="url(#833dc77c21)"><path fill="#ffffff" d="M 21.945312 24.859375 C 20.859375 24.859375 19.773438 24.445312 18.945312 23.613281 C 17.925781 22.59375 17.503906 21.136719 17.800781 19.742188 L 16.394531 18.335938 L 17.191406 17.539062 L 19.058594 19.410156 L 18.964844 19.730469 C 18.636719 20.828125 18.933594 22.011719 19.742188 22.820312 C 20.953125 24.035156 22.925781 24.039062 24.144531 22.828125 C 24.734375 22.238281 25.058594 21.457031 25.058594 20.625 C 25.058594 19.792969 24.734375 19.011719 24.148438 18.421875 C 23.335938 17.613281 22.152344 17.3125 21.054688 17.640625 L 20.730469 17.738281 L 17.332031 14.335938 L 18.128906 13.542969 L 21.066406 16.476562 C 22.460938 16.179688 23.921875 16.605469 24.941406 17.625 C 25.347656 18.03125 25.660156 18.503906 25.875 19.03125 C 26.082031 19.539062 26.183594 20.074219 26.183594 20.625 C 26.183594 21.175781 26.078125 21.714844 25.871094 22.222656 C 25.65625 22.75 25.34375 23.222656 24.9375 23.625 C 24.113281 24.449219 23.027344 24.859375 21.945312 24.859375 Z M 21.945312 24.859375 " fill-opacity="1" fill-rule="nonzero"/></g><path fill="#ffffff" d="M 14.988281 11.992188 L 11.449219 8.453125 L 11.542969 8.128906 C 11.871094 7.03125 11.570312 5.847656 10.761719 5.035156 C 10.066406 4.34375 9.113281 4.027344 8.171875 4.148438 L 9.492188 5.46875 C 9.851562 5.828125 10.050781 6.304688 10.050781 6.816406 C 10.050781 7.324219 9.851562 7.800781 9.492188 8.160156 C 9.132812 8.523438 8.652344 8.71875 8.144531 8.71875 C 7.636719 8.71875 7.160156 8.523438 6.796875 8.160156 L 5.472656 6.835938 C 5.347656 7.78125 5.664062 8.742188 6.359375 9.4375 C 7.140625 10.21875 8.273438 10.527344 9.339844 10.25 L 10.511719 9.226562 L 11.253906 10.074219 L 9.894531 11.261719 L 9.777344 11.296875 C 8.28125 11.746094 6.667969 11.335938 5.566406 10.234375 C 4.957031 9.625 4.550781 8.859375 4.394531 8.019531 C 4.242188 7.195312 4.332031 6.355469 4.65625 5.589844 C 4.734375 5.40625 4.894531 5.273438 5.089844 5.234375 C 5.285156 5.195312 5.488281 5.257812 5.628906 5.398438 L 7.59375 7.367188 C 7.742188 7.511719 7.9375 7.59375 8.144531 7.59375 C 8.355469 7.59375 8.550781 7.511719 8.695312 7.367188 C 8.84375 7.21875 8.925781 7.023438 8.925781 6.816406 C 8.925781 6.605469 8.84375 6.410156 8.695312 6.261719 L 6.730469 4.300781 C 6.589844 4.160156 6.53125 3.957031 6.570312 3.761719 C 6.609375 3.566406 6.738281 3.40625 6.921875 3.328125 C 7.691406 3.007812 8.527344 2.917969 9.347656 3.074219 C 10.1875 3.230469 10.953125 3.632812 11.558594 4.242188 C 12.578125 5.261719 13.003906 6.722656 12.707031 8.121094 L 15.785156 11.195312 Z M 14.988281 11.992188 " fill-opacity="1" fill-rule="nonzero"/></svg>