<svg xmlns="http://www.w3.org/2000/svg" xmlns:xlink="http://www.w3.org/1999/xlink" width="40" zoomAndPan="magnify" viewBox="0 0 30 30.000001" height="40" preserveAspectRatio="xMidYMid meet" version="1.0"><defs><clipPath id="5ef0d0f482"><path d="M 4.675781 2.902344 L 24.996094 2.902344 L 24.996094 26.128906 L 4.675781 26.128906 Z M 4.675781 2.902344 " clip-rule="nonzero"/></clipPath></defs><g clip-path="url(#5ef0d0f482)"><path fill="#ffffff" d="M 25.253906 15.863281 L 25.253906 6.019531 C 25.253906 5.78125 25.136719 5.5625 24.945312 5.425781 C 21.636719 3.105469 18.324219 2.894531 15 2.898438 C 11.691406 2.902344 8.382812 3.113281 5.058594 5.425781 C 4.863281 5.558594 4.746094 5.78125 4.746094 6.019531 C 4.746094 6.019531 4.746094 10.96875 4.746094 15.863281 C 4.746094 21.527344 9.335938 26.117188 15 26.117188 L 15 25.394531 C 15 26.117188 15 26.117188 15 26.117188 C 20.660156 26.117188 25.253906 21.527344 25.253906 15.863281 Z M 23.804688 6.402344 C 20.878906 4.476562 17.941406 4.339844 15 4.34375 C 12.074219 4.347656 9.136719 4.484375 6.195312 6.402344 L 6.195312 15.863281 C 6.195312 20.726562 10.136719 24.671875 15 24.671875 C 15 24.671875 15 25.394531 15 25.394531 L 15 24.671875 C 19.863281 24.671875 23.804688 20.726562 23.804688 15.863281 Z M 23.804688 6.402344 " fill-opacity="1" fill-rule="evenodd"/></g><path fill="#ffffff" d="M 19.535156 13.976562 C 19.535156 13.574219 19.210938 13.25 18.8125 13.25 L 11.1875 13.25 C 10.789062 13.25 10.464844 13.574219 10.464844 13.976562 L 10.464844 19.296875 C 10.464844 19.699219 10.789062 20.023438 11.1875 20.023438 L 18.8125 20.023438 C 19.210938 20.023438 19.535156 19.699219 19.535156 19.296875 Z M 19.535156 13.976562 " fill-opacity="1" fill-rule="evenodd"/><path fill="#ffffff" d="M 18.582031 12.574219 C 18.582031 11.625 18.203125 10.714844 17.53125 10.042969 C 16.859375 9.371094 15.949219 8.992188 15 8.992188 L 15 9.714844 C 15 8.992188 15 8.992188 15 8.992188 C 14.050781 8.992188 13.136719 9.371094 12.464844 10.042969 C 11.792969 10.714844 11.417969 11.625 11.417969 12.574219 C 11.417969 13.347656 11.417969 13.976562 11.417969 13.976562 C 11.417969 14.375 11.742188 14.699219 12.140625 14.699219 L 17.859375 14.699219 C 18.257812 14.699219 18.582031 14.375 18.582031 13.976562 Z M 17.132812 13.25 L 17.132812 12.574219 C 17.132812 12.007812 16.910156 11.464844 16.507812 11.066406 C 16.109375 10.664062 15.566406 10.441406 15 10.441406 L 15 9.714844 L 15 10.441406 C 14.433594 10.441406 13.890625 10.664062 13.488281 11.066406 C 13.089844 11.464844 12.863281 12.007812 12.863281 12.574219 L 12.863281 13.25 Z M 17.132812 13.25 " fill-opacity="1" fill-rule="evenodd"/></svg>