<svg xmlns="http://www.w3.org/2000/svg" xmlns:xlink="http://www.w3.org/1999/xlink" width="40" zoomAndPan="magnify" viewBox="0 0 30 30.000001" height="40" preserveAspectRatio="xMidYMid meet" version="1.0"><defs><clipPath id="08068278d8"><path d="M 0.484375 0 L 29.515625 0 L 29.515625 29.03125 L 0.484375 29.03125 Z M 0.484375 0 " clip-rule="nonzero"/></clipPath><clipPath id="9b0f271a4d"><path d="M 0.484375 0 L 29.515625 0 L 29.515625 29.03125 L 0.484375 29.03125 Z M 0.484375 0 " clip-rule="nonzero"/></clipPath><clipPath id="37c58d8204"><path d="M 2.660156 0 L 27.339844 0 C 28.542969 0 29.515625 0.976562 29.515625 2.175781 L 29.515625 26.855469 C 29.515625 28.058594 28.542969 29.03125 27.339844 29.03125 L 2.660156 29.03125 C 1.457031 29.03125 0.484375 28.058594 0.484375 26.855469 L 0.484375 2.175781 C 0.484375 0.976562 1.457031 0 2.660156 0 Z M 2.660156 0 " clip-rule="nonzero"/></clipPath><clipPath id="7e1aec6110"><path d="M 0.484375 0 L 29.515625 0 L 29.515625 29.03125 L 0.484375 29.03125 Z M 0.484375 0 " clip-rule="nonzero"/></clipPath><clipPath id="d133aabc00"><path d="M 2.660156 0 L 27.339844 0 C 28.542969 0 29.515625 0.976562 29.515625 2.175781 L 29.515625 26.855469 C 29.515625 28.058594 28.542969 29.03125 27.339844 29.03125 L 2.660156 29.03125 C 1.457031 29.03125 0.484375 28.058594 0.484375 26.855469 L 0.484375 2.175781 C 0.484375 0.976562 1.457031 0 2.660156 0 Z M 2.660156 0 " clip-rule="nonzero"/></clipPath><clipPath id="277d53bcd0"><rect x="0" width="30" y="0" height="30"/></clipPath><clipPath id="7d3d737031"><path d="M 5 8 L 25 8 L 25 26.128906 L 5 26.128906 Z M 5 8 " clip-rule="nonzero"/></clipPath><clipPath id="ebb26edb2d"><path d="M 4.082031 2.902344 L 25.859375 2.902344 L 25.859375 18 L 4.082031 18 Z M 4.082031 2.902344 " clip-rule="nonzero"/></clipPath><clipPath id="aedb595b2e"><path d="M 12 14 L 18 14 L 18 26.128906 L 12 26.128906 Z M 12 14 " clip-rule="nonzero"/></clipPath></defs><g clip-path="url(#08068278d8)"><path fill="#ffffff" d="M 0.484375 0 L 29.515625 0 L 29.515625 29.03125 L 0.484375 29.03125 Z M 0.484375 0 " fill-opacity="1" fill-rule="nonzero"/><path fill="#000000" d="M 0.484375 0 L 29.515625 0 L 29.515625 29.03125 L 0.484375 29.03125 Z M 0.484375 0 " fill-opacity="1" fill-rule="nonzero"/></g><g clip-path="url(#9b0f271a4d)"><g clip-path="url(#37c58d8204)"><g transform="matrix(1, 0, 0, 1, 0, 0.000000000000005692)"><g clip-path="url(#277d53bcd0)"><g clip-path="url(#7e1aec6110)"><g clip-path="url(#d133aabc00)"><path fill="#93e85f" d="M 0.484375 0 L 29.515625 0 L 29.515625 29.03125 L 0.484375 29.03125 Z M 0.484375 0 " fill-opacity="1" fill-rule="nonzero"/></g></g></g></g></g></g><g clip-path="url(#7d3d737031)"><path fill="#000000" d="M 23.742188 8.4375 L 19.117188 12.839844 C 18.949219 13.007812 18.863281 13.148438 18.863281 13.488281 L 18.863281 25.785156 C 18.863281 25.925781 18.976562 26.039062 19.117188 26.039062 L 23.882812 26.039062 C 24.023438 26.039062 24.136719 25.925781 24.136719 25.785156 L 24.136719 8.550781 C 24.167969 8.382812 24.054688 8.128906 23.742188 8.4375 M 10.457031 14.136719 L 5.832031 18.535156 C 5.664062 18.703125 5.578125 18.84375 5.578125 19.183594 L 5.578125 25.757812 C 5.578125 25.898438 5.691406 26.011719 5.832031 26.011719 L 10.597656 26.011719 C 10.742188 26.011719 10.851562 25.898438 10.851562 25.757812 L 10.851562 14.25 C 10.882812 14.105469 10.769531 13.851562 10.457031 14.136719 " fill-opacity="1" fill-rule="nonzero"/></g><g clip-path="url(#ebb26edb2d)"><path fill="#000000" d="M 25.859375 3.105469 C 25.859375 3.078125 25.859375 3.023438 25.832031 2.996094 C 25.800781 2.964844 25.773438 2.964844 25.746094 2.964844 L 25.6875 2.964844 L 22.164062 3.753906 L 22.105469 3.753906 C 22.078125 3.753906 22.050781 3.785156 22.050781 3.785156 C 21.996094 3.839844 21.996094 3.925781 22.050781 3.980469 L 22.898438 4.828125 L 14.886719 12.839844 L 11.191406 9.144531 C 11.164062 9.113281 11.078125 9.113281 11.050781 9.144531 L 4.113281 16.082031 C 4.082031 16.109375 4.082031 16.195312 4.113281 16.222656 L 5.128906 17.238281 C 5.15625 17.265625 5.242188 17.265625 5.269531 17.238281 L 11.136719 11.398438 L 14.832031 15.09375 C 14.859375 15.121094 14.941406 15.121094 14.972656 15.09375 L 24.054688 6.011719 L 24.898438 6.859375 C 24.957031 6.914062 25.039062 6.914062 25.097656 6.859375 C 25.125 6.832031 25.125 6.800781 25.125 6.773438 L 25.914062 3.164062 Z M 25.859375 3.105469 " fill-opacity="1" fill-rule="nonzero"/></g><g clip-path="url(#aedb595b2e)"><path fill="#000000" d="M 17.144531 14.925781 L 14.914062 17.179688 C 14.859375 17.210938 14.800781 17.210938 14.773438 17.179688 L 12.742188 15.121094 C 12.375 14.757812 12.292969 15.066406 12.292969 15.207031 L 12.292969 25.8125 C 12.292969 25.953125 12.40625 26.066406 12.546875 26.066406 L 17.3125 26.066406 C 17.453125 26.066406 17.566406 25.953125 17.566406 25.8125 L 17.566406 15.039062 C 17.566406 14.839844 17.453125 14.585938 17.144531 14.925781 " fill-opacity="1" fill-rule="nonzero"/></g></svg>