<svg xmlns="http://www.w3.org/2000/svg" xmlns:xlink="http://www.w3.org/1999/xlink" width="40" zoomAndPan="magnify" viewBox="0 0 30 30.000001" height="40" preserveAspectRatio="xMidYMid meet" version="1.0"><defs><clipPath id="c7b47d0935"><path d="M 0.484375 0 L 29.515625 0 L 29.515625 29.03125 L 0.484375 29.03125 Z M 0.484375 0 " clip-rule="nonzero"/></clipPath><clipPath id="55e098db9a"><path d="M 1.933594 0 L 28.066406 0 C 28.867188 0 29.515625 0.648438 29.515625 1.453125 L 29.515625 27.582031 C 29.515625 28.382812 28.867188 29.03125 28.066406 29.03125 L 1.933594 29.03125 C 1.132812 29.03125 0.484375 28.382812 0.484375 27.582031 L 0.484375 1.453125 C 0.484375 0.648438 1.132812 0 1.933594 0 Z M 1.933594 0 " clip-rule="nonzero"/></clipPath><clipPath id="b2a9043643"><path d="M 0.484375 0 L 29.515625 0 L 29.515625 29.03125 L 0.484375 29.03125 Z M 0.484375 0 " clip-rule="nonzero"/></clipPath><clipPath id="ccf8fee7a8"><path d="M 1.933594 0 L 28.066406 0 C 28.867188 0 29.515625 0.648438 29.515625 1.453125 L 29.515625 27.582031 C 29.515625 28.382812 28.867188 29.03125 28.066406 29.03125 L 1.933594 29.03125 C 1.132812 29.03125 0.484375 28.382812 0.484375 27.582031 L 0.484375 1.453125 C 0.484375 0.648438 1.132812 0 1.933594 0 Z M 1.933594 0 " clip-rule="nonzero"/></clipPath><clipPath id="c00fc9e863"><rect x="0" width="30" y="0" height="30"/></clipPath><clipPath id="86f3ed52b2"><path d="M 3.386719 3.0625 L 26.613281 3.0625 L 26.613281 26 L 3.386719 26 Z M 3.386719 3.0625 " clip-rule="nonzero"/></clipPath></defs><g clip-path="url(#c7b47d0935)"><g clip-path="url(#55e098db9a)"><g transform="matrix(1, 0, 0, 1, 0, 0.000000000000005692)"><g clip-path="url(#c00fc9e863)"><g clip-path="url(#b2a9043643)"><g clip-path="url(#ccf8fee7a8)"><path fill="#93e85f" d="M 0.484375 0 L 29.515625 0 L 29.515625 29.03125 L 0.484375 29.03125 Z M 0.484375 0 " fill-opacity="1" fill-rule="nonzero"/></g></g></g></g></g></g><g clip-path="url(#86f3ed52b2)"><path fill="#01353c" d="M 22.605469 9.671875 L 7.394531 9.671875 C 7.015625 9.671875 6.707031 9.984375 6.707031 10.359375 L 6.707031 20.363281 C 6.707031 20.742188 7.015625 21.050781 7.394531 21.050781 L 17.421875 21.050781 C 17.535156 21.050781 17.632812 21.101562 17.695312 21.183594 L 20.953125 25.167969 C 20.996094 25.21875 21.039062 25.234375 21.039062 25.183594 L 21.039062 21.390625 C 21.039062 21.203125 21.191406 21.050781 21.382812 21.050781 L 22.605469 21.050781 C 22.984375 21.050781 23.292969 20.742188 23.292969 20.363281 L 23.292969 10.359375 C 23.292969 9.984375 22.984375 9.671875 22.605469 9.671875 Z M 14.875 3.0625 C 15.742188 3.0625 16.445312 3.765625 16.445312 4.628906 C 16.445312 5.515625 15.710938 6.230469 14.820312 6.199219 C 14.648438 7.179688 14.878906 8.082031 15.230469 8.988281 L 22.605469 8.988281 C 23.359375 8.988281 23.976562 9.605469 23.976562 10.359375 L 23.976562 12.402344 C 25.46875 12.574219 26.613281 13.839844 26.613281 15.363281 C 26.613281 16.882812 25.46875 18.152344 23.976562 18.320312 L 23.976562 20.363281 C 23.976562 21.117188 23.359375 21.734375 22.605469 21.734375 L 21.722656 21.734375 L 21.722656 25.183594 C 21.722656 25.5 21.511719 25.78125 21.203125 25.871094 C 20.902344 25.957031 20.613281 25.832031 20.425781 25.597656 L 17.261719 21.734375 L 7.394531 21.734375 C 6.640625 21.734375 6.023438 21.117188 6.023438 20.363281 L 6.023438 18.320312 C 4.53125 18.152344 3.386719 16.882812 3.386719 15.363281 C 3.386719 13.839844 4.53125 12.574219 6.023438 12.402344 L 6.023438 10.359375 C 6.023438 9.605469 6.640625 8.988281 7.394531 8.988281 L 14.503906 8.988281 C 14.15625 8.03125 13.960938 7.066406 14.160156 6.027344 C 13.214844 5.546875 13.007812 4.277344 13.765625 3.519531 C 14.046875 3.238281 14.441406 3.0625 14.875 3.0625 Z M 15.5 4.003906 C 14.945312 3.445312 13.988281 3.84375 13.988281 4.628906 C 13.988281 5.417969 14.945312 5.816406 15.5 5.257812 C 15.847656 4.910156 15.847656 4.351562 15.5 4.003906 Z M 11.039062 11.875 C 11.855469 11.875 12.519531 12.539062 12.519531 13.355469 C 12.519531 14.175781 11.855469 14.835938 11.039062 14.835938 C 10.21875 14.835938 9.558594 14.175781 9.558594 13.355469 C 9.558594 12.539062 10.21875 11.875 11.039062 11.875 Z M 11.601562 12.792969 C 11.914062 13.105469 11.914062 13.609375 11.601562 13.921875 C 11.101562 14.421875 10.238281 14.066406 10.238281 13.355469 C 10.238281 12.648438 11.101562 12.292969 11.601562 12.792969 Z M 16.703125 16.355469 C 16.859375 16.253906 17.070312 16.296875 17.171875 16.457031 C 17.273438 16.613281 17.230469 16.824219 17.070312 16.925781 C 15.542969 17.910156 14.570312 17.890625 13.050781 16.941406 C 12.890625 16.839844 12.839844 16.628906 12.941406 16.46875 C 13.039062 16.3125 13.25 16.261719 13.410156 16.359375 C 14.707031 17.171875 15.398438 17.195312 16.703125 16.355469 Z M 19.929688 12.125 C 20.09375 12.03125 20.300781 12.085938 20.398438 12.25 C 20.492188 12.414062 20.433594 12.621094 20.273438 12.714844 L 19.160156 13.355469 L 20.269531 14 C 20.433594 14.09375 20.488281 14.300781 20.398438 14.460938 C 20.304688 14.625 20.09375 14.683594 19.933594 14.589844 L 18.328125 13.660156 C 18.066406 13.523438 18.089844 13.1875 18.308594 13.0625 Z M 23.976562 17.632812 C 25.089844 17.464844 25.929688 16.507812 25.929688 15.363281 C 25.929688 14.21875 25.085938 13.257812 23.976562 13.089844 Z M 6.023438 17.632812 L 6.023438 13.089844 C 4.910156 13.257812 4.070312 14.21875 4.070312 15.363281 C 4.070312 16.507812 4.910156 17.464844 6.023438 17.632812 Z M 6.023438 17.632812 " fill-opacity="1" fill-rule="evenodd"/></g></svg>