<svg xmlns="http://www.w3.org/2000/svg" xmlns:xlink="http://www.w3.org/1999/xlink" width="40" zoomAndPan="magnify" viewBox="0 0 30 30.000001" height="40" preserveAspectRatio="xMidYMid meet" version="1.0"><defs><clipPath id="bd2c79ad8b"><path d="M 5.144531 2.902344 L 24.742188 2.902344 L 24.742188 26.128906 L 5.144531 26.128906 Z M 5.144531 2.902344 " clip-rule="nonzero"/></clipPath></defs><path fill="#ffffff" d="M 14.816406 24.855469 C 17.914062 22.675781 20.917969 20.550781 22.296875 17.308594 C 23.683594 14.054688 23.441406 9.640625 23.1875 5.128906 L 23.488281 5.390625 C 22.316406 5.5 21.128906 5.613281 20.046875 5.613281 C 19.503906 5.613281 18.980469 5.582031 18.496094 5.511719 C 17.046875 5.289062 15.996094 4.671875 14.988281 4.082031 L 15.230469 4.097656 L 15.214844 4.105469 C 13.542969 4.804688 11.824219 5.523438 10.378906 5.726562 C 10.058594 5.773438 9.753906 5.792969 9.460938 5.792969 C 8.398438 5.792969 7.480469 5.535156 6.601562 5.292969 L 6.949219 5.035156 L 6.949219 5.054688 C 6.792969 9.96875 6.648438 14.785156 8.003906 18.058594 C 9.347656 21.304688 12.183594 23.050781 15.117188 24.847656 L 14.816406 24.855469 M 15.132812 25.304688 C 15.042969 25.371094 14.925781 25.375 14.832031 25.316406 C 11.921875 23.535156 8.917969 21.707031 7.492188 18.269531 C 6.082031 14.863281 6.246094 9.902344 6.398438 5.035156 L 6.398438 5.019531 C 6.402344 4.933594 6.441406 4.855469 6.511719 4.804688 C 6.578125 4.753906 6.667969 4.738281 6.746094 4.761719 C 7.636719 5.007812 8.484375 5.242188 9.460938 5.242188 C 9.730469 5.242188 10.007812 5.222656 10.300781 5.183594 C 11.664062 4.992188 13.308594 4.304688 15 3.597656 L 15.019531 3.589844 C 15.097656 3.558594 15.191406 3.5625 15.265625 3.605469 C 16.277344 4.199219 17.246094 4.761719 18.578125 4.964844 C 19.027344 5.035156 19.519531 5.0625 20.046875 5.0625 C 21.097656 5.0625 22.257812 4.953125 23.4375 4.839844 C 23.511719 4.832031 23.585938 4.855469 23.640625 4.90625 C 23.699219 4.953125 23.730469 5.023438 23.738281 5.097656 C 23.988281 9.5625 24.25 14.125 22.804688 17.523438 C 21.355469 20.9375 18.199219 23.148438 15.132812 25.304688 Z M 15.132812 25.304688 " fill-opacity="1" fill-rule="nonzero"/><g clip-path="url(#bd2c79ad8b)"><path fill="#ffffff" d="M 5.894531 3.695312 L 5.898438 3.695312 C 7.183594 4.179688 8.4375 4.652344 9.957031 4.53125 C 10.035156 4.527344 10.113281 4.519531 10.191406 4.507812 C 11.675781 4.335938 13.398438 3.644531 15.144531 2.945312 C 15.183594 2.929688 15.230469 2.933594 15.269531 2.957031 C 16.316406 3.574219 17.339844 4.179688 18.800781 4.367188 C 20.058594 4.527344 21.644531 4.382812 23.300781 4.1875 C 23.582031 4.15625 23.867188 4.121094 24.148438 4.085938 C 24.1875 4.082031 24.226562 4.09375 24.257812 4.117188 C 24.289062 4.144531 24.304688 4.179688 24.308594 4.21875 L 24.308594 4.234375 C 24.578125 9.390625 24.847656 14.597656 23.320312 18.253906 C 21.78125 21.921875 18.4375 24.015625 15.144531 26.082031 C 15.101562 26.109375 15.046875 26.109375 15 26.085938 L 14.992188 26.078125 C 11.648438 24.257812 8.253906 22.40625 6.695312 18.667969 C 5.140625 14.941406 5.425781 9.355469 5.703125 3.820312 C 5.703125 3.773438 5.726562 3.734375 5.765625 3.707031 C 5.804688 3.683594 5.851562 3.679688 5.894531 3.695312 M 5.792969 3.957031 L 5.984375 3.832031 C 5.707031 9.394531 5.433594 14.90625 6.957031 18.558594 C 8.46875 22.191406 11.769531 24 15.128906 25.832031 L 15.136719 25.835938 L 14.992188 25.839844 C 18.304688 23.765625 21.5625 21.714844 23.058594 18.144531 C 24.558594 14.5625 24.296875 9.433594 24.027344 4.25 L 24.027344 4.234375 L 24.183594 4.367188 C 23.898438 4.402344 23.613281 4.4375 23.332031 4.46875 C 21.683594 4.664062 20.0625 4.8125 18.765625 4.644531 C 17.238281 4.449219 16.171875 3.816406 15.125 3.199219 L 15.25 3.207031 C 13.515625 3.90625 11.753906 4.613281 10.226562 4.789062 C 10.144531 4.800781 10.0625 4.808594 9.980469 4.8125 C 8.386719 4.941406 7.078125 4.445312 5.796875 3.960938 Z M 5.792969 3.957031 " fill-opacity="1" fill-rule="nonzero"/></g></svg>