<svg xmlns="http://www.w3.org/2000/svg" xmlns:xlink="http://www.w3.org/1999/xlink" width="40" zoomAndPan="magnify" viewBox="0 0 30 30.000001" height="40" preserveAspectRatio="xMidYMid meet" version="1.0"><defs><clipPath id="6aaf8a4a1f"><path d="M 3.386719 4.867188 L 26.613281 4.867188 L 26.613281 24.464844 L 3.386719 24.464844 Z M 3.386719 4.867188 " clip-rule="nonzero"/></clipPath></defs><g clip-path="url(#6aaf8a4a1f)"><path fill="#ffffff" d="M 25.308594 9.007812 L 21.410156 9.007812 C 20.703125 9.007812 20.128906 9.582031 20.128906 10.285156 L 20.128906 22.882812 C 20.128906 23.585938 20.703125 24.160156 21.410156 24.160156 L 25.308594 24.160156 C 26.015625 24.160156 26.585938 23.585938 26.585938 22.882812 L 26.585938 10.285156 C 26.585938 9.582031 26.015625 9.007812 25.308594 9.007812 Z M 25.761719 22.882812 C 25.761719 23.128906 25.558594 23.332031 25.308594 23.332031 L 21.410156 23.332031 C 21.160156 23.332031 20.957031 23.128906 20.957031 22.882812 L 20.957031 10.285156 C 20.957031 10.035156 21.160156 9.835938 21.410156 9.835938 L 25.308594 9.835938 C 25.558594 9.835938 25.761719 10.035156 25.761719 10.285156 Z M 16.949219 12.582031 L 13.046875 12.582031 C 12.34375 12.582031 11.769531 13.15625 11.769531 13.859375 L 11.769531 22.882812 C 11.769531 23.585938 12.34375 24.160156 13.046875 24.160156 L 16.949219 24.160156 C 17.652344 24.160156 18.226562 23.585938 18.226562 22.882812 L 18.226562 13.859375 C 18.226562 13.15625 17.652344 12.582031 16.949219 12.582031 Z M 17.402344 22.882812 C 17.402344 23.128906 17.199219 23.332031 16.949219 23.332031 L 13.046875 23.332031 C 12.800781 23.332031 12.597656 23.128906 12.597656 22.882812 L 12.597656 13.859375 C 12.597656 13.613281 12.800781 13.410156 13.046875 13.410156 L 16.949219 13.410156 C 17.199219 13.410156 17.402344 13.613281 17.402344 13.859375 Z M 8.589844 16.15625 L 4.6875 16.15625 C 3.984375 16.15625 3.410156 16.730469 3.410156 17.4375 L 3.410156 22.882812 C 3.410156 23.585938 3.984375 24.160156 4.6875 24.160156 L 8.589844 24.160156 C 9.292969 24.160156 9.867188 23.585938 9.867188 22.882812 L 9.867188 17.4375 C 9.867188 16.730469 9.292969 16.15625 8.589844 16.15625 Z M 9.039062 22.882812 C 9.039062 23.128906 8.835938 23.332031 8.589844 23.332031 L 4.6875 23.332031 C 4.4375 23.332031 4.234375 23.128906 4.234375 22.882812 L 4.234375 17.4375 C 4.234375 17.1875 4.4375 16.984375 4.6875 16.984375 L 8.589844 16.984375 C 8.835938 16.984375 9.039062 17.1875 9.039062 17.4375 Z M 19.324219 4.867188 L 16.328125 4.867188 C 16.101562 4.867188 15.914062 5.050781 15.914062 5.28125 C 15.914062 5.507812 16.101562 5.695312 16.328125 5.695312 L 18.351562 5.695312 L 13.992188 9.886719 L 11.296875 7.894531 C 11.132812 7.773438 10.898438 7.789062 10.757812 7.941406 L 4.210938 14.699219 C 4.050781 14.863281 4.054688 15.125 4.21875 15.285156 C 4.300781 15.363281 4.402344 15.398438 4.507812 15.398438 C 4.617188 15.398438 4.722656 15.359375 4.804688 15.273438 L 11.097656 8.773438 L 13.78125 10.757812 C 13.945312 10.878906 14.167969 10.863281 14.3125 10.722656 L 18.914062 6.300781 L 18.914062 8.402344 C 18.914062 8.632812 19.097656 8.816406 19.324219 8.816406 C 19.554688 8.816406 19.738281 8.632812 19.738281 8.402344 L 19.738281 5.28125 C 19.738281 5.050781 19.554688 4.867188 19.324219 4.867188 Z M 19.324219 4.867188 " fill-opacity="1" fill-rule="nonzero"/></g></svg>