<svg xmlns="http://www.w3.org/2000/svg" xmlns:xlink="http://www.w3.org/1999/xlink" width="40" zoomAndPan="magnify" viewBox="0 0 30 30.000001" height="40" preserveAspectRatio="xMidYMid meet" version="1.0"><defs><clipPath id="22b4bfae84"><path d="M 0.484375 0 L 29.515625 0 L 29.515625 29.03125 L 0.484375 29.03125 Z M 0.484375 0 " clip-rule="nonzero"/></clipPath><clipPath id="93b456b9ab"><path d="M 0.484375 0 L 29.515625 0 L 29.515625 29.03125 L 0.484375 29.03125 Z M 0.484375 0 " clip-rule="nonzero"/></clipPath><clipPath id="e20acda178"><path d="M 2.660156 0 L 27.339844 0 C 28.542969 0 29.515625 0.976562 29.515625 2.175781 L 29.515625 26.855469 C 29.515625 28.058594 28.542969 29.03125 27.339844 29.03125 L 2.660156 29.03125 C 1.457031 29.03125 0.484375 28.058594 0.484375 26.855469 L 0.484375 2.175781 C 0.484375 0.976562 1.457031 0 2.660156 0 Z M 2.660156 0 " clip-rule="nonzero"/></clipPath><clipPath id="820ea1db4f"><path d="M 0.484375 0 L 29.515625 0 L 29.515625 29.03125 L 0.484375 29.03125 Z M 0.484375 0 " clip-rule="nonzero"/></clipPath><clipPath id="2ede61b1ee"><path d="M 2.660156 0 L 27.339844 0 C 28.542969 0 29.515625 0.976562 29.515625 2.175781 L 29.515625 26.855469 C 29.515625 28.058594 28.542969 29.03125 27.339844 29.03125 L 2.660156 29.03125 C 1.457031 29.03125 0.484375 28.058594 0.484375 26.855469 L 0.484375 2.175781 C 0.484375 0.976562 1.457031 0 2.660156 0 Z M 2.660156 0 " clip-rule="nonzero"/></clipPath><clipPath id="ecbef1729a"><rect x="0" width="30" y="0" height="30"/></clipPath><clipPath id="c0b246a5e9"><path d="M 6 5.269531 L 24 5.269531 L 24 23.414062 L 6 23.414062 Z M 6 5.269531 " clip-rule="nonzero"/></clipPath><clipPath id="81ede4702f"><path d="M 3.386719 12 L 6 12 L 6 20 L 3.386719 20 Z M 3.386719 12 " clip-rule="nonzero"/></clipPath><clipPath id="3f7f857d5c"><path d="M 24 12 L 26.613281 12 L 26.613281 20 L 24 20 Z M 24 12 " clip-rule="nonzero"/></clipPath></defs><g clip-path="url(#22b4bfae84)"><path fill="#ffffff" d="M 0.484375 0 L 29.515625 0 L 29.515625 29.03125 L 0.484375 29.03125 Z M 0.484375 0 " fill-opacity="1" fill-rule="nonzero"/><path fill="#000000" d="M 0.484375 0 L 29.515625 0 L 29.515625 29.03125 L 0.484375 29.03125 Z M 0.484375 0 " fill-opacity="1" fill-rule="nonzero"/></g><g clip-path="url(#93b456b9ab)"><g clip-path="url(#e20acda178)"><g transform="matrix(1, 0, 0, 1, 0, 0.000000000000005692)"><g clip-path="url(#ecbef1729a)"><g clip-path="url(#820ea1db4f)"><g clip-path="url(#2ede61b1ee)"><path fill="#93e85f" d="M 0.484375 0 L 29.515625 0 L 29.515625 29.03125 L 0.484375 29.03125 Z M 0.484375 0 " fill-opacity="1" fill-rule="nonzero"/></g></g></g></g></g></g><g clip-path="url(#c0b246a5e9)"><path fill="#000000" d="M 19.902344 23.414062 L 10.082031 23.414062 C 7.921875 23.414062 6.164062 21.691406 6.164062 19.582031 L 6.164062 13.332031 C 6.164062 11.210938 7.921875 9.488281 10.082031 9.488281 L 14.570312 9.488281 L 14.585938 8.019531 C 14 7.847656 13.566406 7.3125 13.566406 6.671875 C 13.566406 5.898438 14.21875 5.269531 15.007812 5.269531 C 15.796875 5.269531 16.449219 5.898438 16.449219 6.671875 C 16.449219 7.3125 16 7.859375 15.402344 8.03125 L 15.386719 9.488281 L 19.902344 9.488281 C 22.054688 9.488281 23.808594 11.210938 23.808594 13.332031 L 23.808594 19.597656 C 23.808594 21.707031 22.054688 23.414062 19.902344 23.414062 Z M 11.308594 17.351562 C 10.152344 17.351562 9.238281 16.457031 9.238281 15.335938 C 9.238281 14.203125 10.152344 13.308594 11.308594 13.308594 C 12.464844 13.308594 13.359375 14.203125 13.359375 15.335938 C 13.359375 16.457031 12.464844 17.351562 11.308594 17.351562 Z M 11.308594 14.109375 C 10.601562 14.109375 10.054688 14.640625 10.054688 15.335938 C 10.054688 16.019531 10.601562 16.550781 11.308594 16.550781 C 12 16.550781 12.558594 16.019531 12.558594 15.335938 C 12.558594 14.640625 12 14.109375 11.308594 14.109375 Z M 18.691406 17.273438 C 17.535156 17.273438 16.613281 16.363281 16.613281 15.242188 C 16.613281 14.121094 17.535156 13.214844 18.691406 13.214844 C 19.820312 13.214844 20.746094 14.121094 20.746094 15.242188 C 20.746094 16.363281 19.820312 17.273438 18.691406 17.273438 Z M 18.691406 14.015625 C 17.984375 14.015625 17.429688 14.574219 17.429688 15.242188 C 17.429688 15.925781 17.984375 16.484375 18.691406 16.484375 C 19.386719 16.484375 19.929688 15.925781 19.929688 15.242188 C 19.929688 14.550781 19.375 14.015625 18.691406 14.015625 Z M 14.84375 19.703125 C 14.066406 19.703125 13.386719 19.34375 13.007812 19.023438 C 12.832031 18.875 12.816406 18.609375 12.964844 18.460938 C 13.117188 18.300781 13.359375 18.273438 13.539062 18.433594 C 13.660156 18.542969 14.84375 19.460938 15.972656 18.449219 C 16.136719 18.300781 16.378906 18.300781 16.558594 18.460938 C 16.707031 18.632812 16.707031 18.875 16.542969 19.035156 C 15.972656 19.515625 15.386719 19.703125 14.84375 19.703125 Z M 14.84375 19.703125 " fill-opacity="1" fill-rule="evenodd"/></g><g clip-path="url(#81ede4702f)"><path fill="#000000" d="M 5.347656 19.128906 L 5.1875 19.128906 C 4.207031 19.128906 3.390625 18.339844 3.390625 17.367188 L 3.390625 14.640625 C 3.390625 13.667969 4.207031 12.867188 5.1875 12.867188 L 5.375 12.867188 C 5.363281 13.011719 5.347656 13.171875 5.347656 13.332031 Z M 5.347656 19.128906 " fill-opacity="1" fill-rule="evenodd"/></g><g clip-path="url(#3f7f857d5c)"><path fill="#000000" d="M 24.785156 19.128906 L 24.625 19.128906 L 24.625 13.332031 C 24.625 13.160156 24.609375 13 24.597656 12.851562 L 24.785156 12.851562 C 25.792969 12.851562 26.609375 13.640625 26.609375 14.628906 L 26.609375 17.367188 C 26.609375 18.355469 25.792969 19.128906 24.785156 19.128906 Z M 24.785156 19.128906 " fill-opacity="1" fill-rule="evenodd"/></g></svg>