<svg xmlns="http://www.w3.org/2000/svg" xmlns:xlink="http://www.w3.org/1999/xlink" width="40" zoomAndPan="magnify" viewBox="0 0 30 30.000001" height="40" preserveAspectRatio="xMidYMid meet" version="1.0"><defs><clipPath id="a716fade96"><path d="M 0.484375 0 L 29.515625 0 L 29.515625 29.03125 L 0.484375 29.03125 Z M 0.484375 0 " clip-rule="nonzero"/></clipPath><clipPath id="3f0b283347"><path d="M 0.484375 0 L 29.515625 0 L 29.515625 29.03125 L 0.484375 29.03125 Z M 0.484375 0 " clip-rule="nonzero"/></clipPath><clipPath id="c5ec704255"><path d="M 2.660156 0 L 27.339844 0 C 28.542969 0 29.515625 0.976562 29.515625 2.175781 L 29.515625 26.855469 C 29.515625 28.058594 28.542969 29.03125 27.339844 29.03125 L 2.660156 29.03125 C 1.457031 29.03125 0.484375 28.058594 0.484375 26.855469 L 0.484375 2.175781 C 0.484375 0.976562 1.457031 0 2.660156 0 Z M 2.660156 0 " clip-rule="nonzero"/></clipPath><clipPath id="36bdcaace0"><path d="M 0.484375 0 L 29.515625 0 L 29.515625 29.03125 L 0.484375 29.03125 Z M 0.484375 0 " clip-rule="nonzero"/></clipPath><clipPath id="e89b9ffb82"><path d="M 2.660156 0 L 27.339844 0 C 28.542969 0 29.515625 0.976562 29.515625 2.175781 L 29.515625 26.855469 C 29.515625 28.058594 28.542969 29.03125 27.339844 29.03125 L 2.660156 29.03125 C 1.457031 29.03125 0.484375 28.058594 0.484375 26.855469 L 0.484375 2.175781 C 0.484375 0.976562 1.457031 0 2.660156 0 Z M 2.660156 0 " clip-rule="nonzero"/></clipPath><clipPath id="817cb4ecc9"><rect x="0" width="30" y="0" height="30"/></clipPath><clipPath id="5f17c192d7"><path d="M 6.554688 4 L 23.246094 4 L 23.246094 26.128906 L 6.554688 26.128906 Z M 6.554688 4 " clip-rule="nonzero"/></clipPath><clipPath id="27edf3e5bf"><path d="M 9 2.902344 L 21 2.902344 L 21 8 L 9 8 Z M 9 2.902344 " clip-rule="nonzero"/></clipPath></defs><g clip-path="url(#a716fade96)"><path fill="#ffffff" d="M 0.484375 0 L 29.515625 0 L 29.515625 29.03125 L 0.484375 29.03125 Z M 0.484375 0 " fill-opacity="1" fill-rule="nonzero"/><path fill="#000000" d="M 0.484375 0 L 29.515625 0 L 29.515625 29.03125 L 0.484375 29.03125 Z M 0.484375 0 " fill-opacity="1" fill-rule="nonzero"/></g><g clip-path="url(#3f0b283347)"><g clip-path="url(#c5ec704255)"><g transform="matrix(1, 0, 0, 1, 0, 0.000000000000005692)"><g clip-path="url(#817cb4ecc9)"><g clip-path="url(#36bdcaace0)"><g clip-path="url(#e89b9ffb82)"><path fill="#93e85f" d="M 0.484375 0 L 29.515625 0 L 29.515625 29.03125 L 0.484375 29.03125 Z M 0.484375 0 " fill-opacity="1" fill-rule="nonzero"/></g></g></g></g></g></g><g clip-path="url(#5f17c192d7)"><path fill="#000000" d="M 22.582031 26.128906 L 7.21875 26.128906 C 6.851562 26.128906 6.558594 25.828125 6.558594 25.460938 L 6.558594 5.144531 C 6.558594 4.773438 6.851562 4.472656 7.21875 4.472656 L 9.082031 4.472656 L 9.082031 5.8125 L 7.878906 5.8125 L 7.878906 24.792969 L 21.921875 24.792969 L 21.921875 5.8125 L 20.71875 5.8125 L 20.71875 4.472656 L 22.582031 4.472656 C 22.949219 4.472656 23.242188 4.773438 23.242188 5.144531 L 23.242188 25.460938 C 23.242188 25.828125 22.949219 26.128906 22.582031 26.128906 Z M 22.582031 26.128906 " fill-opacity="1" fill-rule="nonzero"/></g><g clip-path="url(#27edf3e5bf)"><path fill="#000000" d="M 19.492188 7.382812 L 10.308594 7.382812 C 9.941406 7.382812 9.648438 7.082031 9.648438 6.714844 L 9.648438 3.570312 C 9.648438 3.203125 9.941406 2.902344 10.308594 2.902344 L 19.492188 2.902344 C 19.859375 2.902344 20.152344 3.203125 20.152344 3.570312 L 20.152344 6.714844 C 20.152344 7.082031 19.859375 7.382812 19.492188 7.382812 Z M 10.96875 6.046875 L 18.832031 6.046875 L 18.832031 4.242188 L 10.96875 4.242188 Z M 10.96875 6.046875 " fill-opacity="1" fill-rule="nonzero"/></g><path fill="#000000" d="M 15 18.355469 C 14.824219 18.355469 14.65625 18.285156 14.53125 18.160156 L 11.574219 15.167969 C 11.316406 14.90625 11.316406 14.480469 11.574219 14.222656 L 12.96875 12.808594 C 13.089844 12.683594 13.257812 12.613281 13.433594 12.613281 C 13.609375 12.613281 13.777344 12.683594 13.902344 12.808594 L 15 13.917969 L 18.320312 10.558594 C 18.445312 10.433594 18.613281 10.363281 18.789062 10.363281 C 18.964844 10.363281 19.132812 10.433594 19.253906 10.558594 L 20.648438 11.96875 C 20.90625 12.230469 20.90625 12.652344 20.648438 12.914062 L 15.464844 18.160156 C 15.339844 18.285156 15.171875 18.355469 15 18.355469 Z M 12.976562 14.695312 L 15 16.738281 L 19.246094 12.441406 L 18.789062 11.976562 L 15.464844 15.335938 C 15.207031 15.597656 14.789062 15.597656 14.53125 15.335938 L 13.433594 14.230469 Z M 12.976562 14.695312 " fill-opacity="1" fill-rule="nonzero"/><path fill="#000000" d="M 14.339844 20.566406 C 13.640625 20.566406 12.957031 20.429688 12.3125 20.167969 C 11.644531 19.894531 11.046875 19.492188 10.535156 18.972656 C 10.019531 18.453125 9.621094 17.847656 9.351562 17.171875 C 9.089844 16.519531 8.957031 15.828125 8.957031 15.121094 C 8.957031 14.414062 9.089844 13.726562 9.351562 13.074219 C 9.621094 12.398438 10.019531 11.792969 10.535156 11.273438 C 10.984375 10.820312 11.5 10.453125 12.074219 10.183594 C 12.625 9.925781 13.214844 9.761719 13.824219 9.703125 C 15.046875 9.585938 16.28125 9.894531 17.300781 10.578125 L 16.570312 11.691406 C 14.972656 10.625 12.824219 10.84375 11.46875 12.21875 C 9.886719 13.820312 9.886719 16.425781 11.46875 18.027344 C 13.050781 19.625 15.625 19.625 17.207031 18.027344 C 17.917969 17.304688 18.339844 16.351562 18.390625 15.335938 L 19.710938 15.40625 C 19.644531 16.753906 19.085938 18.019531 18.144531 18.972656 C 17.628906 19.492188 17.03125 19.894531 16.363281 20.167969 C 15.71875 20.429688 15.035156 20.566406 14.339844 20.566406 Z M 14.339844 20.566406 " fill-opacity="1" fill-rule="nonzero"/></svg>