<svg xmlns="http://www.w3.org/2000/svg" xmlns:xlink="http://www.w3.org/1999/xlink" width="40" zoomAndPan="magnify" viewBox="0 0 30 30.000001" height="40" preserveAspectRatio="xMidYMid meet" version="1.0"><defs><clipPath id="b6186ff55c"><path d="M 0.484375 0 L 29.515625 0 L 29.515625 29.03125 L 0.484375 29.03125 Z M 0.484375 0 " clip-rule="nonzero"/></clipPath><clipPath id="25dcd18ecc"><path d="M 0.484375 0 L 29.515625 0 L 29.515625 29.03125 L 0.484375 29.03125 Z M 0.484375 0 " clip-rule="nonzero"/></clipPath><clipPath id="7ddf8da689"><path d="M 2.660156 0 L 27.339844 0 C 28.542969 0 29.515625 0.976562 29.515625 2.175781 L 29.515625 26.855469 C 29.515625 28.058594 28.542969 29.03125 27.339844 29.03125 L 2.660156 29.03125 C 1.457031 29.03125 0.484375 28.058594 0.484375 26.855469 L 0.484375 2.175781 C 0.484375 0.976562 1.457031 0 2.660156 0 Z M 2.660156 0 " clip-rule="nonzero"/></clipPath><clipPath id="e8f1448f2d"><path d="M 0.484375 0 L 29.515625 0 L 29.515625 29.03125 L 0.484375 29.03125 Z M 0.484375 0 " clip-rule="nonzero"/></clipPath><clipPath id="81cdb24304"><path d="M 2.660156 0 L 27.339844 0 C 28.542969 0 29.515625 0.976562 29.515625 2.175781 L 29.515625 26.855469 C 29.515625 28.058594 28.542969 29.03125 27.339844 29.03125 L 2.660156 29.03125 C 1.457031 29.03125 0.484375 28.058594 0.484375 26.855469 L 0.484375 2.175781 C 0.484375 0.976562 1.457031 0 2.660156 0 Z M 2.660156 0 " clip-rule="nonzero"/></clipPath><clipPath id="35c3b1a3f9"><rect x="0" width="30" y="0" height="30"/></clipPath><clipPath id="7d4eee4e20"><path d="M 6.953125 2.902344 L 22.921875 2.902344 L 22.921875 26.128906 L 6.953125 26.128906 Z M 6.953125 2.902344 " clip-rule="nonzero"/></clipPath></defs><g clip-path="url(#b6186ff55c)"><path fill="#ffffff" d="M 0.484375 0 L 29.515625 0 L 29.515625 29.03125 L 0.484375 29.03125 Z M 0.484375 0 " fill-opacity="1" fill-rule="nonzero"/><path fill="#000000" d="M 0.484375 0 L 29.515625 0 L 29.515625 29.03125 L 0.484375 29.03125 Z M 0.484375 0 " fill-opacity="1" fill-rule="nonzero"/></g><g clip-path="url(#25dcd18ecc)"><g clip-path="url(#7ddf8da689)"><g transform="matrix(1, 0, 0, 1, 0, 0.000000000000005692)"><g clip-path="url(#35c3b1a3f9)"><g clip-path="url(#e8f1448f2d)"><g clip-path="url(#81cdb24304)"><path fill="#93e85f" d="M 0.484375 0 L 29.515625 0 L 29.515625 29.03125 L 0.484375 29.03125 Z M 0.484375 0 " fill-opacity="1" fill-rule="nonzero"/></g></g></g></g></g></g><path fill="#000000" d="M 21.226562 20.503906 C 21.054688 20.386719 20.839844 20.363281 20.648438 20.441406 C 20.648438 20.445312 19.71875 20.828125 19.71875 20.828125 C 19.71875 20.828125 16.496094 22.152344 16.496094 22.152344 C 16.261719 22.25 16.113281 22.476562 16.113281 22.726562 L 16.113281 23.667969 C 16.105469 24 16.398438 24.292969 16.730469 24.289062 C 16.808594 24.289062 16.886719 24.273438 16.960938 24.242188 C 17.808594 23.894531 20.308594 22.863281 21.113281 22.53125 C 21.347656 22.433594 21.496094 22.210938 21.496094 21.957031 L 21.496094 21.015625 C 21.496094 20.808594 21.394531 20.617188 21.226562 20.503906 Z M 16.78125 23.796875 C 16.683594 23.832031 16.59375 23.769531 16.589844 23.667969 C 16.589844 23.667969 16.589844 22.726562 16.589844 22.726562 C 16.589844 22.671875 16.625 22.621094 16.675781 22.597656 L 19.574219 21.40625 L 19.574219 22.648438 Z M 21.019531 21.957031 C 21.019531 22.011719 20.988281 22.0625 20.933594 22.085938 L 20.050781 22.449219 L 20.050781 21.210938 L 20.828125 20.886719 C 20.925781 20.851562 21.015625 20.914062 21.019531 21.015625 C 21.019531 21.015625 21.019531 21.957031 21.019531 21.957031 Z M 21.019531 21.957031 " fill-opacity="1" fill-rule="nonzero"/><path fill="#000000" d="M 10.488281 22.007812 L 8.703125 21.273438 C 8.410156 21.164062 8.234375 21.59375 8.523438 21.71875 C 8.523438 21.71875 10.304688 22.453125 10.304688 22.453125 C 10.335938 22.464844 10.367188 22.472656 10.398438 22.472656 C 10.652344 22.472656 10.726562 22.109375 10.488281 22.007812 Z M 10.488281 22.007812 " fill-opacity="1" fill-rule="nonzero"/><path fill="#000000" d="M 12.421875 22.445312 C 12.289062 22.445312 12.183594 22.550781 12.183594 22.683594 L 12.183594 23.304688 C 12.191406 23.621094 12.652344 23.621094 12.660156 23.304688 C 12.660156 23.304688 12.660156 22.683594 12.660156 22.683594 C 12.660156 22.550781 12.554688 22.445312 12.421875 22.445312 Z M 12.421875 22.445312 " fill-opacity="1" fill-rule="nonzero"/><path fill="#000000" d="M 11.320312 21.992188 C 11.1875 21.992188 11.082031 22.097656 11.082031 22.230469 L 11.082031 22.851562 C 11.089844 23.167969 11.550781 23.167969 11.558594 22.851562 C 11.558594 22.851562 11.558594 22.230469 11.558594 22.230469 C 11.558594 22.097656 11.453125 21.992188 11.320312 21.992188 Z M 11.320312 21.992188 " fill-opacity="1" fill-rule="nonzero"/><path fill="#000000" d="M 13.523438 22.898438 C 13.390625 22.898438 13.285156 23.007812 13.285156 23.140625 L 13.285156 23.757812 C 13.292969 24.074219 13.753906 24.074219 13.761719 23.757812 C 13.761719 23.757812 13.761719 23.140625 13.761719 23.140625 C 13.761719 23.007812 13.65625 22.898438 13.523438 22.898438 Z M 13.523438 22.898438 " fill-opacity="1" fill-rule="nonzero"/><path fill="#000000" d="M 21.226562 14.234375 C 21.054688 14.121094 20.839844 14.097656 20.648438 14.175781 C 20.648438 14.175781 19.71875 14.558594 19.71875 14.5625 C 19.71875 14.5625 16.496094 15.886719 16.496094 15.886719 C 16.261719 15.984375 16.113281 16.207031 16.113281 16.460938 L 16.113281 17.402344 C 16.105469 17.734375 16.398438 18.027344 16.730469 18.023438 C 16.808594 18.023438 16.886719 18.007812 16.960938 17.976562 C 17.808594 17.625 20.308594 16.597656 21.113281 16.265625 C 21.347656 16.167969 21.496094 15.941406 21.496094 15.691406 L 21.496094 14.75 C 21.496094 14.542969 21.394531 14.351562 21.226562 14.234375 Z M 16.78125 17.53125 C 16.683594 17.566406 16.59375 17.503906 16.589844 17.402344 C 16.589844 17.402344 16.589844 16.460938 16.589844 16.460938 C 16.589844 16.40625 16.625 16.355469 16.675781 16.332031 L 19.574219 15.140625 L 19.574219 16.378906 Z M 21.019531 15.691406 C 21.019531 15.746094 20.988281 15.796875 20.933594 15.820312 L 20.050781 16.183594 L 20.050781 14.941406 L 20.828125 14.621094 C 20.925781 14.585938 21.015625 14.648438 21.019531 14.75 C 21.019531 14.75 21.019531 15.691406 21.019531 15.691406 Z M 21.019531 15.691406 " fill-opacity="1" fill-rule="nonzero"/><path fill="#000000" d="M 10.488281 15.742188 L 8.703125 15.007812 C 8.410156 14.894531 8.234375 15.328125 8.523438 15.453125 C 8.523438 15.453125 10.304688 16.1875 10.304688 16.1875 C 10.335938 16.199219 10.367188 16.207031 10.398438 16.207031 C 10.652344 16.207031 10.726562 15.839844 10.488281 15.742188 Z M 10.488281 15.742188 " fill-opacity="1" fill-rule="nonzero"/><path fill="#000000" d="M 12.421875 16.179688 C 12.289062 16.179688 12.183594 16.285156 12.183594 16.417969 L 12.183594 17.039062 C 12.191406 17.355469 12.652344 17.355469 12.660156 17.039062 C 12.660156 17.039062 12.660156 16.417969 12.660156 16.417969 C 12.660156 16.285156 12.554688 16.179688 12.421875 16.179688 Z M 12.421875 16.179688 " fill-opacity="1" fill-rule="nonzero"/><path fill="#000000" d="M 11.320312 15.726562 C 11.1875 15.726562 11.082031 15.832031 11.082031 15.964844 L 11.082031 16.585938 C 11.089844 16.902344 11.550781 16.902344 11.558594 16.585938 C 11.558594 16.585938 11.558594 15.964844 11.558594 15.964844 C 11.558594 15.832031 11.453125 15.726562 11.320312 15.726562 Z M 11.320312 15.726562 " fill-opacity="1" fill-rule="nonzero"/><path fill="#000000" d="M 13.523438 16.632812 C 13.390625 16.632812 13.285156 16.738281 13.285156 16.871094 L 13.285156 17.492188 C 13.292969 17.808594 13.753906 17.808594 13.761719 17.492188 C 13.761719 17.492188 13.761719 16.871094 13.761719 16.871094 C 13.761719 16.738281 13.65625 16.632812 13.523438 16.632812 Z M 13.523438 16.632812 " fill-opacity="1" fill-rule="nonzero"/><g clip-path="url(#7d4eee4e20)"><path fill="#000000" d="M 22.738281 10.339844 C 22.847656 10.210938 22.914062 10.046875 22.914062 9.867188 L 22.914062 6.617188 C 22.910156 6.367188 22.777344 6.125 22.5625 6 C 22.53125 5.984375 22.503906 5.96875 22.472656 5.957031 L 15.3125 3.007812 C 15.070312 2.90625 14.804688 2.90625 14.5625 3.007812 L 7.402344 5.957031 C 7.28125 6.003906 7.175781 6.089844 7.101562 6.195312 C 7.011719 6.316406 6.960938 6.460938 6.960938 6.617188 L 6.960938 9.867188 C 6.960938 10.160156 7.136719 10.421875 7.402344 10.53125 L 9.453125 11.375 L 7.402344 12.222656 C 7.285156 12.269531 7.179688 12.351562 7.105469 12.457031 C 7.101562 12.460938 7.097656 12.464844 7.09375 12.472656 C 7.007812 12.589844 6.960938 12.730469 6.960938 12.882812 L 6.960938 16.136719 C 6.960938 16.425781 7.136719 16.6875 7.402344 16.796875 L 9.453125 17.644531 L 7.402344 18.488281 C 7.140625 18.597656 6.960938 18.859375 6.960938 19.152344 C 6.960938 19.152344 6.960938 22.402344 6.960938 22.402344 C 6.960938 22.695312 7.136719 22.953125 7.402344 23.0625 L 14.667969 26.058594 C 14.839844 26.128906 15.03125 26.128906 15.207031 26.058594 L 22.472656 23.0625 C 22.726562 22.957031 22.894531 22.71875 22.910156 22.441406 C 22.910156 22.429688 22.914062 22.414062 22.914062 22.402344 C 22.914062 22.402344 22.914062 19.152344 22.914062 19.148438 C 22.914062 18.863281 22.734375 18.59375 22.472656 18.488281 C 22.472656 18.488281 20.417969 17.644531 20.417969 17.644531 L 22.472656 16.796875 C 22.722656 16.695312 22.890625 16.457031 22.910156 16.1875 C 22.910156 16.171875 22.914062 16.152344 22.914062 16.136719 L 22.914062 12.882812 C 22.910156 12.730469 22.859375 12.574219 22.765625 12.453125 C 22.765625 12.449219 22.765625 12.449219 22.765625 12.449219 C 22.691406 12.351562 22.585938 12.269531 22.472656 12.222656 C 22.472656 12.222656 20.417969 11.375 20.417969 11.375 L 22.472656 10.53125 C 22.578125 10.488281 22.667969 10.421875 22.738281 10.339844 Z M 14.9375 3.414062 C 15.003906 3.414062 15.070312 3.425781 15.132812 3.453125 L 22.289062 6.402344 C 22.375 6.4375 22.433594 6.523438 22.433594 6.617188 C 22.433594 6.617188 22.433594 9.867188 22.433594 9.867188 C 22.433594 9.925781 22.414062 9.976562 22.378906 10.015625 C 22.269531 10.148438 15.117188 13.011719 15.175781 13.015625 L 15.175781 9.648438 C 15.195312 9.640625 21.382812 7.089844 21.410156 7.078125 C 21.53125 7.03125 21.589844 6.890625 21.539062 6.765625 C 21.488281 6.644531 21.351562 6.585938 21.226562 6.632812 L 15.023438 9.191406 C 14.96875 9.214844 14.90625 9.214844 14.847656 9.191406 L 7.832031 6.296875 L 14.742188 3.453125 C 14.804688 3.425781 14.871094 3.414062 14.9375 3.414062 Z M 7.4375 9.867188 L 7.4375 6.65625 C 7.480469 6.671875 14.660156 9.632812 14.699219 9.644531 L 14.699219 13.015625 L 10.175781 11.152344 L 7.582031 10.085938 C 7.496094 10.050781 7.4375 9.964844 7.4375 9.867188 Z M 7.4375 16.136719 L 7.4375 12.921875 C 7.480469 12.9375 14.660156 15.902344 14.699219 15.910156 L 14.699219 19.28125 L 7.582031 16.351562 C 7.496094 16.316406 7.4375 16.230469 7.4375 16.136719 Z M 7.582031 22.617188 C 7.496094 22.582031 7.4375 22.496094 7.4375 22.402344 L 7.4375 19.148438 C 7.4375 19.101562 7.453125 19.058594 7.476562 19.019531 C 7.480469 19.019531 7.480469 19.015625 7.484375 19.015625 C 7.511719 18.980469 7.542969 18.949219 7.582031 18.933594 C 7.582031 18.933594 10.085938 17.902344 10.085938 17.902344 L 14.667969 19.789062 C 14.839844 19.863281 15.03125 19.863281 15.207031 19.789062 L 19.789062 17.902344 L 22.042969 18.832031 L 15.023438 21.722656 C 14.996094 21.734375 14.96875 21.738281 14.9375 21.738281 C 14.910156 21.738281 14.882812 21.734375 14.855469 21.722656 L 8.703125 19.1875 C 8.582031 19.136719 8.445312 19.195312 8.394531 19.320312 C 8.34375 19.441406 8.402344 19.582031 8.523438 19.632812 C 8.5625 19.644531 14.667969 22.167969 14.699219 22.175781 L 14.699219 25.550781 Z M 22.433594 22.417969 C 22.425781 22.507812 22.375 22.585938 22.289062 22.617188 L 15.175781 25.550781 L 15.175781 22.179688 C 15.199219 22.175781 22.40625 19.203125 22.433594 19.191406 C 22.433594 19.214844 22.441406 22.398438 22.433594 22.417969 Z M 22.289062 12.667969 C 22.324219 12.679688 22.351562 12.703125 22.375 12.726562 C 22.382812 12.742188 22.390625 12.753906 22.402344 12.765625 C 22.421875 12.800781 22.433594 12.84375 22.433594 12.882812 C 22.433594 12.902344 22.441406 16.136719 22.433594 16.152344 C 22.425781 16.242188 22.371094 16.316406 22.289062 16.351562 L 15.175781 19.28125 L 15.175781 15.914062 C 15.191406 15.910156 21.328125 13.375 21.351562 13.371094 C 21.472656 13.320312 21.53125 13.179688 21.480469 13.058594 C 21.429688 12.933594 21.292969 12.875 21.167969 12.925781 L 15.027344 15.453125 C 14.972656 15.476562 14.90625 15.480469 14.847656 15.457031 C 14.847656 15.457031 7.832031 12.566406 7.832031 12.566406 L 10.085938 11.636719 L 14.667969 13.523438 C 14.773438 13.566406 14.894531 13.585938 15.007812 13.574219 C 15.074219 13.566406 15.140625 13.550781 15.207031 13.523438 C 15.207031 13.523438 19.789062 11.636719 19.789062 11.636719 Z M 22.289062 12.667969 " fill-opacity="1" fill-rule="nonzero"/></g><path fill="#000000" d="M 12.066406 6.921875 L 14.667969 7.992188 C 14.839844 8.0625 15.03125 8.0625 15.207031 7.992188 L 17.808594 6.921875 C 18.355469 6.699219 18.355469 5.898438 17.808594 5.675781 C 17.808594 5.675781 15.207031 4.605469 15.207031 4.605469 C 15.03125 4.535156 14.839844 4.535156 14.667969 4.605469 L 12.066406 5.675781 C 11.519531 5.894531 11.519531 6.699219 12.066406 6.921875 Z M 12.246094 6.121094 L 14.847656 5.050781 C 14.90625 5.027344 14.96875 5.027344 15.023438 5.050781 L 17.625 6.121094 C 17.789062 6.191406 17.78125 6.40625 17.625 6.476562 C 17.625 6.476562 15.023438 7.546875 15.023438 7.546875 C 14.96875 7.570312 14.90625 7.570312 14.847656 7.546875 L 12.246094 6.476562 C 12.085938 6.40625 12.089844 6.1875 12.246094 6.121094 Z M 12.246094 6.121094 " fill-opacity="1" fill-rule="nonzero"/><path fill="#000000" d="M 21.226562 7.96875 C 21.054688 7.855469 20.839844 7.832031 20.648438 7.910156 C 20.648438 7.910156 19.71875 8.292969 19.71875 8.292969 C 19.71875 8.292969 16.496094 9.621094 16.496094 9.621094 C 16.261719 9.71875 16.113281 9.941406 16.113281 10.195312 L 16.113281 11.132812 C 16.105469 11.46875 16.398438 11.761719 16.730469 11.753906 C 16.808594 11.753906 16.886719 11.738281 16.960938 11.710938 C 17.808594 11.359375 20.308594 10.332031 21.113281 10 C 21.347656 9.902344 21.496094 9.675781 21.496094 9.421875 L 21.496094 8.484375 C 21.496094 8.277344 21.394531 8.085938 21.226562 7.96875 Z M 16.78125 11.265625 C 16.683594 11.300781 16.59375 11.238281 16.589844 11.132812 C 16.589844 11.132812 16.589844 10.195312 16.589844 10.195312 C 16.589844 10.140625 16.625 10.089844 16.675781 10.066406 L 19.574219 8.875 L 19.574219 10.113281 Z M 21.019531 9.421875 C 21.019531 9.480469 20.988281 9.53125 20.933594 9.554688 L 20.050781 9.917969 L 20.050781 8.675781 L 20.828125 8.355469 C 20.925781 8.320312 21.015625 8.382812 21.019531 8.484375 C 21.019531 8.484375 21.019531 9.421875 21.019531 9.421875 Z M 21.019531 9.421875 " fill-opacity="1" fill-rule="nonzero"/><path fill="#000000" d="M 10.304688 9.921875 C 10.597656 10.035156 10.777344 9.605469 10.488281 9.476562 C 10.488281 9.476562 8.703125 8.742188 8.703125 8.742188 C 8.410156 8.628906 8.234375 9.058594 8.523438 9.1875 C 8.523438 9.1875 10.304688 9.921875 10.304688 9.921875 Z M 10.304688 9.921875 " fill-opacity="1" fill-rule="nonzero"/><path fill="#000000" d="M 12.421875 11.011719 C 12.554688 11.011719 12.660156 10.90625 12.660156 10.773438 L 12.660156 10.152344 C 12.652344 9.835938 12.191406 9.835938 12.183594 10.152344 C 12.183594 10.152344 12.183594 10.773438 12.183594 10.773438 C 12.183594 10.90625 12.289062 11.011719 12.421875 11.011719 Z M 12.421875 11.011719 " fill-opacity="1" fill-rule="nonzero"/><path fill="#000000" d="M 11.320312 10.558594 C 11.453125 10.558594 11.558594 10.449219 11.558594 10.316406 L 11.558594 9.699219 C 11.550781 9.382812 11.089844 9.382812 11.082031 9.699219 C 11.082031 9.699219 11.082031 10.316406 11.082031 10.316406 C 11.082031 10.449219 11.1875 10.558594 11.320312 10.558594 Z M 11.320312 10.558594 " fill-opacity="1" fill-rule="nonzero"/><path fill="#000000" d="M 13.523438 11.464844 C 13.65625 11.464844 13.761719 11.359375 13.761719 11.226562 L 13.761719 10.605469 C 13.753906 10.289062 13.292969 10.289062 13.285156 10.605469 C 13.285156 10.605469 13.285156 11.226562 13.285156 11.226562 C 13.285156 11.359375 13.390625 11.464844 13.523438 11.464844 Z M 13.523438 11.464844 " fill-opacity="1" fill-rule="nonzero"/></svg>