<svg xmlns="http://www.w3.org/2000/svg" xmlns:xlink="http://www.w3.org/1999/xlink" width="40" zoomAndPan="magnify" viewBox="0 0 30 30.000001" height="40" preserveAspectRatio="xMidYMid meet" version="1.0"><defs><clipPath id="2c38abeac0"><path d="M 6.554688 4 L 23.246094 4 L 23.246094 26.128906 L 6.554688 26.128906 Z M 6.554688 4 " clip-rule="nonzero"/></clipPath><clipPath id="3b0f6af637"><path d="M 9 2.902344 L 21 2.902344 L 21 8 L 9 8 Z M 9 2.902344 " clip-rule="nonzero"/></clipPath></defs><g clip-path="url(#2c38abeac0)"><path fill="#ffffff" d="M 22.765625 26.128906 L 7.226562 26.128906 C 6.855469 26.128906 6.558594 25.828125 6.558594 25.460938 L 6.558594 5.144531 C 6.558594 4.773438 6.855469 4.472656 7.226562 4.472656 L 9.109375 4.472656 L 9.109375 5.8125 L 7.894531 5.8125 L 7.894531 24.792969 L 22.097656 24.792969 L 22.097656 5.8125 L 20.882812 5.8125 L 20.882812 4.472656 L 22.769531 4.472656 C 23.136719 4.472656 23.4375 4.773438 23.4375 5.144531 L 23.4375 25.460938 C 23.4375 25.828125 23.136719 26.128906 22.769531 26.128906 Z M 22.765625 26.128906 " fill-opacity="1" fill-rule="nonzero"/></g><g clip-path="url(#3b0f6af637)"><path fill="#ffffff" d="M 19.640625 7.382812 L 10.351562 7.382812 C 9.980469 7.382812 9.683594 7.082031 9.683594 6.714844 L 9.683594 3.570312 C 9.683594 3.203125 9.980469 2.902344 10.351562 2.902344 L 19.640625 2.902344 C 20.011719 2.902344 20.3125 3.203125 20.3125 3.570312 L 20.3125 6.714844 C 20.3125 7.082031 20.011719 7.382812 19.640625 7.382812 Z M 11.019531 6.046875 L 18.972656 6.046875 L 18.972656 4.242188 L 11.019531 4.242188 Z M 11.019531 6.046875 " fill-opacity="1" fill-rule="nonzero"/></g><path fill="#ffffff" d="M 15.09375 18.355469 C 14.917969 18.355469 14.75 18.285156 14.621094 18.160156 L 11.628906 15.167969 C 11.371094 14.90625 11.371094 14.480469 11.628906 14.222656 L 13.042969 12.808594 C 13.167969 12.683594 13.335938 12.613281 13.515625 12.613281 C 13.691406 12.613281 13.863281 12.683594 13.988281 12.808594 L 15.09375 13.917969 L 18.457031 10.558594 C 18.582031 10.433594 18.75 10.363281 18.929688 10.363281 C 19.105469 10.363281 19.277344 10.433594 19.402344 10.558594 L 20.8125 11.96875 C 21.074219 12.230469 21.074219 12.652344 20.8125 12.914062 L 15.570312 18.160156 C 15.441406 18.285156 15.273438 18.355469 15.09375 18.355469 Z M 13.050781 14.695312 L 15.09375 16.738281 L 19.394531 12.441406 L 18.929688 11.976562 L 15.570312 15.335938 C 15.308594 15.597656 14.882812 15.597656 14.621094 15.335938 L 13.515625 14.230469 Z M 13.050781 14.695312 " fill-opacity="1" fill-rule="nonzero"/><path fill="#ffffff" d="M 14.429688 20.566406 C 13.722656 20.566406 13.03125 20.429688 12.378906 20.167969 C 11.703125 19.894531 11.097656 19.492188 10.578125 18.972656 C 10.058594 18.453125 9.65625 17.847656 9.382812 17.171875 C 9.121094 16.519531 8.984375 15.828125 8.984375 15.121094 C 8.984375 14.414062 9.121094 13.726562 9.382812 13.074219 C 9.65625 12.398438 10.058594 11.792969 10.578125 11.273438 C 11.035156 10.820312 11.558594 10.453125 12.136719 10.183594 C 12.695312 9.925781 13.292969 9.761719 13.90625 9.703125 C 15.144531 9.585938 16.390625 9.894531 17.425781 10.578125 L 16.6875 11.691406 C 15.070312 10.625 12.898438 10.84375 11.523438 12.21875 C 9.925781 13.820312 9.925781 16.425781 11.523438 18.027344 C 13.125 19.625 15.730469 19.625 17.332031 18.027344 C 18.050781 17.304688 18.476562 16.351562 18.527344 15.335938 L 19.863281 15.40625 C 19.792969 16.753906 19.230469 18.019531 18.277344 18.972656 C 17.757812 19.492188 17.152344 19.894531 16.476562 20.167969 C 15.824219 20.429688 15.136719 20.566406 14.429688 20.566406 Z M 14.429688 20.566406 " fill-opacity="1" fill-rule="nonzero"/></svg>