<svg xmlns="http://www.w3.org/2000/svg" xmlns:xlink="http://www.w3.org/1999/xlink" width="375" zoomAndPan="magnify" viewBox="0 0 281.25 281.249989" height="375" preserveAspectRatio="xMidYMid meet" version="1.0"><defs><clipPath id="3e226c6abc"><path d="M 19.472656 11 L 261.078125 11 L 261.078125 229 L 19.472656 229 Z M 19.472656 11 " clip-rule="nonzero"/></clipPath><clipPath id="aa49c01ff6"><path d="M 72 235 L 208 235 L 208 269.628906 L 72 269.628906 Z M 72 235 " clip-rule="nonzero"/></clipPath></defs><g clip-path="url(#3e226c6abc)"><path fill="#93e85f" d="M 253.832031 31.765625 L 221.453125 31.765625 L 221.453125 18.980469 C 221.457031 13.578125 219.335938 11.460938 213.9375 11.460938 L 65.550781 11.460938 C 60.15625 11.460938 58.035156 13.578125 58.035156 18.980469 L 58.035156 31.765625 L 26.660156 31.765625 C 21.476562 31.765625 19.441406 33.800781 19.441406 38.984375 L 19.441406 39.582031 C 21.101562 81.464844 48.769531 116.945312 90.6875 131.945312 C 99.722656 145.304688 110.777344 157.046875 124.203125 166.691406 C 122.53125 191.929688 113.625 209.515625 99.542969 225.921875 C 98.460938 227.175781 98.410156 228.183594 100.570312 228.183594 L 178.925781 228.183594 C 181.082031 228.183594 181.03125 227.179688 179.949219 225.921875 C 165.867188 209.515625 156.960938 191.9375 155.285156 166.691406 C 168.5625 157.160156 179.515625 145.5625 188.496094 132.394531 C 231.140625 117.667969 259.371094 81.898438 261.050781 39.582031 L 261.050781 38.984375 C 261.054688 33.800781 259.015625 31.765625 253.832031 31.765625 Z M 35.359375 48.289062 C 35.234375 47.46875 35.460938 46.800781 36.648438 46.800781 L 59.675781 46.800781 C 63.214844 69.214844 69.089844 90.4375 77.984375 109.460938 C 54.808594 95.734375 39.25 73.753906 35.359375 48.289062 Z M 245.128906 48.289062 C 241.160156 74.246094 225.066406 96.585938 201.144531 110.25 C 210.246094 91.03125 216.230469 69.527344 219.808594 46.804688 L 243.839844 46.804688 C 245.03125 46.804688 245.257812 47.472656 245.128906 48.289062 Z M 245.128906 48.289062 " fill-opacity="1" fill-rule="nonzero"/></g><g clip-path="url(#aa49c01ff6)"><path fill="#01353c" d="M 199.898438 235.699219 L 79.589844 235.699219 C 74.605469 235.699219 72.070312 238.242188 72.070312 243.21875 L 72.070312 261.519531 C 72.070312 266.5 74.605469 269.035156 79.589844 269.035156 L 199.898438 269.035156 C 204.886719 269.035156 207.417969 266.5 207.417969 261.519531 L 207.417969 243.21875 C 207.417969 238.238281 204.882812 235.699219 199.898438 235.699219 Z M 199.898438 235.699219 " fill-opacity="1" fill-rule="nonzero"/></g></svg>