<svg xmlns="http://www.w3.org/2000/svg" xmlns:xlink="http://www.w3.org/1999/xlink" width="375" zoomAndPan="magnify" viewBox="0 0 281.25 281.249989" height="375" preserveAspectRatio="xMidYMid meet" version="1.0"><defs><clipPath id="9f96277cdb"><path d="M 6 57.539062 L 275 57.539062 L 275 222.851562 L 6 222.851562 Z M 6 57.539062 " clip-rule="nonzero"/></clipPath></defs><path fill="#01353c" d="M 262.949219 140.25 C 262.949219 140.25 229.769531 215.304688 140.222656 215.304688 C 41.140625 215.304688 17.496094 140.25 17.496094 140.25 C 17.496094 140.25 54.34375 65.191406 140.222656 65.191406 C 235.226562 65.191406 262.949219 140.25 262.949219 140.25 Z M 262.949219 140.25 " fill-opacity="1" fill-rule="nonzero"/><g clip-path="url(#9f96277cdb)"><path fill="#93e85f" d="M 274.414062 69.816406 L 267.214844 57.539062 L 178.835938 109.359375 C 169.777344 98.035156 155.859375 90.765625 140.222656 90.765625 C 112.90625 90.765625 90.765625 112.910156 90.765625 140.222656 C 90.765625 146.800781 92.074219 153.09375 94.410156 158.839844 L 6.054688 210.679688 L 13.253906 222.957031 L 101.632812 171.136719 C 110.691406 182.460938 124.609375 189.730469 140.246094 189.730469 C 167.558594 189.730469 189.703125 167.585938 189.703125 140.273438 C 189.703125 133.695312 188.390625 127.402344 186.054688 121.65625 Z M 274.414062 69.816406 " fill-opacity="1" fill-rule="nonzero"/></g></svg>