<svg xmlns="http://www.w3.org/2000/svg" xmlns:xlink="http://www.w3.org/1999/xlink" width="375" zoomAndPan="magnify" viewBox="0 0 281.25 281.249989" height="375" preserveAspectRatio="xMidYMid meet" version="1.0"><defs><clipPath id="c106c5957c"><path d="M 28.050781 10 L 252.453125 10 L 252.453125 271.207031 L 28.050781 271.207031 Z M 28.050781 10 " clip-rule="nonzero"/></clipPath><clipPath id="539583961d"><path d="M 26 89.644531 L 91.628906 89.644531 L 91.628906 271.976562 L 26 271.976562 Z M 26 89.644531 " clip-rule="nonzero"/></clipPath><clipPath id="5d16ead6e5"><path d="M 192.335938 176.363281 L 254.273438 176.363281 L 254.273438 271.644531 L 192.335938 271.644531 Z M 192.335938 176.363281 " clip-rule="nonzero"/></clipPath></defs><g clip-path="url(#c106c5957c)"><path fill="#01353c" d="M 252.453125 103.46875 L 252.453125 150.023438 C 252.453125 150.636719 252.390625 151.242188 252.273438 151.839844 C 252.152344 152.441406 251.976562 153.023438 251.742188 153.585938 C 251.507812 154.152344 251.222656 154.6875 250.882812 155.195312 C 250.542969 155.707031 250.15625 156.175781 249.722656 156.609375 C 249.292969 157.039062 248.820312 157.425781 248.3125 157.765625 C 247.804688 158.105469 247.269531 158.390625 246.703125 158.625 C 246.140625 158.859375 245.554688 159.035156 244.957031 159.15625 C 244.355469 159.277344 243.75 159.335938 243.140625 159.335938 L 196.585938 159.335938 C 195.664062 159.335938 194.761719 159.203125 193.882812 158.933594 C 193 158.667969 192.175781 158.277344 191.410156 157.765625 C 190.644531 157.253906 189.972656 156.644531 189.386719 155.929688 C 188.804688 155.21875 188.335938 154.4375 187.980469 153.585938 C 187.628906 152.738281 187.410156 151.851562 187.320312 150.9375 C 187.226562 150.019531 187.273438 149.109375 187.453125 148.207031 C 187.632812 147.304688 187.9375 146.449219 188.375 145.636719 C 188.808594 144.824219 189.351562 144.09375 190 143.441406 L 206.695312 126.746094 L 159.339844 79.390625 L 128.675781 110.050781 C 128.246094 110.484375 127.773438 110.871094 127.265625 111.210938 C 126.757812 111.550781 126.222656 111.835938 125.65625 112.070312 C 125.09375 112.304688 124.511719 112.480469 123.910156 112.601562 C 123.3125 112.71875 122.707031 112.777344 122.09375 112.777344 C 121.480469 112.777344 120.875 112.71875 120.277344 112.601562 C 119.675781 112.480469 119.09375 112.304688 118.53125 112.070312 C 117.964844 111.835938 117.429688 111.550781 116.921875 111.210938 C 116.414062 110.871094 115.941406 110.484375 115.511719 110.050781 L 31.707031 26.25 C 31.277344 25.816406 30.890625 25.347656 30.550781 24.839844 C 30.210938 24.332031 29.925781 23.792969 29.691406 23.230469 C 29.457031 22.664062 29.28125 22.082031 29.160156 21.484375 C 29.042969 20.882812 28.980469 20.277344 28.980469 19.667969 C 28.980469 19.054688 29.042969 18.449219 29.160156 17.851562 C 29.28125 17.25 29.457031 16.667969 29.691406 16.105469 C 29.925781 15.539062 30.210938 15.003906 30.550781 14.492188 C 30.890625 13.984375 31.277344 13.515625 31.707031 13.082031 C 32.140625 12.652344 32.613281 12.265625 33.121094 11.925781 C 33.628906 11.585938 34.164062 11.296875 34.730469 11.066406 C 35.292969 10.832031 35.875 10.65625 36.476562 10.535156 C 37.074219 10.414062 37.679688 10.355469 38.292969 10.355469 C 38.902344 10.355469 39.507812 10.414062 40.109375 10.535156 C 40.707031 10.65625 41.289062 10.832031 41.855469 11.066406 C 42.421875 11.296875 42.957031 11.585938 43.464844 11.925781 C 43.972656 12.265625 44.445312 12.652344 44.875 13.082031 L 122.09375 90.300781 L 152.757812 59.640625 C 153.1875 59.207031 153.660156 58.820312 154.167969 58.480469 C 154.675781 58.140625 155.210938 57.855469 155.777344 57.621094 C 156.339844 57.386719 156.921875 57.210938 157.523438 57.089844 C 158.121094 56.96875 158.726562 56.910156 159.339844 56.910156 C 159.949219 56.910156 160.554688 56.96875 161.15625 57.089844 C 161.753906 57.210938 162.335938 57.386719 162.902344 57.621094 C 163.46875 57.855469 164.003906 58.140625 164.511719 58.480469 C 165.019531 58.820312 165.492188 59.207031 165.921875 59.640625 L 219.863281 113.578125 L 236.558594 96.882812 C 237.210938 96.234375 237.941406 95.691406 238.753906 95.257812 C 239.566406 94.824219 240.421875 94.515625 241.324219 94.335938 C 242.226562 94.15625 243.136719 94.113281 244.054688 94.203125 C 244.96875 94.292969 245.855469 94.511719 246.703125 94.867188 C 247.554688 95.21875 248.335938 95.6875 249.046875 96.269531 C 249.757812 96.855469 250.371094 97.53125 250.882812 98.296875 C 251.394531 99.058594 251.785156 99.882812 252.050781 100.765625 C 252.316406 101.644531 252.453125 102.546875 252.453125 103.46875 Z M 243.140625 187.269531 L 205.894531 187.269531 C 205.285156 187.269531 204.679688 187.328125 204.078125 187.449219 C 203.480469 187.566406 202.898438 187.742188 202.332031 187.976562 C 201.765625 188.210938 201.230469 188.5 200.722656 188.839844 C 200.214844 189.179688 199.742188 189.5625 199.3125 189.996094 C 198.878906 190.429688 198.492188 190.898438 198.152344 191.40625 C 197.8125 191.914062 197.527344 192.453125 197.292969 193.015625 C 197.058594 193.582031 196.882812 194.164062 196.761719 194.765625 C 196.644531 195.363281 196.585938 195.96875 196.585938 196.582031 L 196.585938 261.757812 C 196.585938 262.371094 196.644531 262.976562 196.761719 263.574219 C 196.882812 264.175781 197.058594 264.757812 197.292969 265.324219 C 197.527344 265.886719 197.8125 266.421875 198.152344 266.933594 C 198.492188 267.441406 198.878906 267.910156 199.3125 268.34375 C 199.742188 268.777344 200.214844 269.160156 200.722656 269.5 C 201.230469 269.839844 201.765625 270.128906 202.332031 270.363281 C 202.898438 270.59375 203.480469 270.773438 204.078125 270.890625 C 204.679688 271.011719 205.285156 271.070312 205.894531 271.070312 L 243.140625 271.070312 C 243.75 271.070312 244.355469 271.011719 244.957031 270.890625 C 245.558594 270.773438 246.140625 270.59375 246.703125 270.363281 C 247.269531 270.128906 247.804688 269.839844 248.3125 269.5 C 248.820312 269.160156 249.292969 268.777344 249.722656 268.34375 C 250.15625 267.910156 250.542969 267.441406 250.882812 266.933594 C 251.222656 266.421875 251.507812 265.886719 251.742188 265.324219 C 251.976562 264.757812 252.152344 264.175781 252.273438 263.574219 C 252.390625 262.976562 252.453125 262.371094 252.453125 261.757812 L 252.453125 196.582031 C 252.453125 195.96875 252.390625 195.363281 252.273438 194.765625 C 252.152344 194.164062 251.976562 193.582031 251.742188 193.015625 C 251.507812 192.453125 251.222656 191.914062 250.882812 191.40625 C 250.542969 190.898438 250.15625 190.429688 249.722656 189.996094 C 249.292969 189.5625 248.820312 189.179688 248.3125 188.839844 C 247.804688 188.5 247.269531 188.210938 246.703125 187.976562 C 246.140625 187.742188 245.554688 187.566406 244.957031 187.449219 C 244.355469 187.328125 243.75 187.269531 243.140625 187.269531 Z M 159.339844 150.023438 L 122.09375 150.023438 C 121.484375 150.023438 120.878906 150.082031 120.277344 150.203125 C 119.679688 150.320312 119.09375 150.5 118.53125 150.734375 C 117.964844 150.964844 117.429688 151.253906 116.921875 151.59375 C 116.414062 151.933594 115.941406 152.320312 115.511719 152.75 C 115.078125 153.183594 114.691406 153.652344 114.351562 154.160156 C 114.011719 154.671875 113.726562 155.207031 113.492188 155.773438 C 113.257812 156.335938 113.082031 156.917969 112.960938 157.519531 C 112.84375 158.117188 112.78125 158.722656 112.78125 159.335938 L 112.78125 261.757812 C 112.78125 262.371094 112.84375 262.976562 112.960938 263.574219 C 113.082031 264.175781 113.257812 264.757812 113.492188 265.324219 C 113.726562 265.886719 114.011719 266.421875 114.351562 266.933594 C 114.691406 267.441406 115.078125 267.910156 115.511719 268.34375 C 115.941406 268.777344 116.414062 269.160156 116.921875 269.5 C 117.429688 269.839844 117.964844 270.128906 118.53125 270.363281 C 119.09375 270.59375 119.679688 270.773438 120.277344 270.890625 C 120.878906 271.011719 121.484375 271.070312 122.09375 271.070312 L 159.339844 271.070312 C 159.949219 271.070312 160.554688 271.011719 161.15625 270.890625 C 161.753906 270.773438 162.335938 270.59375 162.902344 270.363281 C 163.46875 270.128906 164.003906 269.839844 164.511719 269.5 C 165.019531 269.160156 165.492188 268.777344 165.921875 268.34375 C 166.355469 267.910156 166.742188 267.441406 167.082031 266.933594 C 167.421875 266.421875 167.707031 265.886719 167.941406 265.324219 C 168.175781 264.757812 168.351562 264.175781 168.472656 263.574219 C 168.589844 262.976562 168.648438 262.371094 168.648438 261.757812 L 168.648438 159.335938 C 168.648438 158.722656 168.589844 158.117188 168.472656 157.519531 C 168.351562 156.917969 168.175781 156.335938 167.941406 155.773438 C 167.707031 155.207031 167.421875 154.671875 167.082031 154.160156 C 166.742188 153.652344 166.355469 153.183594 165.921875 152.75 C 165.492188 152.320312 165.019531 151.933594 164.511719 151.59375 C 164.003906 151.253906 163.46875 150.964844 162.902344 150.734375 C 162.335938 150.5 161.753906 150.320312 161.15625 150.203125 C 160.554688 150.082031 159.949219 150.023438 159.339844 150.023438 Z M 75.539062 112.777344 L 38.292969 112.777344 C 37.679688 112.777344 37.074219 112.839844 36.476562 112.957031 C 35.875 113.078125 35.292969 113.253906 34.730469 113.488281 C 34.164062 113.722656 33.628906 114.007812 33.121094 114.347656 C 32.609375 114.6875 32.140625 115.074219 31.707031 115.507812 C 31.277344 115.9375 30.890625 116.410156 30.550781 116.917969 C 30.210938 117.425781 29.925781 117.960938 29.691406 118.527344 C 29.457031 119.089844 29.28125 119.675781 29.160156 120.273438 C 29.039062 120.875 28.980469 121.480469 28.980469 122.089844 L 28.980469 261.757812 C 28.980469 262.371094 29.039062 262.976562 29.160156 263.574219 C 29.28125 264.175781 29.457031 264.757812 29.691406 265.324219 C 29.925781 265.886719 30.210938 266.421875 30.550781 266.933594 C 30.890625 267.441406 31.277344 267.910156 31.707031 268.34375 C 32.140625 268.777344 32.609375 269.160156 33.121094 269.5 C 33.628906 269.839844 34.164062 270.128906 34.730469 270.363281 C 35.292969 270.59375 35.875 270.773438 36.476562 270.890625 C 37.074219 271.011719 37.679688 271.070312 38.292969 271.070312 L 75.539062 271.070312 C 76.148438 271.070312 76.753906 271.011719 77.355469 270.890625 C 77.953125 270.773438 78.535156 270.59375 79.101562 270.363281 C 79.664062 270.128906 80.203125 269.839844 80.710938 269.5 C 81.21875 269.160156 81.6875 268.777344 82.121094 268.34375 C 82.554688 267.910156 82.941406 267.441406 83.28125 266.933594 C 83.621094 266.421875 83.90625 265.886719 84.140625 265.324219 C 84.375 264.757812 84.550781 264.175781 84.671875 263.574219 C 84.789062 262.976562 84.847656 262.371094 84.847656 261.757812 L 84.847656 122.089844 C 84.847656 121.480469 84.789062 120.875 84.671875 120.273438 C 84.550781 119.675781 84.375 119.089844 84.140625 118.527344 C 83.90625 117.960938 83.621094 117.425781 83.28125 116.917969 C 82.941406 116.410156 82.554688 115.9375 82.121094 115.507812 C 81.6875 115.074219 81.21875 114.6875 80.710938 114.347656 C 80.203125 114.007812 79.664062 113.722656 79.101562 113.488281 C 78.535156 113.253906 77.953125 113.078125 77.355469 112.957031 C 76.753906 112.839844 76.148438 112.777344 75.539062 112.777344 Z M 75.539062 112.777344 " fill-opacity="1" fill-rule="nonzero"/></g><g clip-path="url(#539583961d)"><path fill="#93e85f" d="M 265.578125 92.730469 L 265.578125 142.476562 C 265.578125 143.128906 265.511719 143.773438 265.386719 144.414062 C 265.257812 145.054688 265.070312 145.679688 264.820312 146.28125 C 264.570312 146.886719 264.261719 147.457031 263.898438 148.003906 C 263.539062 148.546875 263.125 149.046875 262.664062 149.507812 C 262.199219 149.972656 261.699219 150.382812 261.15625 150.746094 C 260.613281 151.109375 260.039062 151.417969 259.433594 151.667969 C 258.832031 151.917969 258.210938 152.105469 257.570312 152.234375 C 256.929688 152.359375 256.28125 152.421875 255.628906 152.421875 L 205.882812 152.421875 C 204.898438 152.421875 203.9375 152.28125 202.996094 151.996094 C 202.054688 151.710938 201.175781 151.292969 200.355469 150.746094 C 199.539062 150.199219 198.816406 149.546875 198.191406 148.785156 C 197.570312 148.027344 197.070312 147.191406 196.691406 146.28125 C 196.316406 145.375 196.078125 144.429688 195.984375 143.449219 C 195.886719 142.472656 195.933594 141.5 196.125 140.535156 C 196.316406 139.570312 196.644531 138.652344 197.109375 137.785156 C 197.574219 136.917969 198.152344 136.136719 198.847656 135.441406 L 216.6875 117.601562 L 166.085938 67.003906 L 133.324219 99.765625 C 132.863281 100.226562 132.359375 100.640625 131.816406 101 C 131.273438 101.363281 130.703125 101.671875 130.097656 101.921875 C 129.496094 102.171875 128.871094 102.359375 128.230469 102.488281 C 127.589844 102.617188 126.945312 102.679688 126.289062 102.679688 C 125.636719 102.679688 124.992188 102.617188 124.351562 102.488281 C 123.710938 102.359375 123.085938 102.171875 122.484375 101.921875 C 121.878906 101.671875 121.308594 101.363281 120.765625 101 C 120.222656 100.640625 119.71875 100.226562 119.257812 99.765625 L 29.714844 10.222656 C 29.253906 9.761719 28.839844 9.257812 28.476562 8.714844 C 28.117188 8.171875 27.808594 7.597656 27.558594 6.996094 C 27.308594 6.390625 27.121094 5.769531 26.992188 5.128906 C 26.867188 4.488281 26.800781 3.84375 26.800781 3.1875 C 26.800781 2.535156 26.867188 1.890625 26.992188 1.25 C 27.121094 0.609375 27.308594 -0.015625 27.558594 -0.617188 C 27.808594 -1.222656 28.117188 -1.792969 28.476562 -2.335938 C 28.839844 -2.882812 29.253906 -3.382812 29.714844 -3.84375 C 30.175781 -4.308594 30.679688 -4.71875 31.222656 -5.082031 C 31.765625 -5.445312 32.339844 -5.75 32.941406 -6 C 33.546875 -6.25 34.167969 -6.441406 34.808594 -6.566406 C 35.449219 -6.695312 36.097656 -6.757812 36.75 -6.757812 C 37.402344 -6.757812 38.050781 -6.695312 38.691406 -6.566406 C 39.332031 -6.441406 39.953125 -6.25 40.558594 -6 C 41.160156 -5.75 41.734375 -5.445312 42.277344 -5.082031 C 42.820312 -4.71875 43.320312 -4.308594 43.785156 -3.84375 L 126.292969 78.660156 L 159.054688 45.898438 C 159.515625 45.4375 160.015625 45.023438 160.558594 44.660156 C 161.101562 44.296875 161.675781 43.992188 162.28125 43.742188 C 162.882812 43.492188 163.503906 43.304688 164.144531 43.175781 C 164.789062 43.046875 165.433594 42.984375 166.085938 42.984375 C 166.742188 42.984375 167.386719 43.046875 168.027344 43.175781 C 168.667969 43.304688 169.289062 43.492188 169.894531 43.742188 C 170.496094 43.992188 171.070312 44.296875 171.613281 44.660156 C 172.15625 45.023438 172.660156 45.4375 173.121094 45.898438 L 230.757812 103.535156 L 248.59375 85.695312 C 249.289062 85 250.070312 84.417969 250.941406 83.957031 C 251.808594 83.492188 252.722656 83.164062 253.6875 82.972656 C 254.652344 82.78125 255.625 82.734375 256.605469 82.828125 C 257.582031 82.925781 258.527344 83.164062 259.4375 83.539062 C 260.34375 83.914062 261.179688 84.414062 261.941406 85.039062 C 262.699219 85.664062 263.355469 86.386719 263.902344 87.203125 C 264.445312 88.019531 264.863281 88.902344 265.148438 89.84375 C 265.433594 90.785156 265.578125 91.746094 265.578125 92.730469 Z M 255.628906 182.269531 L 215.832031 182.269531 C 215.179688 182.269531 214.53125 182.335938 213.890625 182.460938 C 213.25 182.589844 212.628906 182.777344 212.023438 183.027344 C 211.421875 183.277344 210.847656 183.585938 210.304688 183.949219 C 209.761719 184.308594 209.257812 184.722656 208.796875 185.183594 C 208.335938 185.648438 207.921875 186.148438 207.558594 186.691406 C 207.195312 187.234375 206.890625 187.808594 206.640625 188.414062 C 206.390625 189.015625 206.203125 189.636719 206.074219 190.277344 C 205.945312 190.917969 205.882812 191.566406 205.882812 192.21875 L 205.882812 261.863281 C 205.882812 262.515625 205.945312 263.164062 206.074219 263.804688 C 206.203125 264.445312 206.390625 265.066406 206.640625 265.667969 C 206.890625 266.273438 207.195312 266.847656 207.558594 267.390625 C 207.921875 267.933594 208.335938 268.4375 208.796875 268.898438 C 209.257812 269.359375 209.761719 269.773438 210.304688 270.136719 C 210.847656 270.496094 211.421875 270.804688 212.023438 271.054688 C 212.628906 271.304688 213.25 271.492188 213.890625 271.621094 C 214.53125 271.746094 215.179688 271.8125 215.832031 271.8125 L 255.628906 271.8125 C 256.28125 271.8125 256.929688 271.746094 257.570312 271.621094 C 258.210938 271.492188 258.832031 271.304688 259.433594 271.054688 C 260.039062 270.804688 260.613281 270.496094 261.15625 270.136719 C 261.699219 269.773438 262.199219 269.359375 262.664062 268.898438 C 263.125 268.4375 263.539062 267.933594 263.898438 267.390625 C 264.261719 266.847656 264.570312 266.273438 264.820312 265.667969 C 265.070312 265.066406 265.257812 264.445312 265.386719 263.804688 C 265.511719 263.164062 265.578125 262.515625 265.578125 261.863281 L 265.578125 192.21875 C 265.578125 191.566406 265.511719 190.917969 265.386719 190.277344 C 265.257812 189.636719 265.070312 189.015625 264.820312 188.414062 C 264.570312 187.808594 264.261719 187.234375 263.898438 186.691406 C 263.539062 186.148438 263.125 185.648438 262.664062 185.183594 C 262.199219 184.722656 261.699219 184.308594 261.15625 183.949219 C 260.613281 183.585938 260.039062 183.277344 259.433594 183.027344 C 258.832031 182.777344 258.210938 182.589844 257.570312 182.460938 C 256.929688 182.335938 256.28125 182.269531 255.628906 182.269531 Z M 166.085938 142.476562 L 126.292969 142.476562 C 125.636719 142.476562 124.992188 142.539062 124.351562 142.664062 C 123.710938 142.792969 123.085938 142.980469 122.484375 143.230469 C 121.878906 143.480469 121.308594 143.789062 120.761719 144.152344 C 120.21875 144.515625 119.71875 144.925781 119.257812 145.386719 C 118.792969 145.851562 118.382812 146.351562 118.019531 146.894531 C 117.65625 147.4375 117.347656 148.011719 117.097656 148.617188 C 116.847656 149.21875 116.660156 149.84375 116.53125 150.484375 C 116.40625 151.125 116.34375 151.769531 116.34375 152.421875 L 116.34375 261.863281 C 116.34375 262.515625 116.40625 263.164062 116.53125 263.804688 C 116.660156 264.445312 116.847656 265.066406 117.097656 265.667969 C 117.347656 266.273438 117.65625 266.847656 118.019531 267.390625 C 118.382812 267.933594 118.792969 268.4375 119.257812 268.898438 C 119.71875 269.359375 120.21875 269.773438 120.761719 270.136719 C 121.308594 270.496094 121.878906 270.804688 122.484375 271.054688 C 123.085938 271.304688 123.710938 271.492188 124.351562 271.621094 C 124.992188 271.746094 125.636719 271.8125 126.292969 271.8125 L 166.085938 271.8125 C 166.742188 271.8125 167.386719 271.746094 168.027344 271.621094 C 168.667969 271.492188 169.289062 271.304688 169.894531 271.054688 C 170.496094 270.804688 171.070312 270.496094 171.613281 270.136719 C 172.15625 269.773438 172.660156 269.359375 173.121094 268.898438 C 173.582031 268.4375 173.996094 267.933594 174.359375 267.390625 C 174.722656 266.847656 175.027344 266.273438 175.277344 265.667969 C 175.527344 265.066406 175.71875 264.445312 175.84375 263.804688 C 175.972656 263.164062 176.035156 262.515625 176.035156 261.863281 L 176.035156 152.421875 C 176.035156 151.769531 175.972656 151.125 175.84375 150.484375 C 175.71875 149.84375 175.527344 149.21875 175.277344 148.617188 C 175.027344 148.011719 174.722656 147.4375 174.359375 146.894531 C 173.996094 146.351562 173.582031 145.851562 173.121094 145.386719 C 172.660156 144.925781 172.15625 144.515625 171.613281 144.152344 C 171.070312 143.789062 170.496094 143.480469 169.894531 143.230469 C 169.289062 142.980469 168.667969 142.792969 168.027344 142.664062 C 167.386719 142.539062 166.742188 142.476562 166.085938 142.476562 Z M 76.546875 102.679688 L 36.75 102.679688 C 36.097656 102.679688 35.449219 102.742188 34.808594 102.871094 C 34.167969 102.996094 33.546875 103.1875 32.941406 103.4375 C 32.339844 103.6875 31.765625 103.992188 31.222656 104.355469 C 30.679688 104.71875 30.175781 105.128906 29.714844 105.59375 C 29.253906 106.054688 28.839844 106.558594 28.476562 107.101562 C 28.113281 107.644531 27.808594 108.214844 27.558594 108.820312 C 27.308594 109.425781 27.121094 110.046875 26.992188 110.6875 C 26.863281 111.328125 26.800781 111.972656 26.800781 112.628906 L 26.800781 261.863281 C 26.800781 262.515625 26.863281 263.164062 26.992188 263.804688 C 27.121094 264.445312 27.308594 265.066406 27.558594 265.667969 C 27.808594 266.273438 28.113281 266.847656 28.476562 267.390625 C 28.839844 267.933594 29.253906 268.4375 29.714844 268.898438 C 30.175781 269.359375 30.679688 269.773438 31.222656 270.136719 C 31.765625 270.496094 32.339844 270.804688 32.941406 271.054688 C 33.546875 271.304688 34.167969 271.492188 34.808594 271.621094 C 35.449219 271.746094 36.097656 271.8125 36.75 271.8125 L 76.546875 271.8125 C 77.199219 271.8125 77.847656 271.746094 78.488281 271.621094 C 79.128906 271.492188 79.75 271.304688 80.351562 271.054688 C 80.957031 270.804688 81.53125 270.496094 82.074219 270.136719 C 82.617188 269.773438 83.117188 269.359375 83.582031 268.898438 C 84.042969 268.4375 84.457031 267.933594 84.816406 267.390625 C 85.179688 266.847656 85.488281 266.273438 85.738281 265.667969 C 85.988281 265.066406 86.175781 264.445312 86.304688 263.804688 C 86.429688 263.164062 86.496094 262.515625 86.496094 261.863281 L 86.496094 112.628906 C 86.496094 111.972656 86.429688 111.328125 86.304688 110.6875 C 86.175781 110.046875 85.988281 109.425781 85.738281 108.820312 C 85.488281 108.214844 85.179688 107.644531 84.816406 107.101562 C 84.457031 106.558594 84.042969 106.054688 83.582031 105.59375 C 83.117188 105.128906 82.617188 104.71875 82.074219 104.355469 C 81.53125 103.992188 80.957031 103.6875 80.351562 103.4375 C 79.75 103.1875 79.128906 102.996094 78.488281 102.871094 C 77.847656 102.742188 77.199219 102.679688 76.546875 102.679688 Z M 76.546875 102.679688 " fill-opacity="1" fill-rule="nonzero"/></g><g clip-path="url(#5d16ead6e5)"><path fill="#93e85f" d="M 254.539062 93.957031 L 254.539062 143.363281 C 254.539062 144.011719 254.476562 144.65625 254.351562 145.289062 C 254.222656 145.925781 254.035156 146.546875 253.789062 147.144531 C 253.539062 147.742188 253.234375 148.3125 252.875 148.851562 C 252.515625 149.390625 252.105469 149.890625 251.648438 150.351562 C 251.1875 150.808594 250.6875 151.21875 250.148438 151.578125 C 249.609375 151.9375 249.039062 152.242188 248.441406 152.492188 C 247.839844 152.742188 247.222656 152.929688 246.585938 153.054688 C 245.949219 153.179688 245.308594 153.246094 244.660156 153.246094 L 195.253906 153.246094 C 194.277344 153.246094 193.320312 153.101562 192.386719 152.820312 C 191.449219 152.535156 190.578125 152.121094 189.765625 151.578125 C 188.953125 151.035156 188.234375 150.386719 187.617188 149.632812 C 186.996094 148.875 186.5 148.046875 186.125 147.144531 C 185.75 146.242188 185.515625 145.304688 185.421875 144.332031 C 185.324219 143.359375 185.375 142.394531 185.5625 141.4375 C 185.753906 140.476562 186.082031 139.566406 186.539062 138.707031 C 187 137.84375 187.578125 137.066406 188.269531 136.378906 L 205.984375 118.660156 L 155.730469 68.40625 L 123.191406 100.945312 C 122.734375 101.402344 122.234375 101.8125 121.695312 102.171875 C 121.15625 102.535156 120.585938 102.839844 119.984375 103.085938 C 119.386719 103.335938 118.769531 103.523438 118.132812 103.648438 C 117.496094 103.777344 116.855469 103.839844 116.203125 103.839844 C 115.554688 103.839844 114.914062 103.777344 114.277344 103.648438 C 113.640625 103.523438 113.023438 103.335938 112.421875 103.085938 C 111.824219 102.839844 111.253906 102.535156 110.714844 102.171875 C 110.175781 101.8125 109.675781 101.402344 109.21875 100.945312 L 20.289062 12.015625 C 19.832031 11.554688 19.421875 11.054688 19.058594 10.515625 C 18.699219 9.976562 18.394531 9.410156 18.148438 8.808594 C 17.898438 8.210938 17.710938 7.589844 17.585938 6.957031 C 17.457031 6.320312 17.394531 5.675781 17.394531 5.027344 C 17.394531 4.378906 17.457031 3.738281 17.585938 3.101562 C 17.710938 2.464844 17.898438 1.847656 18.148438 1.246094 C 18.394531 0.648438 18.699219 0.078125 19.058594 -0.460938 C 19.421875 -1 19.832031 -1.5 20.289062 -1.957031 C 20.746094 -2.417969 21.246094 -2.828125 21.785156 -3.1875 C 22.324219 -3.546875 22.894531 -3.851562 23.492188 -4.101562 C 24.09375 -4.347656 24.710938 -4.535156 25.347656 -4.664062 C 25.984375 -4.789062 26.625 -4.851562 27.273438 -4.851562 C 27.921875 -4.851562 28.566406 -4.789062 29.203125 -4.664062 C 29.839844 -4.535156 30.457031 -4.347656 31.054688 -4.101562 C 31.65625 -3.851562 32.226562 -3.546875 32.765625 -3.1875 C 33.304688 -2.828125 33.800781 -2.417969 34.261719 -1.957031 L 116.207031 79.984375 L 148.742188 47.445312 C 149.203125 46.988281 149.703125 46.578125 150.242188 46.21875 C 150.78125 45.855469 151.347656 45.550781 151.949219 45.304688 C 152.546875 45.054688 153.164062 44.867188 153.800781 44.742188 C 154.4375 44.613281 155.082031 44.550781 155.730469 44.550781 C 156.378906 44.550781 157.019531 44.613281 157.65625 44.742188 C 158.292969 44.867188 158.910156 45.054688 159.511719 45.304688 C 160.109375 45.550781 160.679688 45.855469 161.21875 46.21875 C 161.757812 46.578125 162.257812 46.988281 162.714844 47.445312 L 219.957031 104.6875 L 237.675781 86.972656 C 238.363281 86.28125 239.140625 85.703125 240.003906 85.242188 C 240.863281 84.785156 241.773438 84.457031 242.734375 84.265625 C 243.691406 84.078125 244.65625 84.027344 245.628906 84.125 C 246.601562 84.222656 247.539062 84.457031 248.441406 84.828125 C 249.34375 85.203125 250.171875 85.699219 250.929688 86.320312 C 251.683594 86.941406 252.332031 87.65625 252.875 88.46875 C 253.417969 89.28125 253.832031 90.15625 254.113281 91.089844 C 254.398438 92.023438 254.539062 92.980469 254.539062 93.957031 Z M 244.660156 182.886719 L 205.136719 182.886719 C 204.484375 182.886719 203.84375 182.949219 203.207031 183.078125 C 202.570312 183.203125 201.953125 183.390625 201.355469 183.640625 C 200.753906 183.886719 200.183594 184.191406 199.644531 184.554688 C 199.105469 184.914062 198.605469 185.324219 198.148438 185.78125 C 197.6875 186.242188 197.28125 186.738281 196.917969 187.277344 C 196.558594 187.820312 196.253906 188.386719 196.007812 188.988281 C 195.757812 189.585938 195.570312 190.203125 195.445312 190.839844 C 195.316406 191.476562 195.253906 192.121094 195.253906 192.769531 L 195.253906 261.9375 C 195.253906 262.585938 195.316406 263.226562 195.445312 263.863281 C 195.570312 264.5 195.757812 265.117188 196.007812 265.71875 C 196.253906 266.316406 196.558594 266.886719 196.917969 267.425781 C 197.28125 267.964844 197.6875 268.464844 198.148438 268.921875 C 198.605469 269.382812 199.105469 269.792969 199.644531 270.152344 C 200.183594 270.511719 200.753906 270.816406 201.355469 271.066406 C 201.953125 271.3125 202.570312 271.5 203.207031 271.628906 C 203.84375 271.753906 204.484375 271.816406 205.136719 271.816406 L 244.660156 271.816406 C 245.308594 271.816406 245.949219 271.753906 246.585938 271.628906 C 247.222656 271.5 247.839844 271.3125 248.441406 271.066406 C 249.039062 270.816406 249.609375 270.511719 250.148438 270.152344 C 250.6875 269.792969 251.1875 269.382812 251.648438 268.921875 C 252.105469 268.464844 252.515625 267.964844 252.875 267.425781 C 253.234375 266.886719 253.539062 266.316406 253.789062 265.71875 C 254.035156 265.117188 254.222656 264.5 254.351562 263.863281 C 254.476562 263.226562 254.539062 262.585938 254.539062 261.9375 L 254.539062 192.769531 C 254.539062 192.121094 254.476562 191.476562 254.351562 190.839844 C 254.222656 190.203125 254.035156 189.585938 253.789062 188.988281 C 253.539062 188.386719 253.234375 187.820312 252.875 187.277344 C 252.515625 186.738281 252.105469 186.242188 251.648438 185.78125 C 251.1875 185.324219 250.6875 184.914062 250.148438 184.554688 C 249.609375 184.191406 249.039062 183.886719 248.441406 183.640625 C 247.839844 183.390625 247.222656 183.203125 246.585938 183.078125 C 245.949219 182.949219 245.308594 182.886719 244.660156 182.886719 Z M 155.730469 143.363281 L 116.207031 143.363281 C 115.554688 143.363281 114.914062 143.425781 114.277344 143.554688 C 113.640625 143.679688 113.023438 143.867188 112.425781 144.117188 C 111.824219 144.363281 111.253906 144.667969 110.714844 145.027344 C 110.175781 145.390625 109.675781 145.796875 109.21875 146.257812 C 108.757812 146.714844 108.351562 147.214844 107.988281 147.753906 C 107.628906 148.292969 107.324219 148.863281 107.078125 149.460938 C 106.828125 150.0625 106.640625 150.679688 106.515625 151.316406 C 106.386719 151.953125 106.324219 152.59375 106.324219 153.246094 L 106.324219 261.9375 C 106.324219 262.585938 106.386719 263.226562 106.515625 263.863281 C 106.640625 264.5 106.828125 265.117188 107.078125 265.71875 C 107.324219 266.316406 107.628906 266.886719 107.988281 267.425781 C 108.351562 267.964844 108.757812 268.464844 109.21875 268.921875 C 109.675781 269.382812 110.175781 269.792969 110.714844 270.152344 C 111.253906 270.511719 111.824219 270.816406 112.425781 271.066406 C 113.023438 271.3125 113.640625 271.5 114.277344 271.628906 C 114.914062 271.753906 115.554688 271.816406 116.207031 271.816406 L 155.730469 271.816406 C 156.378906 271.816406 157.019531 271.753906 157.65625 271.628906 C 158.292969 271.5 158.910156 271.3125 159.511719 271.066406 C 160.109375 270.816406 160.679688 270.511719 161.21875 270.152344 C 161.757812 269.792969 162.257812 269.382812 162.714844 268.921875 C 163.175781 268.464844 163.585938 267.964844 163.945312 267.425781 C 164.304688 266.886719 164.609375 266.316406 164.859375 265.71875 C 165.105469 265.117188 165.292969 264.5 165.421875 263.863281 C 165.546875 263.226562 165.609375 262.585938 165.609375 261.9375 L 165.609375 153.246094 C 165.609375 152.59375 165.546875 151.953125 165.421875 151.316406 C 165.292969 150.679688 165.105469 150.0625 164.859375 149.460938 C 164.609375 148.863281 164.304688 148.292969 163.945312 147.753906 C 163.585938 147.214844 163.175781 146.714844 162.714844 146.257812 C 162.257812 145.796875 161.757812 145.390625 161.21875 145.027344 C 160.679688 144.667969 160.109375 144.363281 159.511719 144.117188 C 158.910156 143.867188 158.292969 143.679688 157.65625 143.554688 C 157.019531 143.425781 156.378906 143.363281 155.730469 143.363281 Z M 66.800781 103.839844 L 27.273438 103.839844 C 26.625 103.839844 25.984375 103.902344 25.347656 104.027344 C 24.710938 104.15625 24.09375 104.34375 23.492188 104.589844 C 22.894531 104.839844 22.324219 105.144531 21.785156 105.503906 C 21.246094 105.863281 20.746094 106.273438 20.289062 106.734375 C 19.828125 107.191406 19.421875 107.691406 19.058594 108.230469 C 18.699219 108.769531 18.394531 109.339844 18.144531 109.9375 C 17.898438 110.539062 17.710938 111.15625 17.585938 111.792969 C 17.457031 112.429688 17.394531 113.070312 17.394531 113.71875 L 17.394531 261.9375 C 17.394531 262.585938 17.457031 263.226562 17.585938 263.863281 C 17.710938 264.5 17.898438 265.117188 18.144531 265.71875 C 18.394531 266.316406 18.699219 266.886719 19.058594 267.425781 C 19.421875 267.964844 19.828125 268.464844 20.289062 268.921875 C 20.746094 269.382812 21.246094 269.792969 21.785156 270.152344 C 22.324219 270.511719 22.894531 270.816406 23.492188 271.066406 C 24.09375 271.3125 24.710938 271.5 25.347656 271.628906 C 25.984375 271.753906 26.625 271.816406 27.273438 271.816406 L 66.800781 271.816406 C 67.449219 271.816406 68.089844 271.753906 68.726562 271.628906 C 69.363281 271.5 69.980469 271.3125 70.582031 271.066406 C 71.179688 270.816406 71.75 270.511719 72.289062 270.152344 C 72.828125 269.792969 73.328125 269.382812 73.785156 268.921875 C 74.246094 268.464844 74.65625 267.964844 75.015625 267.425781 C 75.375 266.886719 75.679688 266.316406 75.929688 265.71875 C 76.175781 265.117188 76.363281 264.5 76.492188 263.863281 C 76.617188 263.226562 76.679688 262.585938 76.679688 261.9375 L 76.679688 113.71875 C 76.679688 113.070312 76.617188 112.429688 76.492188 111.792969 C 76.363281 111.15625 76.175781 110.539062 75.929688 109.9375 C 75.679688 109.339844 75.375 108.769531 75.015625 108.230469 C 74.65625 107.691406 74.246094 107.191406 73.785156 106.734375 C 73.328125 106.273438 72.828125 105.863281 72.289062 105.503906 C 71.75 105.144531 71.179688 104.839844 70.582031 104.589844 C 69.980469 104.34375 69.363281 104.15625 68.726562 104.027344 C 68.089844 103.902344 67.449219 103.839844 66.800781 103.839844 Z M 66.800781 103.839844 " fill-opacity="1" fill-rule="nonzero"/></g></svg>