<svg xmlns="http://www.w3.org/2000/svg" xmlns:xlink="http://www.w3.org/1999/xlink" width="375" zoomAndPan="magnify" viewBox="0 0 281.25 281.249989" height="375" preserveAspectRatio="xMidYMid meet" version="1.0"><defs><clipPath id="5a2bc1f4e4"><path d="M 30 5.914062 L 279 5.914062 L 279 140 L 30 140 Z M 30 5.914062 " clip-rule="nonzero"/></clipPath></defs><path fill="#01353c" d="M 20.59375 210.035156 L 3.730469 231.84375 C 1.695312 234.460938 2.277344 237.949219 4.894531 239.695312 L 48.21875 272.84375 C 50.835938 274.585938 54.324219 274.296875 56.070312 271.679688 L 72.644531 249.871094 L 21.757812 210.910156 C 21.175781 210.617188 20.886719 210.328125 20.59375 210.035156 Z M 20.59375 210.035156 " fill-opacity="1" fill-rule="nonzero"/><path fill="#01353c" d="M 232.859375 155.082031 L 193.023438 167.292969 C 193.023438 168.164062 193.023438 169.328125 193.023438 170.199219 C 192.441406 181.539062 184.300781 190.84375 173.25 193.171875 L 170.632812 193.753906 C 156.09375 196.660156 141.265625 198.40625 126.144531 198.988281 L 113.933594 199.277344 C 110.152344 199.277344 106.953125 196.371094 106.953125 192.589844 C 106.953125 188.808594 109.863281 185.613281 113.640625 185.613281 L 125.855469 185.320312 C 139.8125 185.03125 154.058594 183.285156 168.015625 180.378906 L 170.632812 179.796875 C 175.578125 178.632812 179.355469 174.5625 179.648438 169.328125 C 179.9375 166.421875 178.773438 163.222656 176.738281 161.1875 C 174.703125 158.859375 171.796875 157.695312 168.890625 157.40625 L 104.917969 154.789062 C 97.941406 154.5 90.671875 156.535156 84.855469 160.605469 L 31.0625 198.988281 L 85.726562 240.859375 L 139.519531 246.382812 C 148.824219 247.253906 158.421875 244.636719 165.691406 238.824219 L 244.78125 178.050781 C 247.6875 175.726562 249.433594 172.527344 250.015625 168.746094 C 250.304688 164.964844 249.140625 161.476562 246.523438 158.570312 C 243.035156 155.082031 237.800781 153.625 232.859375 155.082031 Z M 232.859375 155.082031 " fill-opacity="1" fill-rule="nonzero"/><g clip-path="url(#5a2bc1f4e4)"><path fill="#93e85f" d="M 252.050781 5.914062 L 56.941406 5.914062 C 42.113281 5.914062 30.191406 17.835938 30.191406 32.664062 L 30.191406 80.640625 C 30.191406 95.472656 42.113281 107.394531 56.941406 107.394531 L 133.414062 107.394531 L 149.988281 136.761719 C 152.023438 140.542969 157.257812 140.542969 159.292969 136.761719 L 175.578125 107.394531 L 252.050781 107.394531 C 266.878906 107.394531 278.800781 95.472656 278.800781 80.640625 L 278.800781 32.664062 C 278.800781 17.835938 266.878906 5.914062 252.050781 5.914062 Z M 96.484375 53.601562 L 88.34375 60.578125 L 90.671875 70.757812 C 91.253906 73.953125 88.054688 76.28125 85.4375 74.535156 L 76.714844 69.011719 L 67.699219 74.535156 C 65.082031 76.28125 61.59375 73.664062 62.464844 70.757812 L 64.792969 60.578125 L 56.648438 53.601562 C 54.324219 51.566406 55.488281 47.785156 58.6875 47.496094 L 69.152344 46.621094 L 73.222656 37.027344 C 74.386719 34.117188 78.457031 34.117188 79.621094 37.027344 L 83.691406 46.621094 L 94.160156 47.496094 C 97.648438 47.496094 98.8125 51.566406 96.484375 53.601562 Z M 119.457031 74.535156 C 116.839844 76.28125 113.351562 73.664062 114.222656 70.757812 L 116.550781 60.578125 L 108.699219 53.601562 C 106.371094 51.566406 107.535156 47.785156 110.734375 47.496094 L 121.203125 46.621094 L 125.273438 37.027344 C 126.4375 34.117188 130.507812 34.117188 131.667969 37.027344 L 135.742188 46.621094 L 146.207031 47.496094 C 149.40625 47.785156 150.570312 51.566406 148.242188 53.601562 L 140.101562 60.578125 L 142.429688 70.757812 C 143.011719 73.953125 139.8125 76.28125 137.195312 74.535156 L 128.179688 69.011719 Z M 200.292969 53.601562 L 192.152344 60.578125 L 194.476562 70.757812 C 195.058594 73.953125 191.859375 76.28125 189.242188 74.535156 L 180.230469 69.011719 L 171.214844 74.535156 C 168.597656 76.28125 165.109375 73.664062 165.980469 70.757812 L 168.308594 60.578125 L 160.164062 53.601562 C 157.839844 51.566406 159.003906 47.785156 162.199219 47.496094 L 172.667969 46.621094 L 176.738281 37.027344 C 177.902344 34.117188 181.972656 34.117188 183.136719 37.027344 L 187.207031 46.621094 L 197.675781 47.496094 C 201.457031 47.496094 202.617188 51.566406 200.292969 53.601562 Z M 252.050781 53.601562 L 243.90625 60.578125 L 246.234375 70.757812 C 246.816406 73.953125 243.617188 76.28125 241 74.535156 L 231.988281 69.011719 L 222.972656 74.535156 C 220.355469 76.28125 216.867188 73.664062 217.738281 70.757812 L 220.066406 60.578125 L 211.921875 53.601562 C 209.597656 51.566406 210.761719 47.785156 213.957031 47.496094 L 224.425781 46.621094 L 228.496094 37.027344 C 229.660156 34.117188 233.730469 34.117188 234.894531 37.027344 L 238.964844 46.621094 L 249.433594 47.496094 C 253.210938 47.496094 254.375 51.566406 252.050781 53.601562 Z M 252.050781 53.601562 " fill-opacity="1" fill-rule="nonzero"/></g></svg>